<svg xmlns="http://www.w3.org/2000/svg" xmlns:xlink="http://www.w3.org/1999/xlink" contentStyleType="text/css" height="377px" preserveAspectRatio="none" style="width:728px;height:377px;background:#FFFFFF;" version="1.1" viewBox="0 0 728 377" width="728px" zoomAndPan="magnify"><defs/><g><!--cluster UC1 - Login--><g id="cluster_UC1 - Login"><rect fill="none" height="364" rx="2.5" ry="2.5" style="stroke:#181818;stroke-width:1;" width="695" x="7" y="7"/><path d="M107.2686,7 L107.2686,16.2969 L97.2686,26.2969 L7,26.2969 " fill="none" style="stroke:#181818;stroke-width:1;"/><text fill="#000000" font-family="sans-serif" font-size="14" font-weight="bold" lengthAdjust="spacing" textLength="90.2686" x="10" y="20.9951">UC1 - Login</text></g><!--entity user--><g id="elem_user"><ellipse cx="38.9551" cy="50.5" fill="#F1F1F1" rx="8" ry="8" style="stroke:#181818;stroke-width:0.5;"/><path d="M38.9551,58.5 L38.9551,85.5 M25.9551,66.5 L51.9551,66.5 M38.9551,85.5 L25.9551,100.5 M38.9551,85.5 L51.9551,100.5 " fill="none" style="stroke:#181818;stroke-width:0.5;"/><text fill="#000000" font-family="sans-serif" font-size="14" lengthAdjust="spacing" textLength="31.9102" x="23" y="114.9951">User</text></g><!--entity app--><g id="elem_app"><rect fill="#F1F1F1" height="36.2969" rx="2.5" ry="2.5" style="stroke:#181818;stroke-width:0.5;" width="97.7246" x="232" y="62"/><text fill="#000000" font-family="sans-serif" font-size="14" lengthAdjust="spacing" textLength="77.7246" x="242" y="84.9951">Mobile App</text></g><!--entity login--><g id="elem_login"><rect fill="#F1F1F1" height="36.2969" rx="2.5" ry="2.5" style="stroke:#181818;stroke-width:0.5;" width="160.7178" x="524.5" y="62"/><text fill="#000000" font-family="sans-serif" font-size="14" lengthAdjust="spacing" textLength="140.7178" x="534.5" y="84.9951">LoginViewController</text></g><!--entity sdk--><g id="elem_sdk"><rect fill="#F1F1F1" height="36.2969" rx="2.5" ry="2.5" style="stroke:#181818;stroke-width:0.5;" width="84.9893" x="474.5" y="319"/><text fill="#000000" font-family="sans-serif" font-size="14" lengthAdjust="spacing" textLength="64.9893" x="484.5" y="341.9951">ClerkSDK</text></g><!--entity service--><g id="elem_service"><rect fill="#F1F1F1" height="36.2969" rx="2.5" ry="2.5" style="stroke:#181818;stroke-width:0.5;" width="219.5547" x="30" y="319"/><text fill="#000000" font-family="sans-serif" font-size="14" lengthAdjust="spacing" textLength="199.5547" x="40" y="341.9951">Clerk Authentication Service</text></g><!--link user to app--><g id="link_user_app"><path d="M55.25,80 C90.86,80 170.96,80 225.94,80 " fill="none" id="user-to-app" style="stroke:#181818;stroke-width:1;"/><polygon fill="#181818" points="231.94,80,222.94,76,226.94,80,222.94,84,231.94,80" style="stroke:#181818;stroke-width:1;"/><text fill="#000000" font-family="sans-serif" font-size="13" lengthAdjust="spacing" textLength="140.2515" x="73.5" y="73.0669">1.1: Enter credentials</text></g><!--reverse link user to app--><g id="link_user_app"><path d="M59.574,104.4712 C65.544,110.3812 68.55,111.86 76.5,115 C90.35,120.46 196,118.4 210.5,115 C225,111.6 239.93,104.75 252.3,98 " fill="none" id="user-backto-app" style="stroke:#181818;stroke-width:1;"/><polygon fill="#181818" points="55.31,100.25,58.8919,109.4244,58.8633,103.7676,64.5201,103.7391,55.31,100.25" style="stroke:#181818;stroke-width:1;"/><text fill="#000000" font-family="sans-serif" font-size="13" lengthAdjust="spacing" textLength="132.0884" x="77.5" y="96.0669">1.8: Display success</text><text fill="#000000" font-family="sans-serif" font-size="13" lengthAdjust="spacing" textLength="111.9727" x="87.5579" y="111.1997">or error message</text></g><!--link app to login--><g id="link_app_login"><path d="M330.21,80 C381.72,80 457.45,80 518.4,80 " fill="none" id="app-to-login" style="stroke:#181818;stroke-width:1;"/><polygon fill="#181818" points="524.4,80,515.4,76,519.4,80,515.4,84,524.4,80" style="stroke:#181818;stroke-width:1;"/><text fill="#000000" font-family="sans-serif" font-size="13" lengthAdjust="spacing" textLength="158.3296" x="348.25" y="73.0669">1.2: Forward credentials</text></g><!--reverse link app to login--><g id="link_app_login"><path d="M335.922,96.4899 C344.402,98.5399 347.36,98.9 355.75,100 C418.76,108.28 435.47,105.9 498.75,100 C507.07,99.22 515.7,98.11 524.29,96.81 " fill="none" id="app-backto-login" style="stroke:#181818;stroke-width:1;"/><polygon fill="#181818" points="330.09,95.08,337.8981,101.0828,334.95,96.2549,339.7779,93.3068,330.09,95.08" style="stroke:#181818;stroke-width:1;"/><text fill="#000000" font-family="sans-serif" font-size="13" lengthAdjust="spacing" textLength="141.9336" x="356.75" y="96.0669">1.7: Update app state</text></g><!--link login to sdk--><g id="link_login_sdk"><path d="M524.34,97.18 C463.43,114.09 383.91,147.26 345,210 C309.3,267.57 406.7678,305.5477 468.5478,323.4777 " fill="none" id="login-to-sdk" style="stroke:#181818;stroke-width:1;"/><polygon fill="#181818" points="474.31,325.15,466.7815,318.8,469.5081,323.7564,464.5518,326.483,474.31,325.15" style="stroke:#181818;stroke-width:1;"/><text fill="#000000" font-family="sans-serif" font-size="13" lengthAdjust="spacing" textLength="134.71" x="346" y="223.0669">1.3: Pass credentials</text></g><!--reverse link login to sdk--><g id="link_login_sdk"><path d="M597.1327,103.8018 C581.1027,150.2518 538.89,272.58 522.88,318.95 " fill="none" id="login-backto-sdk" style="stroke:#181818;stroke-width:1;"/><polygon fill="#181818" points="599.09,98.13,592.3728,105.3327,597.4589,102.8565,599.9352,107.9425,599.09,98.13" style="stroke:#181818;stroke-width:1;"/><text fill="#000000" font-family="sans-serif" font-size="13" lengthAdjust="spacing" textLength="160.1895" x="560" y="223.0669">1.6: Provide JWT or error</text></g><!--reverse link service to sdk--><g id="link_service_sdk"><path d="M256.06,337 C331.04,337 420.17,337 474.26,337 " fill="none" id="service-backto-sdk" style="stroke:#181818;stroke-width:1;"/><polygon fill="#181818" points="250.06,337,259.06,341,255.06,337,259.06,333,250.06,337" style="stroke:#181818;stroke-width:1;"/><text fill="#000000" font-family="sans-serif" font-size="13" lengthAdjust="spacing" textLength="188.9824" x="268.25" y="330.0669">1.4: Authenticate credentials</text></g><!--link service to sdk--><g id="link_service_sdk"><path d="M250.31,354.58 C307.33,361.07 377.95,365.1 440.75,357 C451.74,355.58 457.6,354.5581 468.42,351.7681 " fill="none" id="service-to-sdk" style="stroke:#181818;stroke-width:1;"/><polygon fill="#181818" points="474.23,350.27,464.5163,348.6439,469.3884,351.5184,466.5138,356.3905,474.23,350.27" style="stroke:#181818;stroke-width:1;"/><text fill="#000000" font-family="sans-serif" font-size="13" lengthAdjust="spacing" textLength="155.4478" x="284.75" y="353.0669">1.5: Return JWT or error</text></g><!--SRC=[VLBBRjim4BphAnQwz2G3wXiy533izj07K3H9U-c5fjOEOOfabsJSekY_TqbQY10hqS6IoPsPdTaDHssz93d25lSocNYDl-FQw8CTqKPG_8FKDCsUIn3QcqqF7Nns1srR-Diqm8zKqH5V1QGMP8347-M2K4Lf3uPnNznEytljVIcHtZ-iA9pVDPuspaPonfpPJ3v_MBpXs-FLzbEf2CDnyHxMATvo_rh9g9s5AwGxhR1YwZSRAz1daBi7RNNKCk9P5JmvXI6KakmAEkhUvUO5jFsg5_0-fmEASCWwqeHsuhit37j79qb3cDT1TB3WkER9c29KcX3GhvuB-519vXoJr08FU1a2NYXEiHLWjTWDBCG9PfaN0huoRabZGe9ouvXiZfJfJphUmbDP5pIpGsUoJ3tCKY_5786FIZx2Eqs6U-1hdlolX25MjND5IV1ix9M0RnWJMVZuunfuMP78qOKtmk2TvK7jf3e-DQ7YA7NTV4QlEJnoTth0HP6b8IK_b1YpXTc-XCYdyn6PQUdwrHi1DmLLjgHMNcxSd3ZLnUOztKkEPIS33i19LhC1xrSko-JghFDMm5O7R-GV24dbg7_QoHAC_5SUiFdt7m00]--></g></svg>