<svg xmlns="http://www.w3.org/2000/svg" xmlns:xlink="http://www.w3.org/1999/xlink" contentStyleType="text/css" height="400px" preserveAspectRatio="none" style="width:1394px;height:364px;background:#FFFFFF;" version="1.1" viewBox="0 0 1394 400" width="1394px" zoomAndPan="magnify"><defs/><g><!--cluster UC10 - Edit Profile--><g id="cluster_UC10 - Edit Profile"><rect fill="none" height="370" rx="2.5" ry="2.5" style="stroke:#181818;stroke-width:1;" width="1381" x="7" y="7"/><path d="M161.6006,7 L161.6006,16.2969 L151.6006,26.2969 L7,26.2969 " fill="none" style="stroke:#181818;stroke-width:1;"/><text fill="#000000" font-family="sans-serif" font-size="14" font-weight="bold" lengthAdjust="spacing" textLength="144.6006" x="10" y="20.9951">UC10 - Edit Profile</text></g><!--entity user--><g id="elem_user"><ellipse cx="38.9551" cy="255.5" fill="#F1F1F1" rx="8" ry="8" style="stroke:#181818;stroke-width:0.5;"/><path d="M38.9551,263.5 L38.9551,290.5 M25.9551,271.5 L51.9551,271.5 M38.9551,290.5 L25.9551,305.5 M38.9551,290.5 L51.9551,305.5 " fill="none" style="stroke:#181818;stroke-width:0.5;"/><text fill="#000000" font-family="sans-serif" font-size="14" lengthAdjust="spacing" textLength="31.9102" x="23" y="319.9951">User</text></g><!--entity app--><g id="elem_app"><rect fill="#F1F1F1" height="36.2969" rx="2.5" ry="2.5" style="stroke:#181818;stroke-width:0.5;" width="93.2744" x="373.5" y="267"/><text fill="#000000" font-family="sans-serif" font-size="14" lengthAdjust="spacing" textLength="73.2744" x="383.5" y="289.9951">MobileApp</text></g><!--entity profileController--><g id="elem_profileController"><rect fill="#F1F1F1" height="36.2969" rx="2.5" ry="2.5" style="stroke:#181818;stroke-width:0.5;" width="190.6797" x="797.5" y="267"/><text fill="#000000" font-family="sans-serif" font-size="14" lengthAdjust="spacing" textLength="170.6797" x="807.5" y="289.9951">ProfileSettingsController</text></g><!--entity imageUploader--><g id="elem_imageUploader"><rect fill="#F1F1F1" height="36.2969" rx="2.5" ry="2.5" style="stroke:#181818;stroke-width:0.5;" width="127.2695" x="356.5" y="42"/><text fill="#000000" font-family="sans-serif" font-size="14" lengthAdjust="spacing" textLength="107.2695" x="366.5" y="64.9951">ImageUploader</text></g><!--entity backend--><g id="elem_backend"><rect fill="#F1F1F1" height="36.2969" rx="2.5" ry="2.5" style="stroke:#181818;stroke-width:0.5;" width="132.1025" x="1240" y="267"/><text fill="#000000" font-family="sans-serif" font-size="14" lengthAdjust="spacing" textLength="112.1025" x="1250" y="289.9951">BackendService</text></g><!--link user to app--><g id="link_user_app"><path d="M55.16,313.65 C64.8,327.7 78.44,343.24 95.25,351 C107.25,356.54 320.72,355.22 333.25,351 C361.22,341.57 383.0734,323.3587 399.1934,307.2687 " fill="none" id="user-to-app" style="stroke:#181818;stroke-width:1;"/><polygon fill="#181818" points="403.44,303.03,394.2443,306.557,399.9012,306.5622,399.8959,312.2191,403.44,303.03" style="stroke:#181818;stroke-width:1;"/><text fill="#000000" font-family="sans-serif" font-size="13" lengthAdjust="spacing" textLength="148.7002" x="140.25" y="347.0669">1.1: Click Settings icon</text></g><!--link user to app--><g id="link_user_app"><path d="M55.37,285 C110.07,285 281.82,285 367.28,285 " fill="none" id="user-to-app-1" style="stroke:#181818;stroke-width:1;"/><polygon fill="#181818" points="373.28,285,364.28,281,368.28,285,364.28,289,373.28,285" style="stroke:#181818;stroke-width:1;"/><text fill="#000000" font-family="sans-serif" font-size="13" lengthAdjust="spacing" textLength="282.3945" x="73.25" y="278.0669">2.1: Update input fields (Name, Email, etc.)</text></g><!--link user to app--><g id="link_user_app"><path d="M55.34,292.48 C66.35,297.11 81.36,302.6 95.25,305 C147.37,313.99 280.7,310.98 333.25,305 C346.3,303.51 354.403,302.1565 367.213,299.2065 " fill="none" id="user-to-app-2" style="stroke:#181818;stroke-width:1;"/><polygon fill="#181818" points="373.06,297.86,363.3919,295.9818,368.1875,298.9821,365.1872,303.7777,373.06,297.86" style="stroke:#181818;stroke-width:1;"/><text fill="#000000" font-family="sans-serif" font-size="13" lengthAdjust="spacing" textLength="236.2026" x="96.25" y="301.0669">3.1: Select or capture profile picture</text></g><!--link user to app--><g id="link_user_app"><path d="M55.29,256.25 C59.97,250.5 65.64,245.24 72.25,242 C86.41,235.05 341.16,237.39 356.25,242 C372.34,246.92 383.3366,253.672 395.1266,263.062 " fill="none" id="user-to-app-3" style="stroke:#181818;stroke-width:1;"/><polygon fill="#181818" points="399.82,266.8,395.2719,258.0641,395.9089,263.685,390.288,264.322,399.82,266.8" style="stroke:#181818;stroke-width:1;"/><text fill="#000000" font-family="sans-serif" font-size="13" lengthAdjust="spacing" textLength="156.8823" x="136.25" y="232.0669">5.1: Click Save Changes</text></g><!--reverse link user to app--><g id="link_user_app"><path d="M59.873,306.346 C70.243,315.946 80.11,322.88 95.25,328 C120.3,336.48 307.5,334.03 333.25,328 C354.04,323.13 375.55,312.51 391.95,303.04 " fill="none" id="user-backto-app" style="stroke:#181818;stroke-width:1;"/><polygon fill="#181818" points="55.47,302.27,59.3571,311.3193,59.1391,305.6667,64.7918,305.4487,55.47,302.27" style="stroke:#181818;stroke-width:1;"/><text fill="#000000" font-family="sans-serif" font-size="13" lengthAdjust="spacing" textLength="180.7749" x="124.25" y="324.0669">6.3: Display updated profile</text></g><!--reverse link user to app--><g id="link_user_app"><path d="M60.2012,269.7712 C65.4012,266.5512 66.28,266.66 72.25,265 C102.66,256.56 325.06,260.22 356.25,265 C361.87,265.86 367.67,267.12 373.38,268.61 " fill="none" id="user-backto-app-1" style="stroke:#181818;stroke-width:1;"/><polygon fill="#181818" points="55.1,272.93,64.8576,271.5926,59.351,270.2977,60.6459,264.791,55.1,272.93" style="stroke:#181818;stroke-width:1;"/><text fill="#000000" font-family="sans-serif" font-size="13" lengthAdjust="spacing" textLength="200.6113" x="114.25" y="255.0669">7.3: Notify and highlight errors</text></g><!--link app to profileController--><g id="link_app_profileController"><path d="M466.57,295.6 C485.38,299.37 507.37,303.14 527.5,305 C620,313.53 643.8,310.9 736.5,305 C756.18,303.75 771.2134,302.3404 791.2234,299.9204 " fill="none" id="app-to-profileController" style="stroke:#181818;stroke-width:1;"/><polygon fill="#181818" points="797.18,299.2,787.7648,296.3095,792.2162,299.8003,788.7254,304.2516,797.18,299.2" style="stroke:#181818;stroke-width:1;"/><text fill="#000000" font-family="sans-serif" font-size="13" lengthAdjust="spacing" textLength="207.2002" x="528.5" y="301.0669">1.2: Navigate to Profile Settings</text></g><!--link app to profileController--><g id="link_app_profileController"><path d="M431.39,266.79 C442.56,250.8 461.22,228.64 484,219 C499.14,212.59 764.13,214.7 780,219 C814.21,228.26 843.8759,247.1588 865.5859,263.3088 " fill="none" id="app-to-profileController-1" style="stroke:#181818;stroke-width:1;"/><polygon fill="#181818" points="870.4,266.89,865.5663,258.3089,866.3883,263.9057,860.7915,264.7276,870.4,266.89" style="stroke:#181818;stroke-width:1;"/><text fill="#000000" font-family="sans-serif" font-size="13" lengthAdjust="spacing" textLength="159.0723" x="552.5" y="209.0669">2.2: Send updated fields</text></g><!--link app to profileController--><g id="link_app_profileController"><path d="M440.27,266.8 C452.11,257.41 467.87,246.92 484,242 C515.46,232.41 747.65,236.05 780,242 C806.22,246.82 828.7367,255.0268 850.3167,264.5068 " fill="none" id="app-to-profileController-2" style="stroke:#181818;stroke-width:1;"/><polygon fill="#181818" points="855.81,266.92,849.1788,259.638,851.2322,264.909,845.9612,266.9624,855.81,266.92" style="stroke:#181818;stroke-width:1;"/><text fill="#000000" font-family="sans-serif" font-size="13" lengthAdjust="spacing" textLength="177.3916" x="543.5" y="232.0669">3.4: Display image preview</text></g><!--reverse link app to profileController--><g id="link_app_profileController"><path d="M472.65,285 C549.21,285 697.04,285 797.46,285 " fill="none" id="app-backto-profileController" style="stroke:#181818;stroke-width:1;"/><polygon fill="#181818" points="466.65,285,475.65,289,471.65,285,475.65,281,466.65,285" style="stroke:#181818;stroke-width:1;"/><text fill="#000000" font-family="sans-serif" font-size="13" lengthAdjust="spacing" textLength="294.29" x="485" y="278.0669">4.1: Enable Save button if fields are modified</text></g><!--link app to profileController--><g id="link_app_profileController"><path d="M441.34,303.09 C461.9,319.24 494.62,341.71 527.5,351 C549.85,357.31 713.74,355.6 736.5,351 C781.73,341.85 824.8405,322.0144 855.6405,305.8044 " fill="none" id="app-to-profileController-3" style="stroke:#181818;stroke-width:1;"/><polygon fill="#181818" points="860.95,303.01,851.1227,303.6619,856.5254,305.3387,854.8486,310.7413,860.95,303.01" style="stroke:#181818;stroke-width:1;"/><text fill="#000000" font-family="sans-serif" font-size="13" lengthAdjust="spacing" textLength="174.186" x="545" y="347.0669">5.2: Validate updated data</text></g><!--reverse link app to profileController--><g id="link_app_profileController"><path d="M472.6075,267.1025 C478.3475,265.6125 478.36,265.86 484,265 C549.02,255.08 714.47,259.25 780,265 C785.95,265.52 792.06,266.2 798.21,266.98 " fill="none" id="app-backto-profileController-1" style="stroke:#181818;stroke-width:1;"/><polygon fill="#181818" points="466.8,268.61,476.5163,270.2204,471.6396,267.3537,474.5063,262.477,466.8,268.61" style="stroke:#181818;stroke-width:1;"/><text fill="#000000" font-family="sans-serif" font-size="13" lengthAdjust="spacing" textLength="184.228" x="540" y="255.0669">6.2: Navigate to profile view</text></g><!--reverse link app to profileController--><g id="link_app_profileController"><path d="M460.7259,305.5884 C481.2259,315.0684 502.43,323.17 527.5,328 C573.11,336.78 690.47,334.21 736.5,328 C771.96,323.22 810.76,312.6 840.85,303.11 " fill="none" id="app-backto-profileController-2" style="stroke:#181818;stroke-width:1;"/><polygon fill="#181818" points="455.28,303.07,461.7699,310.4782,459.8182,305.1687,465.1278,303.217,455.28,303.07" style="stroke:#181818;stroke-width:1;"/><text fill="#000000" font-family="sans-serif" font-size="13" lengthAdjust="spacing" textLength="182.5522" x="541" y="324.0669">7.2: Display error messages</text></g><!--reverse link imageUploader to app--><g id="link_imageUploader_app"><path d="M399.8034,82.8153 C387.0334,97.6353 374.17,115.68 367,139 C352.58,185.88 385.86,239.83 406.01,266.79 " fill="none" id="imageUploader-backto-app" style="stroke:#181818;stroke-width:1;"/><polygon fill="#181818" points="403.72,78.27,394.8149,82.477,400.4562,82.0578,400.8753,87.6991,403.72,78.27" style="stroke:#181818;stroke-width:1;"/><text fill="#000000" font-family="sans-serif" font-size="13" lengthAdjust="spacing" textLength="82.583" x="370.8215" y="152.0669">3.2: Validate</text><text fill="#000000" font-family="sans-serif" font-size="13" lengthAdjust="spacing" textLength="88.2261" x="368" y="167.1997">image format</text><text fill="#000000" font-family="sans-serif" font-size="13" lengthAdjust="spacing" textLength="53.7964" x="385.2148" y="182.3325">and size</text></g><!--link imageUploader to app--><g id="link_imageUploader_app"><path d="M432.24,78.28 C442.19,93.46 455.46,116.57 461,139 C472.47,185.48 449.5971,234.408 433.9071,261.498 " fill="none" id="imageUploader-to-app" style="stroke:#181818;stroke-width:1;"/><polygon fill="#181818" points="430.9,266.69,438.872,260.9067,433.4059,262.3633,431.9493,256.8972,430.9,266.69" style="stroke:#181818;stroke-width:1;"/><text fill="#000000" font-family="sans-serif" font-size="13" lengthAdjust="spacing" textLength="94.3896" x="464" y="159.5669">3.3: Validation</text><text fill="#000000" font-family="sans-serif" font-size="13" lengthAdjust="spacing" textLength="37.064" x="492.6628" y="174.6997">result</text></g><!--link profileController to backend--><g id="link_profileController_backend"><path d="M988.53,285 C1065.6,285 1166.02,285 1233.93,285 " fill="none" id="profileController-to-backend" style="stroke:#181818;stroke-width:1;"/><polygon fill="#181818" points="1239.93,285,1230.93,281,1234.93,285,1230.93,289,1239.93,285" style="stroke:#181818;stroke-width:1;"/><text fill="#000000" font-family="sans-serif" font-size="13" lengthAdjust="spacing" textLength="215.998" x="1006.75" y="278.0669">5.3: Send updated data to server</text></g><!--reverse link profileController to backend--><g id="link_profileController_backend"><path d="M994.4615,302.6613 C1004.3115,303.9213 1008.24,304.24 1017.75,305 C1103.26,311.81 1125.43,313.86 1210.75,305 C1220.25,304.01 1230.19,302.49 1239.92,300.71 " fill="none" id="profileController-backto-backend" style="stroke:#181818;stroke-width:1;"/><polygon fill="#181818" points="988.51,301.9,996.9297,307.0096,993.4696,302.5344,997.9448,299.0743,988.51,301.9" style="stroke:#181818;stroke-width:1;"/><text fill="#000000" font-family="sans-serif" font-size="13" lengthAdjust="spacing" textLength="191.4707" x="1018.75" y="301.0669">6.1: Profile update successful</text></g><!--reverse link profileController to backend--><g id="link_profileController_backend"><path d="M993.532,266.2226 C999.662,265.4426 999.81,265.52 1005.75,265 C1053.79,260.77 1174.86,259.33 1222.75,265 C1228.36,265.66 1234.14,266.57 1239.91,267.64 " fill="none" id="profileController-backto-backend-1" style="stroke:#181818;stroke-width:1;"/><polygon fill="#181818" points="987.58,266.98,997.0129,269.812,992.54,266.3489,996.0031,261.876,987.58,266.98" style="stroke:#181818;stroke-width:1;"/><text fill="#000000" font-family="sans-serif" font-size="13" lengthAdjust="spacing" textLength="124.8521" x="1052.25" y="255.0669">7.1: Error response</text></g><!--SRC=[ZLFHRjem57tdAwvusIOrQ41R91uchQpI-Z1K2T4dNenp0rOTstASJDsqVz-rOwSXPML8HJGvv_ZSSuyBoqg4yNOr_GmPtEV2mQFLXP0uXjyZe0_ZJbj2L6Z7m2gewKTuOP4xfWwIw3_qdXXVZGa8PimG43Ktw9nGXsgbbRDQoYXfshUlJuVqXv8TS6kaPdcaYFwJ8VoEyMTK-GPj8pW6_BvzD0hG3x1cZJWmX-1qcXUIkG3nKq9cioz-6bZ2T39TmaeA_jpXG72jseW84h1l1WdCsVBzywAdVlZme0fjI-P4F6BeP-RzR4tkDOKojOD2eCmh-BYcXLx1VSc4l09qVFBfiiUPzxYXVA0EadbKIzRYGSdSe-2kjdZMsDmRsw2aRG3rXZFZeUbKC3rgi5HdH3tPPX0XFqzC2d_iJeNNq0QoKuniLk9Ngt7ApFAUZtadGI7kbCMgbkvo5lF9zHA-YSf8zjBA4mmRWJ-xHIcsz_jZ3S9TxLnSqLknJ7PshdqiVU8-444KQN6CKYfrBkZVhgO1kJfIhV5yBMzwjHnYtvtoffzmjtNwPl-QnIl5MnJuyq5ZFDVNcnmsT2NZ1AaoiK6RcdEiMdz9BAHqpkEj7ou9jCT0rGeKjRoS-UtmvgKIXcLs4Nb2oDKpvg-xJuD5LhTzQwdNtwc5acxl_qso2DiFHAgXqQh2o_ONtduoWu5SqkZiPByzymjlVgsTA5x0tv6ZE1mb_RcMN8t-_0K0]--></g></svg>