<svg xmlns="http://www.w3.org/2000/svg" xmlns:xlink="http://www.w3.org/1999/xlink" contentStyleType="text/css" height="513px" preserveAspectRatio="none" style="width:2427px;height:513px;background:#FFFFFF;" version="1.1" viewBox="0 0 2427 513" width="2427px" zoomAndPan="magnify"><defs/><g><!--cluster UC2 - Recover Password--><g id="cluster_UC2 - Recover Password"><rect fill="none" height="488" rx="2.5" ry="2.5" style="stroke:#181818;stroke-width:1;" width="2414" x="7" y="19.5659"/><path d="M208.3857,19.5659 L208.3857,28.8628 L198.3857,38.8628 L7,38.8628 " fill="none" style="stroke:#181818;stroke-width:1;"/><text fill="#000000" font-family="sans-serif" font-size="14" font-weight="bold" lengthAdjust="spacing" textLength="191.3857" x="10" y="33.561">UC2 - Recover Password</text></g><!--entity user--><g id="elem_user"><ellipse cx="1456.9551" cy="424.0659" fill="#F1F1F1" rx="8" ry="8" style="stroke:#181818;stroke-width:0.5;"/><path d="M1456.9551,432.0659 L1456.9551,459.0659 M1443.9551,440.0659 L1469.9551,440.0659 M1456.9551,459.0659 L1443.9551,474.0659 M1456.9551,459.0659 L1469.9551,474.0659 " fill="none" style="stroke:#181818;stroke-width:0.5;"/><text fill="#000000" font-family="sans-serif" font-size="14" lengthAdjust="spacing" textLength="31.9102" x="1441" y="488.561">User</text></g><!--entity app--><g id="elem_app"><rect fill="#F1F1F1" height="36.2969" rx="2.5" ry="2.5" style="stroke:#181818;stroke-width:0.5;" width="97.7246" x="1407" y="54.5659"/><text fill="#000000" font-family="sans-serif" font-size="14" lengthAdjust="spacing" textLength="77.7246" x="1417" y="77.561">Mobile App</text></g><!--entity recover--><g id="elem_recover"><rect fill="#F1F1F1" height="36.2969" rx="2.5" ry="2.5" style="stroke:#181818;stroke-width:0.5;" width="246.2285" x="910" y="54.5659"/><text fill="#000000" font-family="sans-serif" font-size="14" lengthAdjust="spacing" textLength="226.2285" x="920" y="77.561">RecoverPasswordViewController</text></g><!--entity sdk--><g id="elem_sdk"><rect fill="#F1F1F1" height="36.2969" rx="2.5" ry="2.5" style="stroke:#181818;stroke-width:0.5;" width="84.9893" x="574.5" y="54.5659"/><text fill="#000000" font-family="sans-serif" font-size="14" lengthAdjust="spacing" textLength="64.9893" x="584.5" y="77.561">ClerkSDK</text></g><!--entity service--><g id="elem_service"><rect fill="#F1F1F1" height="36.2969" rx="2.5" ry="2.5" style="stroke:#181818;stroke-width:0.5;" width="219.5547" x="503" y="435.5659"/><text fill="#000000" font-family="sans-serif" font-size="14" lengthAdjust="spacing" textLength="199.5547" x="513" y="458.561">Clerk Authentication Service</text></g><!--reverse link app to user--><g id="link_app_user"><path d="M1400.7115,76.2273 C1313.4715,81.6373 1147,98.6559 1147,151.5659 C1147,151.5659 1147,151.5659 1147,354.5659 C1147,416.7959 1376.98,444.5259 1440.77,451.0259 " fill="none" id="app-backto-user" style="stroke:#181818;stroke-width:1;"/><polygon fill="#181818" points="1406.7,75.8559,1397.4697,72.4206,1401.7096,76.1654,1397.9648,80.4053,1406.7,75.8559" style="stroke:#181818;stroke-width:1;"/><text fill="#000000" font-family="sans-serif" font-size="13" lengthAdjust="spacing" textLength="159.5547" x="1148" y="257.6328">1.1: Enter email address</text></g><!--reverse link app to user--><g id="link_app_user"><path d="M1401.2032,90.6275 C1372.7232,102.5175 1348,120.2259 1348,151.5659 C1348,151.5659 1348,151.5659 1348,354.5659 C1348,403.9359 1410.6,434.7559 1440.92,446.7959 " fill="none" id="app-backto-user-1" style="stroke:#181818;stroke-width:1;"/><polygon fill="#181818" points="1406.74,88.3159,1396.8937,88.092,1402.126,90.2422,1399.9758,95.4745,1406.74,88.3159" style="stroke:#181818;stroke-width:1;"/><text fill="#000000" font-family="sans-serif" font-size="13" lengthAdjust="spacing" textLength="176.5474" x="1349" y="257.6328">4.1: Enter verification code</text></g><!--link app to user--><g id="link_app_user"><path d="M1505.21,87.6659 C1534.5,99.4059 1566,119.4959 1566,151.5659 C1566,151.5659 1566,151.5659 1566,354.5659 C1566,403.9359 1508.9764,432.5415 1478.6564,444.5815 " fill="none" id="app-to-user" style="stroke:#181818;stroke-width:1;"/><polygon fill="#181818" points="1473.08,446.7959,1482.9209,447.192,1477.727,444.9506,1479.9684,439.7567,1473.08,446.7959" style="stroke:#181818;stroke-width:1;"/><text fill="#000000" font-family="sans-serif" font-size="13" lengthAdjust="spacing" textLength="195.4253" x="1567" y="257.6328">5.1: Prompt for new password</text></g><!--reverse link app to user--><g id="link_app_user"><path d="M1511.3468,74.6706 C1607.1468,77.7806 1803,91.2859 1803,151.5659 C1803,151.5659 1803,151.5659 1803,354.5659 C1803,424.0259 1541.63,446.7759 1473.22,451.5359 " fill="none" id="app-backto-user-2" style="stroke:#181818;stroke-width:1;"/><polygon fill="#181818" points="1505.35,74.4759,1514.2155,78.7658,1510.3474,74.6381,1514.475,70.77,1505.35,74.4759" style="stroke:#181818;stroke-width:1;"/><text fill="#000000" font-family="sans-serif" font-size="13" lengthAdjust="spacing" textLength="276.2881" x="1804" y="257.6328">5.2: Enter new password and confirmation</text></g><!--link app to user--><g id="link_app_user"><path d="M1505.17,74.1759 C1659.01,76.7259 2121,89.5559 2121,151.5659 C2121,151.5659 2121,151.5659 2121,354.5659 C2121,422.2259 1580.485,447.53 1479.075,451.69 " fill="none" id="app-to-user-1" style="stroke:#181818;stroke-width:1;"/><polygon fill="#181818" points="1473.08,451.9359,1482.2364,455.5637,1478.0758,451.731,1481.9085,447.5704,1473.08,451.9359" style="stroke:#181818;stroke-width:1;"/><text fill="#000000" font-family="sans-serif" font-size="13" lengthAdjust="spacing" textLength="282.2803" x="2122" y="257.6328">7.1: Redirect to home page or display error</text></g><!--link app to recover--><g id="link_app_recover"><path d="M1434.82,54.3559 C1422.48,44.9659 1406.11,34.4659 1389.5,29.5659 C1366.48,22.7759 1197.24,26.0159 1173.5,29.5659 C1141.46,34.3559 1112.2896,42.9837 1085.3296,52.4737 " fill="none" id="app-to-recover" style="stroke:#181818;stroke-width:1;"/><polygon fill="#181818" points="1079.67,54.4659,1089.4875,55.2507,1084.3863,52.8058,1086.8313,47.7045,1079.67,54.4659" style="stroke:#181818;stroke-width:1;"/><text fill="#000000" font-family="sans-serif" font-size="13" lengthAdjust="spacing" textLength="122.1416" x="1220.5" y="19.6328">2.1: Forward email</text></g><!--link app to recover--><g id="link_app_recover"><path d="M1406.98,87.3559 C1397.92,89.5259 1388.49,91.4059 1379.5,92.5659 C1305.24,102.1159 1227.4063,98.3113 1160.8263,91.2213 " fill="none" id="app-to-recover-1" style="stroke:#181818;stroke-width:1;"/><polygon fill="#181818" points="1154.86,90.5859,1163.3858,95.5164,1159.8319,91.1154,1164.233,87.5614,1154.86,90.5859" style="stroke:#181818;stroke-width:1;"/><text fill="#000000" font-family="sans-serif" font-size="13" lengthAdjust="spacing" textLength="194.6255" x="1184.5" y="88.6328">4.2: Forward verification code</text></g><!--link recover to app--><g id="link_recover_app"><path d="M1150.93,54.5459 C1158.55,53.7659 1166.13,53.0859 1173.5,52.5659 C1221.38,49.1759 1342.01,45.5759 1389.5,52.5659 C1395.23,53.4059 1395.3145,53.1995 1401.1545,54.6395 " fill="none" id="recover-to-app" style="stroke:#181818;stroke-width:1;"/><polygon fill="#181818" points="1406.98,56.0759,1399.1993,50.0376,1402.1254,54.8789,1397.2841,57.805,1406.98,56.0759" style="stroke:#181818;stroke-width:1;"/><text fill="#000000" font-family="sans-serif" font-size="13" lengthAdjust="spacing" textLength="182.4697" x="1190.5" y="42.6328">4.7: Return validation result</text></g><!--link app to recover--><g id="link_app_recover"><path d="M1431.56,90.5859 C1417.19,100.0459 1398.22,110.6659 1379.5,115.5659 C1358.43,121.0859 1205.07,118.5859 1183.5,115.5659 C1149.32,110.7759 1117.7215,102.0249 1088.8015,92.5449 " fill="none" id="app-to-recover-2" style="stroke:#181818;stroke-width:1;"/><polygon fill="#181818" points="1083.1,90.6759,1090.4063,97.2803,1087.8512,92.2334,1092.8982,89.6784,1083.1,90.6759" style="stroke:#181818;stroke-width:1;"/><text fill="#000000" font-family="sans-serif" font-size="13" lengthAdjust="spacing" textLength="179.2388" x="1192" y="111.6328">6.1: Forward new password</text></g><!--link recover to app--><g id="link_recover_app"><path d="M1156.2,72.5659 C1239.86,72.5659 1339.98,72.5659 1400.92,72.5659 " fill="none" id="recover-to-app-1" style="stroke:#181818;stroke-width:1;"/><polygon fill="#181818" points="1406.92,72.5659,1397.92,68.5659,1401.92,72.5659,1397.92,76.5659,1406.92,72.5659" style="stroke:#181818;stroke-width:1;"/><text fill="#000000" font-family="sans-serif" font-size="13" lengthAdjust="spacing" textLength="214.354" x="1174.5" y="65.6328">6.6: Provide update confirmation</text></g><!--reverse link sdk to recover--><g id="link_sdk_recover"><path d="M665.4352,54.8191 C671.1152,53.2191 671.14,53.4759 676.75,52.5659 C724.13,44.8459 844.87,49.1659 892.75,52.5659 C900.11,53.0859 907.67,53.7659 915.29,54.5459 " fill="none" id="sdk-backto-recover" style="stroke:#181818;stroke-width:1;"/><polygon fill="#181818" points="659.66,56.4459,669.4074,57.8558,664.4727,55.0902,667.2383,50.1555,659.66,56.4459" style="stroke:#181818;stroke-width:1;"/><text fill="#000000" font-family="sans-serif" font-size="13" lengthAdjust="spacing" textLength="178.0645" x="695.75" y="42.6328">2.2: Initiate password reset</text></g><!--link sdk to recover--><g id="link_sdk_recover"><path d="M635.72,54.3859 C646.71,45.0059 661.42,34.5059 676.75,29.5659 C699.59,22.2059 869.02,26.0059 892.75,29.5659 C924.74,34.3559 953.8413,42.9811 980.7613,52.4711 " fill="none" id="sdk-to-recover" style="stroke:#181818;stroke-width:1;"/><polygon fill="#181818" points="986.42,54.4659,979.2619,47.7012,981.7044,52.8036,976.6021,55.2461,986.42,54.4659" style="stroke:#181818;stroke-width:1;"/><text fill="#000000" font-family="sans-serif" font-size="13" lengthAdjust="spacing" textLength="121.4561" x="724.25" y="19.6328">2.5: Notify recover</text></g><!--reverse link sdk to recover--><g id="link_sdk_recover"><path d="M634.4558,95.4662 C647.6658,111.4962 665.48,129.0559 690.25,138.5659 C709.85,146.0959 858.68,142.7959 879.25,138.5659 C923.78,129.4159 971.32,106.7859 1001.56,90.5759 " fill="none" id="sdk-backto-recover-1" style="stroke:#181818;stroke-width:1;"/><polygon fill="#181818" points="630.64,90.8359,633.2768,100.3253,633.8198,94.6945,639.4505,95.2376,630.64,90.8359" style="stroke:#181818;stroke-width:1;"/><text fill="#000000" font-family="sans-serif" font-size="13" lengthAdjust="spacing" textLength="118.0664" x="725.75" y="134.6328">4.3: Validate code</text></g><!--link sdk to recover--><g id="link_sdk_recover"><path d="M659.6,86.2459 C669.55,88.8659 680.19,91.2159 690.25,92.5659 C764.39,102.5059 842.2461,98.5527 908.4461,91.2627 " fill="none" id="sdk-to-recover-1" style="stroke:#181818;stroke-width:1;"/><polygon fill="#181818" points="914.41,90.6059,905.0262,87.6151,909.44,91.1532,905.9019,95.567,914.41,90.6059" style="stroke:#181818;stroke-width:1;"/><text fill="#000000" font-family="sans-serif" font-size="13" lengthAdjust="spacing" textLength="187.2114" x="691.25" y="88.6328">4.6: Provide validation result</text></g><!--reverse link sdk to recover--><g id="link_sdk_recover"><path d="M645.2296,93.9818 C658.9496,103.4418 672.18,110.6559 690.25,115.5659 C710.51,121.0759 858.44,118.4159 879.25,115.5659 C914.12,110.7859 952.24,100.1659 981.79,90.6759 " fill="none" id="sdk-backto-recover-2" style="stroke:#181818;stroke-width:1;"/><polygon fill="#181818" points="640.29,90.5759,645.4288,98.9778,644.4064,93.4142,649.97,92.3917,640.29,90.5759" style="stroke:#181818;stroke-width:1;"/><text fill="#000000" font-family="sans-serif" font-size="13" lengthAdjust="spacing" textLength="142.3462" x="713.75" y="111.6328">6.2: Update password</text></g><!--link sdk to recover--><g id="link_sdk_recover"><path d="M659.56,72.5659 C717.96,72.5659 819.32,72.5659 903.98,72.5659 " fill="none" id="sdk-to-recover-2" style="stroke:#181818;stroke-width:1;"/><polygon fill="#181818" points="909.98,72.5659,900.98,68.5659,904.98,72.5659,900.98,76.5659,909.98,72.5659" style="stroke:#181818;stroke-width:1;"/><text fill="#000000" font-family="sans-serif" font-size="13" lengthAdjust="spacing" textLength="214.354" x="677.75" y="65.6328">6.5: Provide update confirmation</text></g><!--link sdk to service--><g id="link_sdk_service"><path d="M574.06,75.0459 C443.17,80.1259 58,99.5059 58,151.5659 C58,151.5659 58,151.5659 58,354.5659 C58,399.2659 334.8523,429.5696 496.7123,443.5496 " fill="none" id="sdk-to-service" style="stroke:#181818;stroke-width:1;"/><polygon fill="#181818" points="502.69,444.0659,494.0676,439.3063,497.7085,443.6357,493.3792,447.2766,502.69,444.0659" style="stroke:#181818;stroke-width:1;"/><text fill="#000000" font-family="sans-serif" font-size="13" lengthAdjust="spacing" textLength="178.0645" x="59" y="257.6328">2.3: Initiate password reset</text></g><!--link sdk to service--><g id="link_sdk_service"><path d="M574.41,74.4959 C483.36,77.6359 278,91.3959 278,151.5659 C278,151.5659 278,151.5659 278,354.5659 C278,402.3659 399.2525,427.6741 496.8925,440.6741 " fill="none" id="sdk-to-service-1" style="stroke:#181818;stroke-width:1;"/><polygon fill="#181818" points="502.84,441.4659,494.4466,436.3131,497.8837,440.806,493.3908,444.2431,502.84,441.4659" style="stroke:#181818;stroke-width:1;"/><text fill="#000000" font-family="sans-serif" font-size="13" lengthAdjust="spacing" textLength="181.6445" x="279" y="257.6328">4.4: Check verification code</text></g><!--reverse link sdk to service--><g id="link_sdk_service"><path d="M568.7504,85.5199 C535.6504,96.2099 501,114.9159 501,151.5659 C501,151.5659 501,151.5659 501,354.5659 C501,392.9359 538.69,419.7659 570.34,435.5359 " fill="none" id="sdk-backto-service" style="stroke:#181818;stroke-width:1;"/><polygon fill="#181818" points="574.46,83.6759,564.6663,82.6355,569.702,85.2126,567.1249,90.2483,574.46,83.6759" style="stroke:#181818;stroke-width:1;"/><text fill="#000000" font-family="sans-serif" font-size="13" lengthAdjust="spacing" textLength="182.4697" x="502" y="257.6328">4.5: Return validation result</text></g><!--link sdk to service--><g id="link_sdk_service"><path d="M659.68,85.6859 C689.87,97.1759 725,117.7959 725,151.5659 C725,151.5659 725,151.5659 725,354.5659 C725,392.9359 692.6803,417.0901 661.0303,432.8601 " fill="none" id="sdk-to-service-2" style="stroke:#181818;stroke-width:1;"/><polygon fill="#181818" points="655.66,435.5359,665.4993,435.1024,660.1352,433.3061,661.9316,427.942,655.66,435.5359" style="stroke:#181818;stroke-width:1;"/><text fill="#000000" font-family="sans-serif" font-size="13" lengthAdjust="spacing" textLength="142.3462" x="726" y="257.6328">6.3: Update password</text></g><!--link service to sdk--><g id="link_service_sdk"><path d="M723.22,436.9559 C807.38,421.8359 909,395.1659 909,354.5659 C909,151.5659 909,151.5659 909,151.5659 C909,100.6059 746.8638,82.5063 665.7538,76.5363 " fill="none" id="service-to-sdk" style="stroke:#181818;stroke-width:1;"/><polygon fill="#181818" points="659.77,76.0959,668.4521,80.7458,664.7565,76.4629,669.0393,72.7674,659.77,76.0959" style="stroke:#181818;stroke-width:1;"/><text fill="#000000" font-family="sans-serif" font-size="13" lengthAdjust="spacing" textLength="196.6694" x="910" y="257.6328">6.4: Confirm password update</text></g><!--link service to user--><g id="link_service_user"><path d="M723.34,453.5659 C927.76,453.5659 1346.64,453.5659 1434.78,453.5659 " fill="none" id="service-to-user" style="stroke:#181818;stroke-width:1;"/><polygon fill="#181818" points="1440.78,453.5659,1431.78,449.5659,1435.78,453.5659,1431.78,457.5659,1440.78,453.5659" style="stroke:#181818;stroke-width:1;"/><text fill="#000000" font-family="sans-serif" font-size="13" lengthAdjust="spacing" textLength="237.7832" x="963.5" y="446.6328">2.4: Send verification code via email</text></g><!--SRC=[dLN1Yjim4BtdAuPSUgaNDdMyaCF2ahQmb9Obo-vTjUIDY2svafmGIl-zCx8KEucIblKb9ffvR-QzXrmPrWYOlYndaC5Ab7eh33mnQtVQy2dydW0-h7JQO94LPWhCGeSl_i28qZ7rLYF2T_rJukz3s_eIrhPmMXBW8_gh5BkbLixekWx0fgyuRLpY-URvypTVO_acUGuFdLiBvMJ9dDGAdeNPobBqFVtxn3T-05e4f99ECYSij66WIB-7rkXIMElBQLd8kkpUxxI0svlR1NnH3lyL3PCrCCuD5GVmGGYaLPoM-jK9wy1fkAf0BpMs8LMO1EbcHFTLcnt30JrX9BeATiuTHOpYUVoiHZ9Kr1FD5l0OH1bhOeMBb143IjqqdIAfKR-TT6kuve7l9fQCP_JSHqCyxQV_exs07HR5PMGLZqhD0sUeoGnoUYE9C5zWi-BdFR2LB6XycDYSk35Vm0_jPBK_X7KSAa6vi1UGXsGaWvKFmJhVvZnSMrPBxlK_4BmZNZcv7kEL5Z6HbPnCUmq3ZEJkBHxRcvFQoxKeD_-og1kXeyWhuJgZufRKWf7eQdV9cVocMC2JqLj9OYIx3eiCYjzT8GgIFrRzsSVUC8mbtcwWn6u8Qy9SBpGVKZSdSt6yfdLGuMKwxa-cOKx6z6auuc8Ot5AhIfh6Jvj8HjVoutljdTaenbVFsS29M1GqyujdFwvD1AEW22LhOo06L8fGl_AmKx_afJGK5A6OXhxqMBLa7efnXb9TyJv26sjnm3dr-evqMmakwHD5L-zQDxJacm1qdalRrcmFmXXj9d_-0W00]--></g></svg>