<svg xmlns="http://www.w3.org/2000/svg" xmlns:xlink="http://www.w3.org/1999/xlink" contentStyleType="text/css" height="176px" preserveAspectRatio="none" style="width:1514px;height:176px;background:#FFFFFF;" version="1.1" viewBox="0 0 1514 176" width="1514px" zoomAndPan="magnify"><defs/><g><!--cluster UC21 - View AI Chat Lists--><g id="cluster_UC21 - View AI Chat Lists"><rect fill="none" height="127" rx="2.5" ry="2.5" style="stroke:#181818;stroke-width:1;" width="1501" x="7" y="22.5659"/><path d="M215.8711,22.5659 L215.8711,31.8628 L205.8711,41.8628 L7,41.8628 " fill="none" style="stroke:#181818;stroke-width:1;"/><text fill="#000000" font-family="sans-serif" font-size="14" font-weight="bold" lengthAdjust="spacing" textLength="198.8711" x="10" y="36.561">UC21 - View AI Chat Lists</text></g><!--entity user--><g id="elem_user"><ellipse cx="38.9551" cy="66.0659" fill="#F1F1F1" rx="8" ry="8" style="stroke:#181818;stroke-width:0.5;"/><path d="M38.9551,74.0659 L38.9551,101.0659 M25.9551,82.0659 L51.9551,82.0659 M38.9551,101.0659 L25.9551,116.0659 M38.9551,101.0659 L51.9551,116.0659 " fill="none" style="stroke:#181818;stroke-width:0.5;"/><text fill="#000000" font-family="sans-serif" font-size="14" lengthAdjust="spacing" textLength="31.9102" x="23" y="130.561">User</text></g><!--entity app--><g id="elem_app"><rect fill="#F1F1F1" height="36.2969" rx="2.5" ry="2.5" style="stroke:#181818;stroke-width:0.5;" width="93.2744" x="268.5" y="77.5659"/><text fill="#000000" font-family="sans-serif" font-size="14" lengthAdjust="spacing" textLength="73.2744" x="278.5" y="100.561">MobileApp</text></g><!--entity chatListController--><g id="elem_chatListController"><rect fill="#F1F1F1" height="36.2969" rx="2.5" ry="2.5" style="stroke:#181818;stroke-width:0.5;" width="160.0684" x="590" y="77.5659"/><text fill="#000000" font-family="sans-serif" font-size="14" lengthAdjust="spacing" textLength="140.0684" x="600" y="100.561">AIChatListController</text></g><!--entity chatSessionHandler--><g id="elem_chatSessionHandler"><rect fill="#F1F1F1" height="36.2969" rx="2.5" ry="2.5" style="stroke:#181818;stroke-width:0.5;" width="174.9639" x="967.5" y="77.5659"/><text fill="#000000" font-family="sans-serif" font-size="14" lengthAdjust="spacing" textLength="154.9639" x="977.5" y="100.561">AIChatSessionHandler</text></g><!--entity backend--><g id="elem_backend"><rect fill="#F1F1F1" height="36.2969" rx="2.5" ry="2.5" style="stroke:#181818;stroke-width:0.5;" width="132.1025" x="1360" y="77.5659"/><text fill="#000000" font-family="sans-serif" font-size="14" lengthAdjust="spacing" textLength="112.1025" x="1370" y="100.561">BackendService</text></g><!--link user to app--><g id="link_user_app"><path d="M55.22,106.7959 C61.24,110.3259 68.29,113.7759 75.25,115.5659 C112.48,125.1559 210.21,121.1459 248.25,115.5659 C254.83,114.6059 255.8601,114.6241 262.5301,112.9041 " fill="none" id="user-to-app" style="stroke:#181818;stroke-width:1;"/><polygon fill="#181818" points="268.34,111.4059,258.6263,109.7799,263.4984,112.6544,260.6239,117.5265,268.34,111.4059" style="stroke:#181818;stroke-width:1;"/><text fill="#000000" font-family="sans-serif" font-size="13" lengthAdjust="spacing" textLength="171.6152" x="76.25" y="111.6328">1.1: Select AI Chat section</text></g><!--link user to app--><g id="link_user_app"><path d="M55.28,122.1359 C60.74,128.7359 67.46,134.9459 75.25,138.5659 C92.68,146.6659 229.81,143.9959 248.25,138.5659 C264.91,133.6659 276.5581,126.79 288.9481,117.4 " fill="none" id="user-to-app-1" style="stroke:#181818;stroke-width:1;"/><polygon fill="#181818" points="293.73,113.7759,284.1412,116.0241,289.7451,116.7959,288.9732,122.3999,293.73,113.7759" style="stroke:#181818;stroke-width:1;"/><text fill="#000000" font-family="sans-serif" font-size="13" lengthAdjust="spacing" textLength="136.335" x="93.75" y="134.6328">4.1: Click delete icon</text></g><!--link user to app--><g id="link_user_app"><path d="M55.1,83.4959 C60.3,80.2759 66.28,77.2259 72.25,75.5659 C91.41,70.2459 231.59,72.5559 251.25,75.5659 C256.87,76.4259 256.8619,76.1905 262.5719,77.6705 " fill="none" id="user-to-app-2" style="stroke:#181818;stroke-width:1;"/><polygon fill="#181818" points="268.38,79.1759,260.6715,73.0457,263.5399,77.9214,258.6643,80.7898,268.38,79.1759" style="stroke:#181818;stroke-width:1;"/><text fill="#000000" font-family="sans-serif" font-size="13" lengthAdjust="spacing" textLength="140.3784" x="91.75" y="65.6328">5.1: Select chat entry</text></g><!--reverse link user to app--><g id="link_user_app"><path d="M61.03,95.5659 C101.93,95.5659 205.37,95.5659 268.45,95.5659 " fill="none" id="user-backto-app" style="stroke:#181818;stroke-width:1;"/><polygon fill="#181818" points="55.03,95.5659,64.03,99.5659,60.03,95.5659,64.03,91.5659,55.03,95.5659" style="stroke:#181818;stroke-width:1;"/><text fill="#000000" font-family="sans-serif" font-size="13" lengthAdjust="spacing" textLength="177.2837" x="73.25" y="88.6328">6.4: Notify and retry option</text></g><!--link app to chatListController--><g id="link_app_chatListController"><path d="M361.64,111.8659 C367.51,113.3859 373.48,114.6859 379.25,115.5659 C421.65,122.0159 529.58,119.8859 572.25,115.5659 C578.02,114.9859 578.0273,115.1018 583.9873,114.2018 " fill="none" id="app-to-chatListController" style="stroke:#181818;stroke-width:1;"/><polygon fill="#181818" points="589.92,113.3059,580.4236,110.6946,584.9761,114.0525,581.6181,118.6049,589.92,113.3059" style="stroke:#181818;stroke-width:1;"/><text fill="#000000" font-family="sans-serif" font-size="13" lengthAdjust="spacing" textLength="191.0454" x="380.25" y="111.6328">1.2: Request AI chat sessions</text></g><!--reverse link app to chatListController--><g id="link_app_chatListController"><path d="M329.8984,118.686 C341.1284,134.676 356.41,151.9259 379.25,161.5659 C399.01,169.9059 551.74,167.8459 572.25,161.5659 C602.8,152.2159 632.41,129.7559 650.89,113.6359 " fill="none" id="app-backto-chatListController" style="stroke:#181818;stroke-width:1;"/><polygon fill="#181818" points="326.45,113.7759,328.3492,123.4399,329.3237,117.8676,334.896,118.8421,326.45,113.7759" style="stroke:#181818;stroke-width:1;"/><text fill="#000000" font-family="sans-serif" font-size="13" lengthAdjust="spacing" textLength="132.9136" x="409.75" y="157.6328">3.1: Display chat list</text></g><!--link app to chatListController--><g id="link_app_chatListController"><path d="M335.18,77.3659 C346.97,67.9759 362.66,57.4859 378.75,52.5659 C399.36,46.2659 551.66,48.1159 572.75,52.5659 C595.69,57.4159 614.4603,65.2996 632.9403,74.7696 " fill="none" id="app-to-chatListController-1" style="stroke:#181818;stroke-width:1;"/><polygon fill="#181818" points="638.28,77.5059,632.0946,69.8416,633.8302,75.2257,628.4462,76.9613,638.28,77.5059" style="stroke:#181818;stroke-width:1;"/><text fill="#000000" font-family="sans-serif" font-size="13" lengthAdjust="spacing" textLength="160.8496" x="395.75" y="42.6328">4.2: Send delete request</text></g><!--reverse link app to chatListController--><g id="link_app_chatListController"><path d="M329.7471,72.431 C340.8671,56.451 356.02,39.2159 378.75,29.5659 C398.59,21.1459 552.15,23.2359 572.75,29.5659 C603.18,38.9159 632.63,61.3759 651,77.5059 " fill="none" id="app-backto-chatListController-1" style="stroke:#181818;stroke-width:1;"/><polygon fill="#181818" points="326.32,77.3559,334.7439,72.2533,329.1759,73.2518,328.1774,67.6838,326.32,77.3559" style="stroke:#181818;stroke-width:1;"/><text fill="#000000" font-family="sans-serif" font-size="13" lengthAdjust="spacing" textLength="132.0757" x="409.75" y="19.6328">4.7: Update chat list</text></g><!--link app to chatListController--><g id="link_app_chatListController"><path d="M335.36,113.7659 C347.25,123.1559 363.07,133.6559 379.25,138.5659 C399.77,144.7959 551.26,142.9759 572.25,138.5659 C595.29,133.7259 614.1861,125.834 632.7561,116.354 " fill="none" id="app-to-chatListController-2" style="stroke:#181818;stroke-width:1;"/><polygon fill="#181818" points="638.1,113.6259,628.2654,114.1554,633.6467,115.8993,631.9028,121.2807,638.1,113.6259" style="stroke:#181818;stroke-width:1;"/><text fill="#000000" font-family="sans-serif" font-size="13" lengthAdjust="spacing" textLength="168.5747" x="391.75" y="134.6328">5.2: Forward chat request</text></g><!--reverse link app to chatListController--><g id="link_app_chatListController"><path d="M367.78,95.5659 C425.76,95.5659 519.52,95.5659 589.82,95.5659 " fill="none" id="app-backto-chatListController-2" style="stroke:#181818;stroke-width:1;"/><polygon fill="#181818" points="361.78,95.5659,370.78,99.5659,366.78,95.5659,370.78,91.5659,361.78,95.5659" style="stroke:#181818;stroke-width:1;"/><text fill="#000000" font-family="sans-serif" font-size="13" lengthAdjust="spacing" textLength="192.2388" x="379.75" y="88.6328">5.7: Navigate to AI Chat Page</text></g><!--reverse link app to chatListController--><g id="link_app_chatListController"><path d="M367.4281,77.6705 C373.1381,76.1905 373.13,76.4259 378.75,75.5659 C421.36,69.0359 529.86,71.2059 572.75,75.5659 C578.32,76.1359 584.05,76.8759 589.8,77.7459 " fill="none" id="app-backto-chatListController-3" style="stroke:#181818;stroke-width:1;"/><polygon fill="#181818" points="361.62,79.1759,371.3357,80.7898,366.4601,77.9214,369.3285,73.0457,361.62,79.1759" style="stroke:#181818;stroke-width:1;"/><text fill="#000000" font-family="sans-serif" font-size="13" lengthAdjust="spacing" textLength="175.7793" x="388.25" y="65.6328">6.3: Display error message</text></g><!--link chatListController to chatSessionHandler--><g id="link_chatListController_chatSessionHandler"><path d="M750.2,77.7459 C755.95,76.8759 761.68,76.1359 767.25,75.5659 C848.17,67.3359 869.28,67.9059 950.25,75.5659 C955.87,76.0959 955.6963,75.9661 961.4963,76.7661 " fill="none" id="chatListController-to-chatSessionHandler" style="stroke:#181818;stroke-width:1;"/><polygon fill="#181818" points="967.44,77.5859,959.071,72.3937,962.4869,76.9027,957.9779,80.3187,967.44,77.5859" style="stroke:#181818;stroke-width:1;"/><text fill="#000000" font-family="sans-serif" font-size="13" lengthAdjust="spacing" textLength="149.957" x="784.25" y="65.6328">2.1: Retrieve chat data</text></g><!--reverse link chatListController to chatSessionHandler--><g id="link_chatListController_chatSessionHandler"><path d="M709.9247,116.1996 C729.9847,125.6796 750.65,133.7359 775.25,138.5659 C811.67,145.7159 905.75,145.2859 942.25,138.5659 C968.42,133.7459 996.37,123.1259 1017.9,113.6459 " fill="none" id="chatListController-backto-chatSessionHandler" style="stroke:#181818;stroke-width:1;"/><polygon fill="#181818" points="704.5,113.6359,710.928,121.0979,709.0206,115.7723,714.3462,113.8649,704.5,113.6359" style="stroke:#181818;stroke-width:1;"/><text fill="#000000" font-family="sans-serif" font-size="13" lengthAdjust="spacing" textLength="143.876" x="787.25" y="134.6328">2.4: Provide chat data</text></g><!--link chatListController to chatSessionHandler--><g id="link_chatListController_chatSessionHandler"><path d="M750.24,95.5659 C813.71,95.5659 896.2,95.5659 961.49,95.5659 " fill="none" id="chatListController-to-chatSessionHandler-1" style="stroke:#181818;stroke-width:1;"/><polygon fill="#181818" points="967.49,95.5659,958.49,91.5659,962.49,95.5659,958.49,99.5659,967.49,95.5659" style="stroke:#181818;stroke-width:1;"/><text fill="#000000" font-family="sans-serif" font-size="13" lengthAdjust="spacing" textLength="181.0796" x="768.25" y="88.6328">4.3: Forward delete request</text></g><!--reverse link chatListController to chatSessionHandler--><g id="link_chatListController_chatSessionHandler"><path d="M695.5057,117.416 C715.5757,133.556 742.91,152.2659 775.25,161.5659 C793.08,166.6959 924.34,166.4259 942.25,161.5659 C976.4,152.3059 1010.8,129.8259 1032.46,113.6759 " fill="none" id="chatListController-backto-chatSessionHandler-1" style="stroke:#181818;stroke-width:1;"/><polygon fill="#181818" points="690.83,113.6559,695.3368,122.4132,694.7264,116.7893,700.3502,116.179,690.83,113.6559" style="stroke:#181818;stroke-width:1;"/><text fill="#000000" font-family="sans-serif" font-size="13" lengthAdjust="spacing" textLength="137.5474" x="790.25" y="157.6328">4.6: Confirm deletion</text></g><!--link chatListController to chatSessionHandler--><g id="link_chatListController_chatSessionHandler"><path d="M750.23,112.4159 C758.65,113.7059 767.1,114.7959 775.25,115.5659 C849.15,122.5259 868.31,122.0759 942.25,115.5659 C950.47,114.8459 953.0479,114.6578 961.5479,113.4678 " fill="none" id="chatListController-to-chatSessionHandler-2" style="stroke:#181818;stroke-width:1;"/><polygon fill="#181818" points="967.49,112.6359,958.0223,109.9224,962.5383,113.3292,959.1315,117.8451,967.49,112.6359" style="stroke:#181818;stroke-width:1;"/><text fill="#000000" font-family="sans-serif" font-size="13" lengthAdjust="spacing" textLength="165.3882" x="776.25" y="111.6328">5.3: Retrieve chat history</text></g><!--reverse link chatListController to chatSessionHandler--><g id="link_chatListController_chatSessionHandler"><path d="M707.0597,74.7696 C725.5397,65.2996 744.31,57.4159 767.25,52.5659 C787.14,48.3659 930.3,48.6359 950.25,52.5659 C974.74,57.3959 1000.72,68.0159 1020.67,77.4959 " fill="none" id="chatListController-backto-chatSessionHandler-2" style="stroke:#181818;stroke-width:1;"/><polygon fill="#181818" points="701.72,77.5059,711.5538,76.9613,706.1698,75.2257,707.9054,69.8416,701.72,77.5059" style="stroke:#181818;stroke-width:1;"/><text fill="#000000" font-family="sans-serif" font-size="13" lengthAdjust="spacing" textLength="143.876" x="787.25" y="42.6328">5.6: Provide chat data</text></g><!--reverse link chatListController to chatSessionHandler--><g id="link_chatListController_chatSessionHandler"><path d="M693.5086,73.5471 C711.8786,57.4171 736.82,38.9159 767.25,29.5659 C786.69,23.5959 930.71,23.9259 950.25,29.5659 C982.47,38.8659 1014.32,61.3459 1034.28,77.4759 " fill="none" id="chatListController-backto-chatSessionHandler-3" style="stroke:#181818;stroke-width:1;"/><polygon fill="#181818" points="689,77.5059,698.4021,74.5734,692.7572,74.2069,693.1237,68.5619,689,77.5059" style="stroke:#181818;stroke-width:1;"/><text fill="#000000" font-family="sans-serif" font-size="13" lengthAdjust="spacing" textLength="118.2759" x="799.75" y="19.6328">6.2: Forward error</text></g><!--link chatSessionHandler to backend--><g id="link_chatSessionHandler_backend"><path d="M1142.56,77.5859 C1148.36,76.7859 1154.13,76.0959 1159.75,75.5659 C1200.24,71.7359 1302.37,70.7859 1342.75,75.5659 C1348.36,76.2359 1348.2406,76.0419 1354.0106,77.1119 " fill="none" id="chatSessionHandler-to-backend" style="stroke:#181818;stroke-width:1;"/><polygon fill="#181818" points="1359.91,78.2059,1351.7902,72.632,1354.9938,77.2943,1350.3315,80.4979,1359.91,78.2059" style="stroke:#181818;stroke-width:1;"/><text fill="#000000" font-family="sans-serif" font-size="13" lengthAdjust="spacing" textLength="175.5698" x="1163.75" y="65.6328">2.2: Retrieve chat sessions</text></g><!--reverse link chatSessionHandler to backend--><g id="link_chatSessionHandler_backend"><path d="M1148.92,95.5659 C1215.45,95.5659 1299.4,95.5659 1359.89,95.5659 " fill="none" id="chatSessionHandler-backto-backend" style="stroke:#181818;stroke-width:1;"/><polygon fill="#181818" points="1142.92,95.5659,1151.92,99.5659,1147.92,95.5659,1151.92,91.5659,1142.92,95.5659" style="stroke:#181818;stroke-width:1;"/><text fill="#000000" font-family="sans-serif" font-size="13" lengthAdjust="spacing" textLength="181.2002" x="1160.75" y="88.6328">2.3: Return chat session list</text></g><!--link chatSessionHandler to backend--><g id="link_chatSessionHandler_backend"><path d="M1142.78,113.3459 C1149.18,114.2359 1155.55,114.9959 1161.75,115.5659 C1201.36,119.2459 1301.24,120.1359 1340.75,115.5659 C1346.94,114.8459 1347.4387,114.9298 1353.8087,113.7598 " fill="none" id="chatSessionHandler-to-backend-1" style="stroke:#181818;stroke-width:1;"/><polygon fill="#181818" points="1359.71,112.6759,1350.1355,110.3676,1354.7923,113.5792,1351.5807,118.236,1359.71,112.6759" style="stroke:#181818;stroke-width:1;"/><text fill="#000000" font-family="sans-serif" font-size="13" lengthAdjust="spacing" textLength="177.9375" x="1162.75" y="111.6328">4.4: Process delete request</text></g><!--reverse link chatSessionHandler to backend--><g id="link_chatSessionHandler_backend"><path d="M1080.8754,117.3787 C1101.2754,133.5187 1129.05,152.2759 1161.75,161.5659 C1180.88,167.0059 1321.93,167.9959 1340.75,161.5659 C1368.38,152.1259 1393.99,129.6759 1409.79,113.5859 " fill="none" id="chatSessionHandler-backto-backend-1" style="stroke:#181818;stroke-width:1;"/><polygon fill="#181818" points="1076.17,113.6559,1080.7462,122.377,1080.0912,116.7583,1085.71,116.1032,1076.17,113.6559" style="stroke:#181818;stroke-width:1;"/><text fill="#000000" font-family="sans-serif" font-size="13" lengthAdjust="spacing" textLength="137.5474" x="1182.75" y="157.6328">4.5: Confirm deletion</text></g><!--link chatSessionHandler to backend--><g id="link_chatSessionHandler_backend"><path d="M1090.02,113.6359 C1110.37,123.1159 1136.84,133.7359 1161.75,138.5659 C1181.28,142.3559 1321.4,143.1659 1340.75,138.5659 C1361.23,133.6959 1377.1975,126.1165 1393.3075,116.6465 " fill="none" id="chatSessionHandler-to-backend-2" style="stroke:#181818;stroke-width:1;"/><polygon fill="#181818" points="1398.48,113.6059,1388.6942,114.7184,1394.1696,116.1397,1392.7483,121.6151,1398.48,113.6059" style="stroke:#181818;stroke-width:1;"/><text fill="#000000" font-family="sans-serif" font-size="13" lengthAdjust="spacing" textLength="157.9551" x="1172.75" y="134.6328">5.4: Get full chat history</text></g><!--reverse link chatSessionHandler to backend--><g id="link_chatSessionHandler_backend"><path d="M1094.7493,74.9207 C1114.6993,65.4407 1135.26,57.3959 1159.75,52.5659 C1179.7,48.6359 1322.99,47.7659 1342.75,52.5659 C1362.83,57.4459 1383.47,68.0659 1399.18,77.5259 " fill="none" id="chatSessionHandler-backto-backend-2" style="stroke:#181818;stroke-width:1;"/><polygon fill="#181818" points="1089.33,77.4959,1099.1757,77.246,1093.8461,75.3499,1095.7421,70.0203,1089.33,77.4959" style="stroke:#181818;stroke-width:1;"/><text fill="#000000" font-family="sans-serif" font-size="13" lengthAdjust="spacing" textLength="154.5654" x="1174.25" y="42.6328">5.5: Return chat history</text></g><!--reverse link chatSessionHandler to backend--><g id="link_chatSessionHandler_backend"><path d="M1080.3867,73.7047 C1100.3467,57.5747 1127.53,38.8659 1159.75,29.5659 C1179.29,23.9259 1323.55,22.8759 1342.75,29.5659 C1369.92,39.0259 1394.89,61.4659 1410.25,77.5559 " fill="none" id="chatSessionHandler-backto-backend-3" style="stroke:#181818;stroke-width:1;"/><polygon fill="#181818" points="1075.72,77.4759,1085.2342,74.9302,1079.6089,74.3332,1080.2059,68.708,1075.72,77.4759" style="stroke:#181818;stroke-width:1;"/><text fill="#000000" font-family="sans-serif" font-size="13" lengthAdjust="spacing" textLength="124.8521" x="1189.25" y="19.6328">6.1: Error response</text></g><!--SRC=[dPLRRzf048NVyoj6lFG998XD9HugKT9Bf3QAWfBtZJsGLHQlkxiGeQh_lJFZYup1mIHFaNtEcSktQrPERH06Zul968RmfF4DvhUmU541VcaV_03-NW7zgIHOHpgFRW3AmvR-aHSEaw2ojQ6Gt_PP6vpdkIXKdhS5yriEvjo5pOApnfHfoT7ZqzObUgzjzbDbQTDw-BXj_QgILypI9RgTJb1CpyMZAv5-WdcIK48z-9Ay52SlUKuOkk4NdWTcC1wDPoGm9Adrlg5dbSYFHnBtP0OF-6UBNkn9OPVkVTND0mQdSOS78EJTYSowrk4EgDQ4Ewspf5AgWgg3MWO9AlSYxadRNVV92PLoQBhhNql2rcK7VZ3DSTfTcAxLJKRH3EwTtUdqr3JjjPYQs3NluKRxtAXzOPG6ocNV4Cg05NVfvIJtY5CMHYUla1OMdVH27l4YbxogqkSA_9S3ZNYXtwrxKwupx7seKRb3EUqd4iv3ZKOnhS5cA-qsHKAri8jWHgFfEp7TBAFHvnayvaGUZr6oHMVR7Z3ZnYMM6AHY-numOuPP8H3dXsd6vVLeNB0NyjgoZ_CmOuRv0mEijiOS1vnd6JFBvWKzLzzqhsNwiRiPCyyxjTDh9Xfi_ScxLskik7vpZdvwf0kThNiEDsN4XTEXp-cpXPVFDMtYHWxhCTEKmLRV6p71XWhoGFK1OxKSIfOJnZiRz6eFr11rIqSHR2utujz_]--></g></svg>