<svg xmlns="http://www.w3.org/2000/svg" xmlns:xlink="http://www.w3.org/1999/xlink" contentStyleType="text/css" height="350px" preserveAspectRatio="none" style="width:1148px;height:312px;background:#FFFFFF;" version="1.1" viewBox="0 0 1148 350" width="1148px" zoomAndPan="magnify"><defs/><g><!--cluster UC22 - Manage AI Chats--><g id="cluster_UC22 - Manage AI Chats"><rect fill="none" height="300" rx="2.5" ry="2.5" style="stroke:#181818;stroke-width:1;" width="1135" x="7" y="7"/><path d="M206.499,7 L206.499,16.2969 L196.499,26.2969 L7,26.2969 " fill="none" style="stroke:#181818;stroke-width:1;"/><text fill="#000000" font-family="sans-serif" font-size="14" font-weight="bold" lengthAdjust="spacing" textLength="189.499" x="10" y="20.9951">UC22 - Manage AI Chats</text></g><!--entity user--><g id="elem_user"><ellipse cx="38.9551" cy="178.5" fill="#F1F1F1" rx="8" ry="8" style="stroke:#181818;stroke-width:0.5;"/><path d="M38.9551,186.5 L38.9551,213.5 M25.9551,194.5 L51.9551,194.5 M38.9551,213.5 L25.9551,228.5 M38.9551,213.5 L51.9551,228.5 " fill="none" style="stroke:#181818;stroke-width:0.5;"/><text fill="#000000" font-family="sans-serif" font-size="14" lengthAdjust="spacing" textLength="31.9102" x="23" y="242.9951">User</text></g><!--entity app--><g id="elem_app"><rect fill="#F1F1F1" height="36.2969" rx="2.5" ry="2.5" style="stroke:#181818;stroke-width:0.5;" width="93.2744" x="268.5" y="190"/><text fill="#000000" font-family="sans-serif" font-size="14" lengthAdjust="spacing" textLength="73.2744" x="278.5" y="212.9951">MobileApp</text></g><!--entity chatListController--><g id="elem_chatListController"><rect fill="#F1F1F1" height="36.2969" rx="2.5" ry="2.5" style="stroke:#181818;stroke-width:0.5;" width="160.0684" x="605" y="190"/><text fill="#000000" font-family="sans-serif" font-size="14" lengthAdjust="spacing" textLength="140.0684" x="615" y="212.9951">AIChatListController</text></g><!--entity confirmationDialog--><g id="elem_confirmationDialog"><rect fill="#F1F1F1" height="36.2969" rx="2.5" ry="2.5" style="stroke:#181818;stroke-width:0.5;" width="155.4131" x="607.5" y="42"/><text fill="#000000" font-family="sans-serif" font-size="14" lengthAdjust="spacing" textLength="135.4131" x="617.5" y="64.9951">ConfirmationDialog</text></g><!--entity backend--><g id="elem_backend"><rect fill="#F1F1F1" height="36.2969" rx="2.5" ry="2.5" style="stroke:#181818;stroke-width:0.5;" width="132.1025" x="994" y="190"/><text fill="#000000" font-family="sans-serif" font-size="14" lengthAdjust="spacing" textLength="112.1025" x="1004" y="212.9951">BackendService</text></g><!--link user to app--><g id="link_user_app"><path d="M55.1,195.94 C60.3,192.71 66.28,189.66 72.25,188 C91.41,182.68 231.59,184.99 251.25,188 C256.87,188.86 256.8619,188.6246 262.5719,190.1046 " fill="none" id="user-to-app" style="stroke:#181818;stroke-width:1;"/><polygon fill="#181818" points="268.38,191.61,260.6715,185.4798,263.5399,190.3555,258.6643,193.2239,268.38,191.61" style="stroke:#181818;stroke-width:1;"/><text fill="#000000" font-family="sans-serif" font-size="13" lengthAdjust="spacing" textLength="176.2427" x="73.75" y="178.0669">1.1: Access AI Chat section</text></g><!--link user to app--><g id="link_user_app"><path d="M55.29,179.25 C59.97,173.5 65.64,168.25 72.25,165 C90.1,156.24 232.23,159.19 251.25,165 C267.34,169.92 278.3366,176.672 290.1266,186.062 " fill="none" id="user-to-app-1" style="stroke:#181818;stroke-width:1;"/><polygon fill="#181818" points="294.82,189.8,290.2719,181.0641,290.9089,186.685,285.288,187.322,294.82,189.8" style="stroke:#181818;stroke-width:1;"/><text fill="#000000" font-family="sans-serif" font-size="13" lengthAdjust="spacing" textLength="131.2759" x="96.25" y="155.0669">2.1: Tap Delete icon</text></g><!--link user to app--><g id="link_user_app"><path d="M49.76,246.24 C54.77,257.1 61.98,267.68 72.25,274 C80.72,279.22 242.1,277.89 251.25,274 C273.98,264.35 289.1329,247.1149 300.2529,231.1349 " fill="none" id="user-to-app-2" style="stroke:#181818;stroke-width:1;"/><polygon fill="#181818" points="303.68,226.21,295.2561,231.3127,300.8241,230.3141,301.8226,235.8821,303.68,226.21" style="stroke:#181818;stroke-width:1;"/><text fill="#000000" font-family="sans-serif" font-size="13" lengthAdjust="spacing" textLength="124.8901" x="99.75" y="270.0669">3.1: Select Confirm</text></g><!--reverse link user to app--><g id="link_user_app"><path d="M59.0775,241.4035 C63.7575,247.1535 65.64,247.76 72.25,251 C90.1,259.77 232.23,256.82 251.25,251 C267.34,246.08 283.03,235.59 294.82,226.2 " fill="none" id="user-backto-app" style="stroke:#181818;stroke-width:1;"/><polygon fill="#181818" points="55.29,236.75,57.869,246.2552,58.4463,240.6279,64.0736,241.2052,55.29,236.75" style="stroke:#181818;stroke-width:1;"/><text fill="#000000" font-family="sans-serif" font-size="13" lengthAdjust="spacing" textLength="158.52" x="82.75" y="247.0669">3.6: Display updated list</text></g><!--link user to app--><g id="link_user_app"><path d="M49.76,169.76 C54.77,158.91 61.98,148.33 72.25,142 C80.72,136.79 242.1,138.12 251.25,142 C273.98,151.65 289.1329,168.8851 300.2529,184.8651 " fill="none" id="user-to-app-3" style="stroke:#181818;stroke-width:1;"/><polygon fill="#181818" points="303.68,189.79,301.8226,180.1179,300.8241,185.6859,295.2561,184.6873,303.68,189.79" style="stroke:#181818;stroke-width:1;"/><text fill="#000000" font-family="sans-serif" font-size="13" lengthAdjust="spacing" textLength="117.4634" x="103.25" y="132.0669">5.1: Select Cancel</text></g><!--reverse link user to app--><g id="link_user_app"><path d="M61.03,208 C101.93,208 205.37,208 268.45,208 " fill="none" id="user-backto-app-1" style="stroke:#181818;stroke-width:1;"/><polygon fill="#181818" points="55.03,208,64.03,212,60.03,208,64.03,204,55.03,208" style="stroke:#181818;stroke-width:1;"/><text fill="#000000" font-family="sans-serif" font-size="13" lengthAdjust="spacing" textLength="177.0361" x="73.25" y="201.0669">5.4: Display unchanged list</text></g><!--reverse link user to app--><g id="link_user_app"><path d="M60.2012,223.2288 C65.4012,226.4488 66.28,226.34 72.25,228 C91.41,233.32 231.59,231.01 251.25,228 C256.87,227.14 262.67,225.88 268.38,224.4 " fill="none" id="user-backto-app-2" style="stroke:#181818;stroke-width:1;"/><polygon fill="#181818" points="55.1,220.07,60.6459,228.209,59.351,222.7023,64.8576,221.4074,55.1,220.07" style="stroke:#181818;stroke-width:1;"/><text fill="#000000" font-family="sans-serif" font-size="13" lengthAdjust="spacing" textLength="177.2837" x="73.25" y="224.0669">6.3: Notify and retry option</text></g><!--link app to chatListController--><g id="link_app_chatListController"><path d="M361.87,221.79 C372.58,224.37 383.98,226.67 394.75,228 C433.79,232.82 532.57,231.44 571.75,228 C582.49,227.06 587.808,226.5311 598.868,224.8511 " fill="none" id="app-to-chatListController" style="stroke:#181818;stroke-width:1;"/><polygon fill="#181818" points="604.8,223.95,595.3014,221.3469,599.8567,224.7009,596.5028,229.2562,604.8,223.95" style="stroke:#181818;stroke-width:1;"/><text fill="#000000" font-family="sans-serif" font-size="13" lengthAdjust="spacing" textLength="175.5698" x="395.75" y="224.0669">1.2: Retrieve chat sessions</text></g><!--reverse link app to chatListController--><g id="link_app_chatListController"><path d="M334.2504,230.7456 C348.8704,246.7956 368.54,264.56 394.75,274 C413.25,280.67 552.76,279.13 571.75,274 C606.02,264.74 640.58,242.26 662.35,226.11 " fill="none" id="app-backto-chatListController" style="stroke:#181818;stroke-width:1;"/><polygon fill="#181818" points="330.21,226.31,333.3136,235.6571,333.577,230.0064,339.2277,230.2698,330.21,226.31" style="stroke:#181818;stroke-width:1;"/><text fill="#000000" font-family="sans-serif" font-size="13" lengthAdjust="spacing" textLength="132.9136" x="417.25" y="270.0669">1.5: Display chat list</text></g><!--link app to chatListController--><g id="link_app_chatListController"><path d="M361.86,208 C422.92,208 524.62,208 598.79,208 " fill="none" id="app-to-chatListController-1" style="stroke:#181818;stroke-width:1;"/><polygon fill="#181818" points="604.79,208,595.79,204,599.79,208,595.79,212,604.79,208" style="stroke:#181818;stroke-width:1;"/><text fill="#000000" font-family="sans-serif" font-size="13" lengthAdjust="spacing" textLength="207.5557" x="379.75" y="201.0669">2.2: Trigger delete confirmation</text></g><!--link app to chatListController--><g id="link_app_chatListController"><path d="M335.18,189.8 C346.97,180.41 362.66,169.92 378.75,165 C400.96,158.21 565.03,160.2 587.75,165 C610.69,169.85 629.4603,177.7337 647.9403,187.2037 " fill="none" id="app-to-chatListController-2" style="stroke:#181818;stroke-width:1;"/><polygon fill="#181818" points="653.28,189.94,647.0946,182.2757,648.8302,187.6597,643.4462,189.3953,653.28,189.94" style="stroke:#181818;stroke-width:1;"/><text fill="#000000" font-family="sans-serif" font-size="13" lengthAdjust="spacing" textLength="137.5474" x="414.75" y="155.0669">3.2: Confirm deletion</text></g><!--reverse link app to chatListController--><g id="link_app_chatListController"><path d="M329.7471,184.8651 C340.8671,168.8851 356.02,151.65 378.75,142 C400.13,132.93 565.55,135.18 587.75,142 C618.18,151.35 647.63,173.81 666,189.94 " fill="none" id="app-backto-chatListController-1" style="stroke:#181818;stroke-width:1;"/><polygon fill="#181818" points="326.32,189.79,334.7439,184.6873,329.1759,185.6859,328.1774,180.1179,326.32,189.79" style="stroke:#181818;stroke-width:1;"/><text fill="#000000" font-family="sans-serif" font-size="13" lengthAdjust="spacing" textLength="132.0757" x="417.25" y="132.0669">3.5: Update chat list</text></g><!--link app to chatListController--><g id="link_app_chatListController"><path d="M324.82,226.14 C337.66,247.68 362.36,282.53 394.75,297 C412.71,305.02 553.16,303.43 571.75,297 C612.16,283.02 645.0459,252.4148 665.1259,230.7048 " fill="none" id="app-to-chatListController-3" style="stroke:#181818;stroke-width:1;"/><polygon fill="#181818" points="669.2,226.3,660.1524,230.1911,665.8049,229.9706,666.0254,235.6232,669.2,226.3" style="stroke:#181818;stroke-width:1;"/><text fill="#000000" font-family="sans-serif" font-size="13" lengthAdjust="spacing" textLength="130.1206" x="418.25" y="293.0669">5.2: Cancel deletion</text></g><!--reverse link app to chatListController--><g id="link_app_chatListController"><path d="M345.666,229.2291 C360.676,238.6891 375.38,246.11 394.75,251 C413.82,255.82 552.41,254.55 571.75,251 C598.02,246.18 626.1,235.56 647.72,226.08 " fill="none" id="app-backto-chatListController-2" style="stroke:#181818;stroke-width:1;"/><polygon fill="#181818" points="340.59,226.03,346.0712,234.2127,344.82,228.6959,350.3367,227.4447,340.59,226.03" style="stroke:#181818;stroke-width:1;"/><text fill="#000000" font-family="sans-serif" font-size="13" lengthAdjust="spacing" textLength="171.2471" x="397.75" y="247.0669">5.3: Keep chat unchanged</text></g><!--reverse link app to chatListController--><g id="link_app_chatListController"><path d="M367.4281,190.1046 C373.1381,188.6246 373.13,188.86 378.75,188 C424.66,180.97 541.54,183.3 587.75,188 C593.32,188.57 599.05,189.31 604.8,190.18 " fill="none" id="app-backto-chatListController-3" style="stroke:#181818;stroke-width:1;"/><polygon fill="#181818" points="361.62,191.61,371.3357,193.2239,366.4601,190.3555,369.3285,185.4798,361.62,191.61" style="stroke:#181818;stroke-width:1;"/><text fill="#000000" font-family="sans-serif" font-size="13" lengthAdjust="spacing" textLength="175.7793" x="395.75" y="178.0669">6.2: Display error message</text></g><!--link chatListController to backend--><g id="link_chatListController_backend"><path d="M765.14,190.22 C771,189.34 776.83,188.58 782.5,188 C825.39,183.65 933.69,182.95 976.5,188 C982.13,188.67 982.0199,188.4797 987.8099,189.5497 " fill="none" id="chatListController-to-backend" style="stroke:#181818;stroke-width:1;"/><polygon fill="#181818" points="993.71,190.64,985.5868,185.0711,988.7933,189.7314,984.133,192.9379,993.71,190.64" style="stroke:#181818;stroke-width:1;"/><text fill="#000000" font-family="sans-serif" font-size="13" lengthAdjust="spacing" textLength="138.3853" x="810.5" y="178.0669">1.3: Request chat list</text></g><!--reverse link chatListController to backend--><g id="link_chatListController_backend"><path d="M727.8574,228.4838 C749.5374,237.9638 772.18,246.18 798.5,251 C833.91,257.48 925.25,258.29 960.5,251 C983.9,246.16 1008.57,235.54 1027.5,226.07 " fill="none" id="chatListController-backto-backend" style="stroke:#181818;stroke-width:1;"/><polygon fill="#181818" points="722.36,226.08,729.0035,233.3507,726.9412,228.0832,732.2087,226.0208,722.36,226.08" style="stroke:#181818;stroke-width:1;"/><text fill="#000000" font-family="sans-serif" font-size="13" lengthAdjust="spacing" textLength="128.9463" x="815.5" y="247.0669">1.4: Return chat list</text></g><!--link chatListController to backend--><g id="link_chatListController_backend"><path d="M765.07,223.9 C776.25,225.6 787.64,227.05 798.5,228 C870.23,234.27 888.85,235.13 960.5,228 C971.37,226.92 976.9051,226.2539 988.0051,224.2539 " fill="none" id="chatListController-to-backend-1" style="stroke:#181818;stroke-width:1;"/><polygon fill="#181818" points="993.91,223.19,984.3433,220.8493,988.9892,224.0766,985.7619,228.7225,993.91,223.19" style="stroke:#181818;stroke-width:1;"/><text fill="#000000" font-family="sans-serif" font-size="13" lengthAdjust="spacing" textLength="160.8496" x="799.5" y="224.0669">3.3: Send delete request</text></g><!--reverse link chatListController to backend--><g id="link_chatListController_backend"><path d="M771.45,208 C839.56,208 930.02,208 993.75,208 " fill="none" id="chatListController-backto-backend-1" style="stroke:#181818;stroke-width:1;"/><polygon fill="#181818" points="765.45,208,774.45,212,770.45,208,774.45,204,765.45,208" style="stroke:#181818;stroke-width:1;"/><text fill="#000000" font-family="sans-serif" font-size="13" lengthAdjust="spacing" textLength="192.5308" x="783.5" y="201.0669">3.4: Confirm deletion success</text></g><!--reverse link chatListController to backend--><g id="link_chatListController_backend"><path d="M722.1521,187.2084 C740.6721,177.7384 759.51,169.85 782.5,165 C803.59,160.56 955.55,159.92 976.5,165 C996.63,169.88 1017.33,180.5 1033.09,189.97 " fill="none" id="chatListController-backto-backend-2" style="stroke:#181818;stroke-width:1;"/><polygon fill="#181818" points="716.81,189.94,726.6443,189.404,721.2618,187.6636,723.0021,182.2811,716.81,189.94" style="stroke:#181818;stroke-width:1;"/><text fill="#000000" font-family="sans-serif" font-size="13" lengthAdjust="spacing" textLength="124.8521" x="817.5" y="155.0669">6.1: Error response</text></g><!--reverse link confirmationDialog to chatListController--><g id="link_confirmationDialog_chatListController"><path d="M685,84.04 C685,112.02 685,161.42 685,189.62 " fill="none" id="confirmationDialog-backto-chatListController" style="stroke:#181818;stroke-width:1;"/><polygon fill="#181818" points="685,78.04,681,87.04,685,83.04,689,87.04,685,78.04" style="stroke:#181818;stroke-width:1;"/><text fill="#000000" font-family="sans-serif" font-size="13" lengthAdjust="spacing" textLength="64.2637" x="716.9607" y="121.0669">2.3: Show</text><text fill="#000000" font-family="sans-serif" font-size="13" lengthAdjust="spacing" textLength="126.1851" x="686" y="136.1997">confirmation dialog</text></g><!--SRC=[ZLJ1Zjem4BtlLuoux8bAcnGE72fHMAcetJsKtLilNcV8MZLEQZjKgEg_TsQSR4E0Dbm8yNipyzuylFDgZp1vNcKPJE51ELKYB3UmUbKnJE3N3T17wLXv0WNq4r016dgG0uywAbTQgl1GlHYBoxeMXAhh8M2vuPfVJ8YhoaLVMTjMqsUlXrGwsHc_Lz5KRcsKhSf4F7iz97vK-ZkwOel-O3GAwIMzkX7eBJogWobLH8XL9nju63bcdJ3rqm-i1nPmz-vk0KkjCOGtSA1kr3_vH2Y1dqiIThQ0hnYzmGCAXCWX43a8-m99YhKJIuMSA_neCCHKm7QZTg2flTx-lRHll1jmBpMsFT6p1QnDgAqwzeYjVq-gXZLQ90StkhLXQ5l6jlM0He_oAsE_dhmfI_fP96f_vLTdRxZYMJQa8lctVQr-VdFzSoXIU5f977DO3HiDHUKiQajJwTY1HsZAMLCBJvh-9UHq-xbCpy-j6JubOUJ-Szx_i3M4Hk8y8WSvv-2vBlZFSfeVaSn0yOYHyx-9QOHHd8HcfPn6c-9mpTzPtr_1Zx1t9lQcwlzrr_PwaREV4Uiah77qvKeiBggRiOzlwZheYRvxx-c-_AHSOOqhH-vdpe8JqsEewLR04QFFMN4t3GfxJ_kaM_pYy7DM-bX5ipi2ZKUTeZz2LOjHl_y0]--></g></svg>