<svg xmlns="http://www.w3.org/2000/svg" xmlns:xlink="http://www.w3.org/1999/xlink" contentStyleType="text/css" height="407px" preserveAspectRatio="none" style="width:854px;height:407px;background:#FFFFFF;" version="1.1" viewBox="0 0 854 407" width="854px" zoomAndPan="magnify"><defs/><g><!--cluster UC3 - Register New User--><g id="cluster_UC3 - Register New User"><rect fill="none" height="394" rx="2.5" ry="2.5" style="stroke:#181818;stroke-width:1;" width="841" x="7" y="7"/><path d="M210.457,7 L210.457,16.2969 L200.457,26.2969 L7,26.2969 " fill="none" style="stroke:#181818;stroke-width:1;"/><text fill="#000000" font-family="sans-serif" font-size="14" font-weight="bold" lengthAdjust="spacing" textLength="193.457" x="10" y="20.9951">UC3 - Register New User</text></g><!--entity user--><g id="elem_user"><ellipse cx="38.9551" cy="50.5" fill="#F1F1F1" rx="8" ry="8" style="stroke:#181818;stroke-width:0.5;"/><path d="M38.9551,58.5 L38.9551,85.5 M25.9551,66.5 L51.9551,66.5 M38.9551,85.5 L25.9551,100.5 M38.9551,85.5 L51.9551,100.5 " fill="none" style="stroke:#181818;stroke-width:0.5;"/><text fill="#000000" font-family="sans-serif" font-size="14" lengthAdjust="spacing" textLength="31.9102" x="23" y="114.9951">User</text></g><!--entity app--><g id="elem_app"><rect fill="#F1F1F1" height="36.2969" rx="2.5" ry="2.5" style="stroke:#181818;stroke-width:0.5;" width="97.7246" x="340" y="62"/><text fill="#000000" font-family="sans-serif" font-size="14" lengthAdjust="spacing" textLength="77.7246" x="350" y="84.9951">Mobile App</text></g><!--entity register--><g id="elem_register"><rect fill="#F1F1F1" height="36.2969" rx="2.5" ry="2.5" style="stroke:#181818;stroke-width:0.5;" width="180.9727" x="650.5" y="62"/><text fill="#000000" font-family="sans-serif" font-size="14" lengthAdjust="spacing" textLength="160.9727" x="660.5" y="84.9951">RegisterViewController</text></g><!--entity sdk--><g id="elem_sdk"><rect fill="#F1F1F1" height="36.2969" rx="2.5" ry="2.5" style="stroke:#181818;stroke-width:0.5;" width="84.9893" x="603.5" y="349"/><text fill="#000000" font-family="sans-serif" font-size="14" lengthAdjust="spacing" textLength="64.9893" x="613.5" y="371.9951">ClerkSDK</text></g><!--entity service--><g id="elem_service"><rect fill="#F1F1F1" height="36.2969" rx="2.5" ry="2.5" style="stroke:#181818;stroke-width:0.5;" width="219.5547" x="133" y="349"/><text fill="#000000" font-family="sans-serif" font-size="14" lengthAdjust="spacing" textLength="199.5547" x="143" y="371.9951">Clerk Authentication Service</text></g><!--link user to app--><g id="link_user_app"><path d="M55.14,89.76 C62.71,93.78 72.02,97.97 81,100 C106.25,105.71 288.33,103.36 314,100 C322.42,98.9 325.3969,98.5352 333.9069,96.4852 " fill="none" id="user-to-app" style="stroke:#181818;stroke-width:1;"/><polygon fill="#181818" points="339.74,95.08,330.0535,93.299,334.8791,96.251,331.9271,101.0765,339.74,95.08" style="stroke:#181818;stroke-width:1;"/><text fill="#000000" font-family="sans-serif" font-size="13" lengthAdjust="spacing" textLength="231.7847" x="82" y="96.0669">1.1: Enter first name and last name</text></g><!--link user to app--><g id="link_user_app"><path d="M55.23,67.93 C60.48,64.71 66.49,61.66 72.5,60 C99.28,52.61 295.02,55.96 322.5,60 C328.23,60.84 328.3145,60.6336 334.1545,62.0736 " fill="none" id="user-to-app-1" style="stroke:#181818;stroke-width:1;"/><polygon fill="#181818" points="339.98,63.51,332.1993,57.4717,335.1254,62.313,330.2841,65.239,339.98,63.51" style="stroke:#181818;stroke-width:1;"/><text fill="#000000" font-family="sans-serif" font-size="13" lengthAdjust="spacing" textLength="198.7324" x="98.5" y="50.0669">2.1: Enter email and password</text></g><!--reverse link user to app--><g id="link_user_app"><path d="M61.41,80 C111.82,80 259.83,80 339.74,80 " fill="none" id="user-backto-app" style="stroke:#181818;stroke-width:1;"/><polygon fill="#181818" points="55.41,80,64.41,84,60.41,80,64.41,76,55.41,80" style="stroke:#181818;stroke-width:1;"/><text fill="#000000" font-family="sans-serif" font-size="13" lengthAdjust="spacing" textLength="248.1934" x="73.5" y="73.0669">7.1: Display success or error message</text></g><!--link app to register--><g id="link_app_register"><path d="M438.2,63.42 C443.9,62.02 449.66,60.82 455.25,60 C494.38,54.22 593.86,56.38 633.25,60 C638.93,60.52 638.8225,60.4083 644.6825,61.1883 " fill="none" id="app-to-register" style="stroke:#181818;stroke-width:1;"/><polygon fill="#181818" points="650.63,61.98,642.2365,56.8275,645.6737,61.3203,641.1809,64.7576,650.63,61.98" style="stroke:#181818;stroke-width:1;"/><text fill="#000000" font-family="sans-serif" font-size="13" lengthAdjust="spacing" textLength="162.0874" x="463.25" y="50.0669">3.1: Forward user details</text></g><!--reverse link app to register--><g id="link_app_register"><path d="M444.046,97.8347 C450.056,99.3147 450.34,99.14 456.25,100 C494.95,105.63 593.3,103.55 632.25,100 C638.18,99.46 644.26,98.76 650.38,97.94 " fill="none" id="app-backto-register" style="stroke:#181818;stroke-width:1;"/><polygon fill="#181818" points="438.22,96.4,446.0025,102.436,443.075,97.5956,447.9154,94.668,438.22,96.4" style="stroke:#181818;stroke-width:1;"/><text fill="#000000" font-family="sans-serif" font-size="13" lengthAdjust="spacing" textLength="174.0654" x="457.25" y="96.0669">6.1: Redirect to main page</text></g><!--reverse link app to register--><g id="link_app_register"><path d="M444.31,80 C499.09,80 582.69,80 650.23,80 " fill="none" id="app-backto-register-1" style="stroke:#181818;stroke-width:1;"/><polygon fill="#181818" points="438.31,80,447.31,84,443.31,80,447.31,76,438.31,80" style="stroke:#181818;stroke-width:1;"/><text fill="#000000" font-family="sans-serif" font-size="13" lengthAdjust="spacing" textLength="176.5537" x="456.25" y="73.0669">6.2: Provide error message</text></g><!--link register to sdk--><g id="link_register_sdk"><path d="M735.2,98.4 C718.2,149.4 670.528,292.4281 653.618,343.1381 " fill="none" id="register-to-sdk" style="stroke:#181818;stroke-width:1;"/><polygon fill="#181818" points="651.72,348.83,658.3616,341.5575,653.3017,344.0868,650.7725,339.0268,651.72,348.83" style="stroke:#181818;stroke-width:1;"/><text fill="#000000" font-family="sans-serif" font-size="13" lengthAdjust="spacing" textLength="25.0542" x="741.8083" y="230.5669">4.1:</text><text fill="#000000" font-family="sans-serif" font-size="13" lengthAdjust="spacing" textLength="112.6709" x="698" y="245.6997">Send user details</text></g><!--reverse link register to sdk--><g id="link_register_sdk"><path d="M695.3772,100.6495 C653.9472,120.6595 597.12,155.58 570,210 C545.01,260.15 596.45,319.78 626.46,348.64 " fill="none" id="register-backto-sdk" style="stroke:#181818;stroke-width:1;"/><polygon fill="#181818" points="700.78,98.04,690.9361,98.3523,696.2776,100.2146,694.4154,105.5561,700.78,98.04" style="stroke:#181818;stroke-width:1;"/><text fill="#000000" font-family="sans-serif" font-size="13" lengthAdjust="spacing" textLength="25.0542" x="610.311" y="223.0669">5.1:</text><text fill="#000000" font-family="sans-serif" font-size="13" lengthAdjust="spacing" textLength="103.6763" x="571" y="238.1997">Provide success</text><text fill="#000000" font-family="sans-serif" font-size="13" lengthAdjust="spacing" textLength="96.8589" x="574.4087" y="253.3325">or error details</text></g><!--reverse link service to sdk--><g id="link_service_sdk"><path d="M359.2573,383.4054 C414.4073,389.1854 476.17,392.5 536.75,387 C558.93,384.99 583.33,380.72 603.44,376.64 " fill="none" id="service-backto-sdk" style="stroke:#181818;stroke-width:1;"/><polygon fill="#181818" points="353.29,382.78,361.824,387.6963,358.2628,383.3012,362.6579,379.7399,353.29,382.78" style="stroke:#181818;stroke-width:1;"/><text fill="#000000" font-family="sans-serif" font-size="13" lengthAdjust="spacing" textLength="115.7813" x="420.75" y="383.0669">4.2: Register user</text></g><!--link service to sdk--><g id="link_service_sdk"><path d="M353.12,367 C435.62,367 538.05,367 597.11,367 " fill="none" id="service-to-sdk" style="stroke:#181818;stroke-width:1;"/><polygon fill="#181818" points="603.11,367,594.11,363,598.11,367,594.11,371,603.11,367" style="stroke:#181818;stroke-width:1;"/><text fill="#000000" font-family="sans-serif" font-size="13" lengthAdjust="spacing" textLength="214.373" x="371.25" y="360.0669">4.3: Validate and store user data</text></g><!--SRC=[XLF1Rjim3BttAuXUTlA0Dbi7-32WIBlBqA5eq9vwqImc4IfBAYNN68Rz-oZAIjBKwto87Ojyx_4zUasgHpYzNowWWJlSc9YGu0UES1-HJk7t2V2bkkI9g-ILYZ3mWnmGTacvZMM86__JyFqo12bH8HnNLFW7W-FIkqJUsWcGfgFZbYKNFAsklajHr4-pvt0vf2swP3gLZ7UmGden7PQUydmYZHzaAE1If0Y1VxnJ5ZGcPMoKaZmPDDHypGD02sSVprgupWsmDXGJkEoNSXgiclxDONU4EYjI_u0ztyDYp-I265ICeoTT0VUEyXXELvUeJ4duF21BI1xcZIt9SRFmLeUPV979ltaQ5UcYh3em4S_Z_KT4ZMgAQ69hTDCmEqV7n9-O-D6j66QMjY90v_j-S3bEZ32Qj8NtSfRkJD3Op5HU2jjvkr_ftShM0d6bwbgqyA2iqSmeKKJUTvn4ggJUADnoaSLiHWpUnICD1rv_bf5loRyOZH27hiCO7nr_JKZatrYmAWNhmRxo-SXJkzkZYnpb7MgJlucS0Y-JuqNQxBRoMcX4ht6RTu3Oh2gpIEjPo07GmJOEGKiqd4RnoEHDNgif2zcv32rdBNp98gzC35RzgXR0pe5Ay-Sl]--></g></svg>