<svg xmlns="http://www.w3.org/2000/svg" xmlns:xlink="http://www.w3.org/1999/xlink" contentStyleType="text/css" height="404px" preserveAspectRatio="none" style="width:1492px;height:404px;background:#FFFFFF;" version="1.1" viewBox="0 0 1492 404" width="1492px" zoomAndPan="magnify"><defs/><g><!--cluster UC4 - Navigate Pages--><g id="cluster_UC4 - Navigate Pages"><rect fill="none" height="379" rx="2.5" ry="2.5" style="stroke:#181818;stroke-width:1;" width="1479" x="7" y="19.5659"/><path d="M187.1191,19.5659 L187.1191,28.8628 L177.1191,38.8628 L7,38.8628 " fill="none" style="stroke:#181818;stroke-width:1;"/><text fill="#000000" font-family="sans-serif" font-size="14" font-weight="bold" lengthAdjust="spacing" textLength="170.1191" x="10" y="33.561">UC4 - Navigate Pages</text></g><!--entity user--><g id="elem_user"><ellipse cx="349.9551" cy="315.0659" fill="#F1F1F1" rx="8" ry="8" style="stroke:#181818;stroke-width:0.5;"/><path d="M349.9551,323.0659 L349.9551,350.0659 M336.9551,331.0659 L362.9551,331.0659 M349.9551,350.0659 L336.9551,365.0659 M349.9551,350.0659 L362.9551,365.0659 " fill="none" style="stroke:#181818;stroke-width:0.5;"/><text fill="#000000" font-family="sans-serif" font-size="14" lengthAdjust="spacing" textLength="31.9102" x="334" y="379.561">User</text></g><!--entity app--><g id="elem_app"><rect fill="#F1F1F1" height="36.2969" rx="2.5" ry="2.5" style="stroke:#181818;stroke-width:0.5;" width="97.7246" x="370" y="54.5659"/><text fill="#000000" font-family="sans-serif" font-size="14" lengthAdjust="spacing" textLength="77.7246" x="380" y="77.561">Mobile App</text></g><!--entity nav--><g id="elem_nav"><rect fill="#F1F1F1" height="36.2969" rx="2.5" ry="2.5" style="stroke:#181818;stroke-width:0.5;" width="198.1035" x="730" y="54.5659"/><text fill="#000000" font-family="sans-serif" font-size="14" lengthAdjust="spacing" textLength="178.1035" x="740" y="77.561">MainNavigationController</text></g><!--entity social--><g id="elem_social"><rect fill="#F1F1F1" height="36.2969" rx="2.5" ry="2.5" style="stroke:#181818;stroke-width:0.5;" width="198.377" x="857" y="326.5659"/><text fill="#000000" font-family="sans-serif" font-size="14" lengthAdjust="spacing" textLength="178.377" x="867" y="349.561">SocialFeedViewController</text></g><!--entity chatbot--><g id="elem_chatbot"><rect fill="#F1F1F1" height="36.2969" rx="2.5" ry="2.5" style="stroke:#181818;stroke-width:0.5;" width="192.0674" x="592" y="326.5659"/><text fill="#000000" font-family="sans-serif" font-size="14" lengthAdjust="spacing" textLength="172.0674" x="602" y="349.561">AIChatbotViewController</text></g><!--entity profile--><g id="elem_profile"><rect fill="#F1F1F1" height="36.2969" rx="2.5" ry="2.5" style="stroke:#181818;stroke-width:0.5;" width="198.6982" x="1165.5" y="326.5659"/><text fill="#000000" font-family="sans-serif" font-size="14" lengthAdjust="spacing" textLength="178.6982" x="1175.5" y="349.561">UserProfileViewController</text></g><!--link user to chatbot--><!--link chatbot to social--><!--link social to profile--><!--reverse link app to user--><g id="link_app_user"><path d="M363.8242,79.2011 C303.9342,88.0311 211.97,112.1759 173,182.5659 C129.94,260.3359 282.56,320.5859 333.79,338.2659 " fill="none" id="app-backto-user" style="stroke:#181818;stroke-width:1;"/><polygon fill="#181818" points="369.76,78.3259,360.2728,75.6814,364.8135,79.0552,361.4397,83.5959,369.76,78.3259" style="stroke:#181818;stroke-width:1;"/><text fill="#000000" font-family="sans-serif" font-size="13" lengthAdjust="spacing" textLength="63.9082" x="174" y="195.6328">1.1: Open</text><text fill="#000000" font-family="sans-serif" font-size="13" lengthAdjust="spacing" textLength="24.4702" x="193.719" y="210.7656">app</text></g><!--reverse link app to user--><g id="link_app_user"><path d="M375.6709,93.3929 C341.6509,110.9929 299.27,139.2359 278,182.5659 C252.09,235.3359 305.55,299.5159 333.89,328.3059 " fill="none" id="app-backto-user-1" style="stroke:#181818;stroke-width:1;"/><polygon fill="#181818" points="381,90.6359,371.1684,91.2186,376.5591,92.9334,374.8443,98.3241,381,90.6359" style="stroke:#181818;stroke-width:1;"/><text fill="#000000" font-family="sans-serif" font-size="13" lengthAdjust="spacing" textLength="96.021" x="279" y="195.6328">2.1: Tap Social</text><text fill="#000000" font-family="sans-serif" font-size="13" lengthAdjust="spacing" textLength="78.7363" x="287.6423" y="210.7656">Feed button</text></g><!--reverse link app to user--><g id="link_app_user"><path d="M413.0938,96.6789 C402.0538,139.8589 374.59,247.3359 359.48,306.4559 " fill="none" id="app-backto-user-2" style="stroke:#181818;stroke-width:1;"/><polygon fill="#181818" points="414.58,90.8659,408.4753,98.5946,413.3415,95.7101,416.226,100.5763,414.58,90.8659" style="stroke:#181818;stroke-width:1;"/><text fill="#000000" font-family="sans-serif" font-size="13" lengthAdjust="spacing" textLength="70.2051" x="406.2441" y="195.6328">3.1: Tap AI</text><text fill="#000000" font-family="sans-serif" font-size="13" lengthAdjust="spacing" textLength="98.6934" x="392" y="210.7656">Chatbot button</text></g><!--reverse link app to user--><g id="link_app_user"><path d="M445.3365,94.5396 C475.6965,120.5496 520.23,168.1059 499,214.5659 C471.13,275.5659 398.59,318.7759 366.12,335.6859 " fill="none" id="app-backto-user-3" style="stroke:#181818;stroke-width:1;"/><polygon fill="#181818" points="440.78,90.6359,445.0123,99.529,444.5771,93.8889,450.2172,93.4537,440.78,90.6359" style="stroke:#181818;stroke-width:1;"/><text fill="#000000" font-family="sans-serif" font-size="13" lengthAdjust="spacing" textLength="87.1089" x="505.4189" y="195.6328">4.1: Tap User</text><text fill="#000000" font-family="sans-serif" font-size="13" lengthAdjust="spacing" textLength="87.9468" x="505" y="210.7656">Profile button</text></g><!--link app to user--><g id="link_app_user"><path d="M369.7,81.7259 C283.56,97.1459 111.66,133.4759 79,182.5659 C11.55,283.9459 260.1309,329.7964 327.9009,340.3064 " fill="none" id="app-to-user" style="stroke:#181818;stroke-width:1;"/><polygon fill="#181818" points="333.83,341.2259,325.5493,335.8939,328.8891,340.4597,324.3233,343.7994,333.83,341.2259" style="stroke:#181818;stroke-width:1;"/><text fill="#000000" font-family="sans-serif" font-size="13" lengthAdjust="spacing" textLength="64.2637" x="86.2271" y="195.6328">5.2: Show</text><text fill="#000000" font-family="sans-serif" font-size="13" lengthAdjust="spacing" textLength="76.7178" x="80" y="210.7656">retry option</text></g><!--link app to nav--><g id="link_app_nav"><path d="M468.05,72.5659 C532.45,72.5659 641.04,72.5659 723.86,72.5659 " fill="none" id="app-to-nav" style="stroke:#181818;stroke-width:1;"/><polygon fill="#181818" points="729.86,72.5659,720.86,68.5659,724.86,72.5659,720.86,76.5659,729.86,72.5659" style="stroke:#181818;stroke-width:1;"/><text fill="#000000" font-family="sans-serif" font-size="13" lengthAdjust="spacing" textLength="225.6084" x="486.5" y="65.6328">1.2: Load default Social Feed page</text></g><!--link app to nav--><g id="link_app_nav"><path d="M468.02,56.0759 C473.86,54.6359 479.77,53.4059 485.5,52.5659 C535.41,45.2259 662.24,48.2859 712.5,52.5659 C718.63,53.0859 718.9749,53.0333 725.3149,53.8133 " fill="none" id="app-to-nav-1" style="stroke:#181818;stroke-width:1;"/><polygon fill="#181818" points="731.27,54.5459,722.8258,49.4769,726.3074,53.9354,721.8489,57.417,731.27,54.5459" style="stroke:#181818;stroke-width:1;"/><text fill="#000000" font-family="sans-serif" font-size="13" lengthAdjust="spacing" textLength="147.7925" x="525.5" y="42.6328">2.2: Handle navigation</text></g><!--link app to nav--><g id="link_app_nav"><path d="M448.71,90.6159 C466.06,100.0859 488.74,110.7059 510.5,115.5659 C548.89,124.1359 648.59,121.3459 687.5,115.5659 C719.75,110.7759 749.1658,102.135 776.3258,92.645 " fill="none" id="app-to-nav-2" style="stroke:#181818;stroke-width:1;"/><polygon fill="#181818" points="781.99,90.6659,772.1743,89.8585,777.2698,92.3152,774.8131,97.4107,781.99,90.6659" style="stroke:#181818;stroke-width:1;"/><text fill="#000000" font-family="sans-serif" font-size="13" lengthAdjust="spacing" textLength="147.7925" x="525.5" y="111.6328">3.2: Handle navigation</text></g><!--link app to nav--><g id="link_app_nav"><path d="M440.18,54.3559 C452.52,44.9659 468.89,34.4659 485.5,29.5659 C509.69,22.4259 687.67,25.1259 712.5,29.5659 C739.45,34.3859 762.8198,42.655 785.0798,52.135 " fill="none" id="app-to-nav-3" style="stroke:#181818;stroke-width:1;"/><polygon fill="#181818" points="790.6,54.4859,783.8869,47.2793,785.9998,52.5268,780.7523,54.6397,790.6,54.4859" style="stroke:#181818;stroke-width:1;"/><text fill="#000000" font-family="sans-serif" font-size="13" lengthAdjust="spacing" textLength="147.7925" x="525.5" y="19.6328">4.2: Handle navigation</text></g><!--reverse link app to nav--><g id="link_app_nav"><path d="M473.9308,86.6107 C487.5708,89.6007 496.6,91.0659 510.5,92.5659 C588.71,101.0159 609.03,98.0859 687.5,92.5659 C701.24,91.5959 715.67,90.1159 729.84,88.3759 " fill="none" id="app-backto-nav" style="stroke:#181818;stroke-width:1;"/><polygon fill="#181818" points="468.07,85.3259,476.0048,91.1603,472.954,86.3965,477.7178,83.3458,468.07,85.3259" style="stroke:#181818;stroke-width:1;"/><text fill="#000000" font-family="sans-serif" font-size="13" lengthAdjust="spacing" textLength="175.7793" x="511.5" y="88.6328">5.1: Display error message</text></g><!--link nav to social--><g id="link_nav_social"><path d="M914.49,90.6059 C965.33,105.6059 1025.83,133.1059 1057,182.5659 C1089.99,234.9059 1025.2828,293.3631 985.7228,322.8131 " fill="none" id="nav-to-social" style="stroke:#181818;stroke-width:1;"/><polygon fill="#181818" points="980.91,326.3959,990.5178,324.2302,984.9207,323.4102,985.7407,317.8131,980.91,326.3959" style="stroke:#181818;stroke-width:1;"/><text fill="#000000" font-family="sans-serif" font-size="13" lengthAdjust="spacing" textLength="60.6011" x="1118.5173" y="195.6328">1.3: Load</text><text fill="#000000" font-family="sans-serif" font-size="13" lengthAdjust="spacing" textLength="165.6357" x="1066" y="210.7656">SocialFeedViewController</text></g><!--link nav to social--><g id="link_nav_social"><path d="M834.5,90.8659 C843.29,117.8259 861.61,171.2659 882,214.5659 C901.58,256.1459 926.5054,297.1934 941.8254,321.4434 " fill="none" id="nav-to-social-1" style="stroke:#181818;stroke-width:1;"/><polygon fill="#181818" points="945.03,326.5159,943.6048,316.7707,942.3595,322.2888,936.8414,321.0435,945.03,326.5159" style="stroke:#181818;stroke-width:1;"/><text fill="#000000" font-family="sans-serif" font-size="13" lengthAdjust="spacing" textLength="60.6011" x="935.5173" y="195.6328">2.3: Load</text><text fill="#000000" font-family="sans-serif" font-size="13" lengthAdjust="spacing" textLength="165.6357" x="883" y="210.7656">SocialFeedViewController</text></g><!--link nav to chatbot--><g id="link_nav_chatbot"><path d="M796,90.5859 C764.66,108.7259 719.28,140.6159 698,182.5659 C673.93,230.0159 679.1597,289.7869 683.9297,320.5169 " fill="none" id="nav-to-chatbot" style="stroke:#181818;stroke-width:1;"/><polygon fill="#181818" points="684.85,326.4459,687.4222,316.9389,684.0831,321.5051,679.5169,318.166,684.85,326.4459" style="stroke:#181818;stroke-width:1;"/><text fill="#000000" font-family="sans-serif" font-size="13" lengthAdjust="spacing" textLength="60.6011" x="748.5879" y="195.6328">3.3: Load</text><text fill="#000000" font-family="sans-serif" font-size="13" lengthAdjust="spacing" textLength="159.7769" x="699" y="210.7656">AIChatbotViewController</text></g><!--link nav to profile--><g id="link_nav_profile"><path d="M928.05,87.2359 C1035.94,104.2259 1198.7,136.6759 1240,182.5659 C1276.52,223.1459 1272.9756,288.0989 1268.6356,320.5389 " fill="none" id="nav-to-profile" style="stroke:#181818;stroke-width:1;"/><polygon fill="#181818" points="1267.84,326.4859,1272.9981,318.0958,1268.503,321.5301,1265.0688,317.035,1267.84,326.4859" style="stroke:#181818;stroke-width:1;"/><text fill="#000000" font-family="sans-serif" font-size="13" lengthAdjust="spacing" textLength="60.6011" x="1312.6665" y="195.6328">4.3: Load</text><text fill="#000000" font-family="sans-serif" font-size="13" lengthAdjust="spacing" textLength="165.9341" x="1260" y="210.7656">UserProfileViewController</text></g><!--SRC=[dPHDRy8m343l_0gBoqwTH64N3fCGsxHA-q1YssNTmRG18XKdIbCGclRVbwHfALrXqxWqaf_TPyTbgN33eFyw7K40JxZbAzGCPhXYUHy-Us1-c6YX398prGVCeJ075r0iqKYhpEG_YWKtpucK3a4fVn38oTVdWgQ2j19PvaiIRjlyN2GSipl6qZVETYq-Ty5soYIQhb4lXEx8ICf8EyKsDLDYQUGxacGPwRaispO4wdtDqvJHHt1zLDEVZu66Pday3jVb7N414N5j8MlIU6KH10Os8uKn32u7OtYMZ6AgPcm3WJA46Q8ZmZ4y24mXPKiiCWtb9C6E4gIvM9TbuI1rbRsQJHsMgJ6TcdwbMc-A5itwHzQLSsYTNr1wC2PdiYYq5jJLGMWxk4TApGLHlJ5DwuPp-3_dIGJJnksrbOULyYIAoODdZ8U_6WU7TN5yBNrYPxkSxQw2NzPEwr5bRScOF7h6U_GdRx-cZg-zJtuubVcjKkPVmnNdj3hKp6hTAwjxmtEPuHwOmpSipwiDTQxshbsR5ZUoyxNOnQIOLdiGqjb-VGC0]--></g></svg>