<svg xmlns="http://www.w3.org/2000/svg" xmlns:xlink="http://www.w3.org/1999/xlink" contentStyleType="text/css" height="614px" preserveAspectRatio="none" style="width:1298px;height:614px;background:#FFFFFF;" version="1.1" viewBox="0 0 1298 614" width="1298px" zoomAndPan="magnify"><defs/><g><!--cluster UC5 - Get Meal Suggestions--><g id="cluster_UC5 - Get Meal Suggestions"><rect fill="none" height="601" rx="2.5" ry="2.5" style="stroke:#181818;stroke-width:1;" width="1285" x="7" y="7"/><path d="M236.3721,7 L236.3721,16.2969 L226.3721,26.2969 L7,26.2969 " fill="none" style="stroke:#181818;stroke-width:1;"/><text fill="#000000" font-family="sans-serif" font-size="14" font-weight="bold" lengthAdjust="spacing" textLength="219.3721" x="10" y="20.9951">UC5 - Get Meal Suggestions</text></g><!--entity user--><g id="elem_user"><ellipse cx="38.9551" cy="287.5" fill="#F1F1F1" rx="8" ry="8" style="stroke:#181818;stroke-width:0.5;"/><path d="M38.9551,295.5 L38.9551,322.5 M25.9551,303.5 L51.9551,303.5 M38.9551,322.5 L25.9551,337.5 M38.9551,322.5 L51.9551,337.5 " fill="none" style="stroke:#181818;stroke-width:0.5;"/><text fill="#000000" font-family="sans-serif" font-size="14" lengthAdjust="spacing" textLength="31.9102" x="23" y="351.9951">User</text></g><!--entity app--><g id="elem_app"><rect fill="#F1F1F1" height="36.2969" rx="2.5" ry="2.5" style="stroke:#181818;stroke-width:0.5;" width="93.2744" x="315.5" y="299"/><text fill="#000000" font-family="sans-serif" font-size="14" lengthAdjust="spacing" textLength="73.2744" x="325.5" y="321.9951">MobileApp</text></g><!--entity foodo--><g id="elem_foodo"><rect fill="#F1F1F1" height="36.2969" rx="2.5" ry="2.5" style="stroke:#181818;stroke-width:0.5;" width="128.3428" x="691" y="299"/><text fill="#000000" font-family="sans-serif" font-size="14" lengthAdjust="spacing" textLength="108.3428" x="701" y="321.9951">foodoAIHandler</text></g><!--entity llm--><g id="elem_llm"><rect fill="#F1F1F1" height="36.2969" rx="2.5" ry="2.5" style="stroke:#181818;stroke-width:0.5;" width="157.6143" x="1118" y="299"/><text fill="#000000" font-family="sans-serif" font-size="14" lengthAdjust="spacing" textLength="137.6143" x="1128" y="321.9951">LLMProviderService</text></g><!--entity vector--><g id="elem_vector"><rect fill="#F1F1F1" height="36.2969" rx="2.5" ry="2.5" style="stroke:#181818;stroke-width:0.5;" width="187.624" x="661" y="42"/><text fill="#000000" font-family="sans-serif" font-size="14" lengthAdjust="spacing" textLength="167.624" x="671" y="64.9951">VectorDatabaseHandler</text></g><!--entity preferences--><g id="elem_preferences"><rect fill="#F1F1F1" height="36.2969" rx="2.5" ry="2.5" style="stroke:#181818;stroke-width:0.5;" width="189.1826" x="660.5" y="556"/><text fill="#000000" font-family="sans-serif" font-size="14" lengthAdjust="spacing" textLength="169.1826" x="670.5" y="578.9951">UserPreferenceManager</text></g><!--link user to app--><g id="link_user_app"><path d="M55.25,326.55 C63.12,330.64 72.88,334.94 82.25,337 C104.6,341.92 265.56,340.02 288.25,337 C297.06,335.83 300.4884,335.3521 309.3484,333.1421 " fill="none" id="user-to-app" style="stroke:#181818;stroke-width:1;"/><polygon fill="#181818" points="315.17,331.69,305.4695,329.9871,310.3186,332.9001,307.4056,337.7493,315.17,331.69" style="stroke:#181818;stroke-width:1;"/><text fill="#000000" font-family="sans-serif" font-size="13" lengthAdjust="spacing" textLength="204.3818" x="83.25" y="333.0669">1.1: Enter query and click Send</text></g><!--reverse link user to app--><g id="link_user_app"><path d="M60.2012,301.7712 C65.4012,298.5512 66.28,298.66 72.25,297 C96.45,290.28 273.43,293.2 298.25,297 C303.87,297.86 309.67,299.12 315.38,300.61 " fill="none" id="user-backto-app" style="stroke:#181818;stroke-width:1;"/><polygon fill="#181818" points="55.1,304.93,64.8576,303.5926,59.351,302.2977,60.6459,296.791,55.1,304.93" style="stroke:#181818;stroke-width:1;"/><text fill="#000000" font-family="sans-serif" font-size="13" lengthAdjust="spacing" textLength="187.7319" x="91.75" y="287.0669">3.3: Display error or proceed</text></g><!--reverse link user to app--><g id="link_user_app"><path d="M61.02,317 C108.18,317 241.84,317 315.43,317 " fill="none" id="user-backto-app-1" style="stroke:#181818;stroke-width:1;"/><polygon fill="#181818" points="55.02,317,64.02,321,60.02,317,64.02,313,55.02,317" style="stroke:#181818;stroke-width:1;"/><text fill="#000000" font-family="sans-serif" font-size="13" lengthAdjust="spacing" textLength="224.8086" x="73.25" y="310.0669">6.2: Display suggestions with links</text></g><!--link user to app--><g id="link_user_app"><path d="M55.29,288.25 C59.97,282.5 65.64,277.24 72.25,274 C83.52,268.47 286.24,270.33 298.25,274 C314.34,278.92 325.3366,285.672 337.1266,295.062 " fill="none" id="user-to-app-1" style="stroke:#181818;stroke-width:1;"/><polygon fill="#181818" points="341.82,298.8,337.2719,290.0641,337.9089,295.685,332.288,296.322,341.82,298.8" style="stroke:#181818;stroke-width:1;"/><text fill="#000000" font-family="sans-serif" font-size="13" lengthAdjust="spacing" textLength="137.5347" x="116.75" y="264.0669">7.1: Click meal name</text></g><!--reverse link user to app--><g id="link_user_app"><path d="M59.0416,343.6096 C66.3216,351.7796 71.68,355.64 82.25,360 C103.41,368.73 266.15,365.97 288.25,360 C306.42,355.09 324.71,344.47 338.53,335.01 " fill="none" id="user-backto-app-2" style="stroke:#181818;stroke-width:1;"/><polygon fill="#181818" points="55.05,339.13,58.051,348.5105,58.3764,342.863,64.0238,343.1883,55.05,339.13" style="stroke:#181818;stroke-width:1;"/><text fill="#000000" font-family="sans-serif" font-size="13" lengthAdjust="spacing" textLength="177.4233" x="96.75" y="356.0669">8.2: Display error and retry</text></g><!--link app to foodo--><g id="link_app_foodo"><path d="M383.29,335.09 C403.79,351.23 436.43,373.71 469.25,383 C486.46,387.87 612.89,387.31 630.25,383 C667.35,373.79 700.5718,354.6344 724.7618,338.4644 " fill="none" id="app-to-foodo" style="stroke:#181818;stroke-width:1;"/><polygon fill="#181818" points="729.75,335.13,720.0448,336.8061,725.5932,337.9087,724.4907,343.457,729.75,335.13" style="stroke:#181818;stroke-width:1;"/><text fill="#000000" font-family="sans-serif" font-size="13" lengthAdjust="spacing" textLength="119.7295" x="490.25" y="379.0669">2.1: Forward input</text></g><!--reverse link app to foodo--><g id="link_app_foodo"><path d="M386.8734,295.062 C398.6634,285.672 409.66,278.92 425.75,274 C452.1,265.94 647.01,267.36 673.75,274 C693.42,278.88 713.57,289.51 728.88,298.97 " fill="none" id="app-backto-foodo" style="stroke:#181818;stroke-width:1;"/><polygon fill="#181818" points="382.18,298.8,391.712,296.322,386.0911,295.685,386.7281,290.0641,382.18,298.8" style="stroke:#181818;stroke-width:1;"/><text fill="#000000" font-family="sans-serif" font-size="13" lengthAdjust="spacing" textLength="123.354" x="488.25" y="264.0669">3.2: Forward result</text></g><!--reverse link app to foodo--><g id="link_app_foodo"><path d="M414.6024,328.8321 C433.3124,332.5921 449.26,335.15 469.25,337 C540.5,343.59 558.92,342.68 630.25,337 C650.04,335.42 671.43,332.46 690.81,329.29 " fill="none" id="app-backto-foodo-1" style="stroke:#181818;stroke-width:1;"/><polygon fill="#181818" points="408.72,327.65,416.7555,333.3448,413.622,328.6351,418.3317,325.5016,408.72,327.65" style="stroke:#181818;stroke-width:1;"/><text fill="#000000" font-family="sans-serif" font-size="13" lengthAdjust="spacing" textLength="159.9736" x="470.25" y="333.0669">6.1: Provide suggestions</text></g><!--link app to foodo--><g id="link_app_foodo"><path d="M408.62,300.61 C414.33,299.12 420.13,297.86 425.75,297 C480.23,288.66 619.04,290.37 673.75,297 C679.37,297.68 679.2754,297.5001 685.0654,298.6001 " fill="none" id="app-to-foodo-1" style="stroke:#181818;stroke-width:1;"/><polygon fill="#181818" points="690.96,299.72,682.8647,294.1105,686.0479,298.7868,681.3716,301.9699,690.96,299.72" style="stroke:#181818;stroke-width:1;"/><text fill="#000000" font-family="sans-serif" font-size="13" lengthAdjust="spacing" textLength="149.2778" x="475.25" y="287.0669">7.2: Signal preparation</text></g><!--reverse link app to foodo--><g id="link_app_foodo"><path d="M414.63,317 C484.77,317 611.65,317 690.88,317 " fill="none" id="app-backto-foodo-2" style="stroke:#181818;stroke-width:1;"/><polygon fill="#181818" points="408.63,317,417.63,321,413.63,317,417.63,313,408.63,317" style="stroke:#181818;stroke-width:1;"/><text fill="#000000" font-family="sans-serif" font-size="13" lengthAdjust="spacing" textLength="246.2256" x="426.75" y="310.0669">7.3: Transition to cooking instructions</text></g><!--reverse link app to foodo--><g id="link_app_foodo"><path d="M402.6431,337.5945 C423.0831,347.0745 444.23,355.17 469.25,360 C504.38,366.78 594.96,365.91 630.25,360 C658.94,355.19 689.87,344.57 713.75,335.09 " fill="none" id="app-backto-foodo-3" style="stroke:#181818;stroke-width:1;"/><polygon fill="#181818" points="397.2,335.07,403.6816,342.4854,401.7359,337.1737,407.0476,335.228,397.2,335.07" style="stroke:#181818;stroke-width:1;"/><text fill="#000000" font-family="sans-serif" font-size="13" lengthAdjust="spacing" textLength="124.8521" x="487.75" y="356.0669">8.1: Error response</text></g><!--link foodo to llm--><g id="link_foodo_llm"><path d="M781.2,298.97 C796.57,289.5 816.78,278.88 836.5,274 C864.97,266.95 1071.81,267.9 1100.5,274 C1123.28,278.85 1141.8794,286.716 1160.2094,296.186 " fill="none" id="foodo-to-llm" style="stroke:#181818;stroke-width:1;"/><polygon fill="#181818" points="1165.54,298.94,1159.3801,291.2552,1161.0978,296.645,1155.7081,298.3627,1165.54,298.94" style="stroke:#181818;stroke-width:1;"/><text fill="#000000" font-family="sans-serif" font-size="13" lengthAdjust="spacing" textLength="120.1548" x="908.5" y="264.0669">2.2: Validate input</text></g><!--reverse link foodo to llm--><g id="link_foodo_llm"><path d="M802.2645,337.284 C826.3945,346.764 852.04,355.19 881,360 C919.36,366.37 1017.54,365.73 1056,360 C1088.15,355.21 1123.1,344.59 1150.16,335.1 " fill="none" id="foodo-backto-llm" style="stroke:#181818;stroke-width:1;"/><polygon fill="#181818" points="796.68,335.09,803.5941,342.104,801.3337,336.9183,806.5194,334.658,796.68,335.09" style="stroke:#181818;stroke-width:1;"/><text fill="#000000" font-family="sans-serif" font-size="13" lengthAdjust="spacing" textLength="135.5859" x="901" y="356.0669">3.1: Validation result</text></g><!--link foodo to llm--><g id="link_foodo_llm"><path d="M819.19,329.19 C838.94,332.4 860.8,335.41 881,337 C958.54,343.12 978.42,342.48 1056,337 C1076.1,335.58 1091.7478,333.8707 1111.8478,331.0607 " fill="none" id="foodo-to-llm-1" style="stroke:#181818;stroke-width:1;"/><polygon fill="#181818" points="1117.79,330.23,1108.3229,327.5146,1112.8382,330.9223,1109.4305,335.4376,1117.79,330.23" style="stroke:#181818;stroke-width:1;"/><text fill="#000000" font-family="sans-serif" font-size="13" lengthAdjust="spacing" textLength="173.0498" x="882" y="333.0669">4.1: Determine user intent</text></g><!--link foodo to llm--><g id="link_foodo_llm"><path d="M819.27,317 C898.28,317 1026.36,317 1111.7,317 " fill="none" id="foodo-to-llm-2" style="stroke:#181818;stroke-width:1;"/><polygon fill="#181818" points="1117.7,317,1108.7,313,1112.7,317,1108.7,321,1117.7,317" style="stroke:#181818;stroke-width:1;"/><text fill="#000000" font-family="sans-serif" font-size="13" lengthAdjust="spacing" textLength="262.6279" x="837.5" y="310.0669">5.5: Request context-aware suggestions</text></g><!--reverse link foodo to llm--><g id="link_foodo_llm"><path d="M825.1353,298.6039 C830.9453,297.5039 830.86,297.68 836.5,297 C894.74,289.96 1042.14,291.02 1100.5,297 C1106.2,297.58 1112.06,298.36 1117.95,299.26 " fill="none" id="foodo-backto-llm-1" style="stroke:#181818;stroke-width:1;"/><polygon fill="#181818" points="819.24,299.72,828.827,301.976,824.1527,298.7899,827.3388,294.1156,819.24,299.72" style="stroke:#181818;stroke-width:1;"/><text fill="#000000" font-family="sans-serif" font-size="13" lengthAdjust="spacing" textLength="155.2319" x="891" y="287.0669">5.6: Return suggestions</text></g><!--reverse link vector to foodo--><g id="link_vector_foodo"><path d="M714.4465,80.9784 C675.0965,102.6884 624.37,140.11 642,187 C660.03,234.93 704.84,276.69 732.31,298.93 " fill="none" id="vector-backto-foodo" style="stroke:#181818;stroke-width:1;"/><polygon fill="#181818" points="719.7,78.08,709.8875,78.9253,715.3221,80.4954,713.7521,85.93,719.7,78.08" style="stroke:#181818;stroke-width:1;"/><text fill="#000000" font-family="sans-serif" font-size="13" lengthAdjust="spacing" textLength="178.4644" x="643" y="183.0669">5.1: Query vector database</text></g><!--link vector to foodo--><g id="link_vector_foodo"><path d="M770.88,78.25 C788.32,98.48 815.26,133.85 826,170 C840.6,219.18 802.7179,267.8943 777.1879,294.4543 " fill="none" id="vector-to-foodo" style="stroke:#181818;stroke-width:1;"/><polygon fill="#181818" points="773.03,298.78,782.1507,295.0634,776.4949,295.1753,776.3831,289.5195,773.03,298.78" style="stroke:#181818;stroke-width:1;"/><text fill="#000000" font-family="sans-serif" font-size="13" lengthAdjust="spacing" textLength="133.1548" x="829" y="183.0669">5.2: Return matches</text></g><!--link foodo to preferences--><g id="link_foodo_preferences"><path d="M726.49,335.17 C693.92,356.65 642.36,396.78 621,447 C600.06,496.22 658.4152,532.515 705.0452,553.425 " fill="none" id="foodo-to-preferences" style="stroke:#181818;stroke-width:1;"/><polygon fill="#181818" points="710.52,555.88,703.9445,548.5476,705.9577,553.8342,700.6712,555.8473,710.52,555.88" style="stroke:#181818;stroke-width:1;"/><text fill="#000000" font-family="sans-serif" font-size="13" lengthAdjust="spacing" textLength="220.4922" x="622" y="460.0669">5.3: Refine results by preferences</text></g><!--reverse link foodo to preferences--><g id="link_foodo_preferences"><path d="M776.9633,339.5011 C799.3333,362.5011 832.41,401.41 847,447 C861.28,491.63 814.25,533.48 782.25,555.93 " fill="none" id="foodo-backto-preferences" style="stroke:#181818;stroke-width:1;"/><polygon fill="#181818" points="772.78,335.2,776.1876,344.4406,776.2661,338.7843,781.9224,338.8628,772.78,335.2" style="stroke:#181818;stroke-width:1;"/><text fill="#000000" font-family="sans-serif" font-size="13" lengthAdjust="spacing" textLength="138.9121" x="850" y="460.0669">5.4: Refined matches</text></g><!--SRC=[TPJ1Rjim38RlUGgYbvqSe4sT53aCA9fkAz0CMRFrhjYCAqIHFKbE5mnxzv6qd3XEMkHGo1z_aZyfhPtQ8bpzUaWXWQyOO8xAmB8k2lH1bzPVmTy1q9_AGka8zEYkG7cewH_vu30BoXQ6LERbIXkyhoeXL5NrWNLPvkNzqpTbSnDrvAZFFJ_F5wxSwHpT4jrEPoYiCTi- -OfSrqm5jL8Uky8x-TBdkVw5mpKwj1dEbLL5vAl3gHz8r2TW69viLGSvu9OXSSbdRWscS3sydiAZ3NJwkqQt1yeEcT7P1fPeyyOs8YL4-gIW6mxwKhftvNBG1-tciv3KfN0tKtXLHkSgO0HZMV6KfWClw6lJA71OOZgPHfofmxeZ6xEPGoiZpjPMrG6bVCQaT-P6KvXfNncr1tIELe9-bIipnBojRuPaoLPR9Ey2sWyQlENoZgWaq0qVTHOiw_tPIdRrwYGXnMRM99gow0yPHZpBusf8K3nBSebgZKgv-HSCjREmLI5xmvCK3TnP3maPSSYQAs_iyh3Qd-mGAtI3Ogd7fBUjGdufwz6eT9WoIIlc0sGbMVGd98ecXU1xffpjG3eS7rhhmksauYG_CFUu7sFsDLx9iwpz9Hcpdwrq1uPt7Tx0QBiv5F0WjqK6_9qUeelNRCAv6t3Be6t1ixiruSHBNLYYoFfAETdyoorDU8G_dR9Uo_K89PbRRhGjQ0rzS7LsOjMZBBiyC8HSbhoJ1q50MegAel6YGNTTWvfRn4-7m-3s4Z0O_FiF]--></g></svg>