<svg xmlns="http://www.w3.org/2000/svg" xmlns:xlink="http://www.w3.org/1999/xlink" contentStyleType="text/css" height="567px" preserveAspectRatio="none" style="width:1927px;height:567px;background:#FFFFFF;" version="1.1" viewBox="0 0 1927 567" width="1927px" zoomAndPan="magnify"><defs/><g><!--cluster UC6 - Get Recipe Instructions--><g id="cluster_UC6 - Get Recipe Instructions"><rect fill="none" height="554" rx="2.5" ry="2.5" style="stroke:#181818;stroke-width:1;" width="1914" x="7" y="7"/><path d="M249.0391,7 L249.0391,16.2969 L239.0391,26.2969 L7,26.2969 " fill="none" style="stroke:#181818;stroke-width:1;"/><text fill="#000000" font-family="sans-serif" font-size="14" font-weight="bold" lengthAdjust="spacing" textLength="232.0391" x="10" y="20.9951">UC6 - Get Recipe Instructions</text></g><!--entity user--><g id="elem_user"><ellipse cx="38.9551" cy="225.5" fill="#F1F1F1" rx="8" ry="8" style="stroke:#181818;stroke-width:0.5;"/><path d="M38.9551,233.5 L38.9551,260.5 M25.9551,241.5 L51.9551,241.5 M38.9551,260.5 L25.9551,275.5 M38.9551,260.5 L51.9551,275.5 " fill="none" style="stroke:#181818;stroke-width:0.5;"/><text fill="#000000" font-family="sans-serif" font-size="14" lengthAdjust="spacing" textLength="31.9102" x="23" y="289.9951">User</text></g><!--entity app--><g id="elem_app"><rect fill="#F1F1F1" height="36.2969" rx="2.5" ry="2.5" style="stroke:#181818;stroke-width:0.5;" width="93.2744" x="326.5" y="237"/><text fill="#000000" font-family="sans-serif" font-size="14" lengthAdjust="spacing" textLength="73.2744" x="336.5" y="259.9951">MobileApp</text></g><!--entity view--><g id="elem_view"><rect fill="#F1F1F1" height="36.2969" rx="2.5" ry="2.5" style="stroke:#181818;stroke-width:0.5;" width="245.0596" x="778.5" y="237"/><text fill="#000000" font-family="sans-serif" font-size="14" lengthAdjust="spacing" textLength="225.0596" x="788.5" y="259.9951">RecipeInstructionViewController</text></g><!--entity foodo--><g id="elem_foodo"><rect fill="#F1F1F1" height="36.2969" rx="2.5" ry="2.5" style="stroke:#181818;stroke-width:0.5;" width="128.3428" x="1348" y="237"/><text fill="#000000" font-family="sans-serif" font-size="14" lengthAdjust="spacing" textLength="108.3428" x="1358" y="259.9951">foodoAIHandler</text></g><!--entity llm--><g id="elem_llm"><rect fill="#F1F1F1" height="36.2969" rx="2.5" ry="2.5" style="stroke:#181818;stroke-width:0.5;" width="157.6143" x="1747" y="237"/><text fill="#000000" font-family="sans-serif" font-size="14" lengthAdjust="spacing" textLength="137.6143" x="1757" y="259.9951">LLMProviderService</text></g><!--entity vector--><g id="elem_vector"><rect fill="#F1F1F1" height="36.2969" rx="2.5" ry="2.5" style="stroke:#181818;stroke-width:0.5;" width="187.624" x="1392" y="509"/><text fill="#000000" font-family="sans-serif" font-size="14" lengthAdjust="spacing" textLength="167.624" x="1402" y="531.9951">VectorDatabaseHandler</text></g><!--entity timer--><g id="elem_timer"><rect fill="#F1F1F1" height="36.2969" rx="2.5" ry="2.5" style="stroke:#181818;stroke-width:0.5;" width="121.8145" x="840" y="42"/><text fill="#000000" font-family="sans-serif" font-size="14" lengthAdjust="spacing" textLength="101.8145" x="850" y="64.9951">TimerManager</text></g><!--entity progress--><g id="elem_progress"><rect fill="#F1F1F1" height="36.2969" rx="2.5" ry="2.5" style="stroke:#181818;stroke-width:0.5;" width="133.668" x="791" y="509"/><text fill="#000000" font-family="sans-serif" font-size="14" lengthAdjust="spacing" textLength="113.668" x="801" y="531.9951">ProgressTracker</text></g><!--link user to app--><g id="link_user_app"><path d="M55.19,265.18 C62.29,269.07 70.89,273.04 79.25,275 C103.37,280.66 277.71,278.4 302.25,275 C310.09,273.91 312.4631,273.6508 320.3731,271.6508 " fill="none" id="user-to-app" style="stroke:#181818;stroke-width:1;"/><polygon fill="#181818" points="326.19,270.18,316.4841,268.5082,321.3425,271.4057,318.4451,276.2641,326.19,270.18" style="stroke:#181818;stroke-width:1;"/><text fill="#000000" font-family="sans-serif" font-size="13" lengthAdjust="spacing" textLength="221.1587" x="80.25" y="271.0669">1.1: Type recipe request and click</text><text fill="#000000" font-family="sans-serif" font-size="13" lengthAdjust="spacing" textLength="32.7412" x="285.4759" y="289.1675">Send</text></g><!--reverse link user to app--><g id="link_user_app"><path d="M59.0787,283.4621 C65.5787,291.0321 69.87,293.93 79.25,298 C90.62,302.93 290.32,301.34 302.25,298 C319.83,293.08 337.38,282.46 350.6,273 " fill="none" id="user-backto-app" style="stroke:#181818;stroke-width:1;"/><polygon fill="#181818" points="55.17,278.91,57.9983,288.344,58.4273,282.7035,64.0678,283.1324,55.17,278.91" style="stroke:#181818;stroke-width:1;"/><text fill="#000000" font-family="sans-serif" font-size="13" lengthAdjust="spacing" textLength="187.7319" x="97.25" y="294.0669">3.4: Display error or proceed</text></g><!--reverse link user to app--><g id="link_user_app"><path d="M61.11,255 C109.78,255 250.61,255 326.48,255 " fill="none" id="user-backto-app-1" style="stroke:#181818;stroke-width:1;"/><polygon fill="#181818" points="55.11,255,64.11,259,60.11,255,64.11,251,55.11,255" style="stroke:#181818;stroke-width:1;"/><text fill="#000000" font-family="sans-serif" font-size="13" lengthAdjust="spacing" textLength="235.1426" x="73.25" y="248.0669">7.1: Display interactive recipe cards</text></g><!--link user to app--><g id="link_user_app"><path d="M55.1,242.93 C60.3,239.71 66.28,236.66 72.25,235 C97.62,227.96 283.22,231.01 309.25,235 C314.87,235.86 314.8644,235.6051 320.5744,237.0951 " fill="none" id="user-to-app-1" style="stroke:#181818;stroke-width:1;"/><polygon fill="#181818" points="326.38,238.61,318.6816,232.4672,321.542,237.3475,316.6616,240.208,326.38,238.61" style="stroke:#181818;stroke-width:1;"/><text fill="#000000" font-family="sans-serif" font-size="13" lengthAdjust="spacing" textLength="213.5732" x="84.25" y="225.0669">8.1: Navigate steps or set timers</text></g><!--link user to app--><g id="link_user_app"><path d="M53.54,293.07 C59.72,304.06 68.13,314.76 79.25,321 C90.05,327.07 290.72,325.54 302.25,321 C326.47,311.46 343.5784,293.9764 356.2384,277.9664 " fill="none" id="user-to-app-2" style="stroke:#181818;stroke-width:1;"/><polygon fill="#181818" points="359.96,273.26,351.2401,277.8385,356.8587,277.182,357.5152,282.8006,359.96,273.26" style="stroke:#181818;stroke-width:1;"/><text fill="#000000" font-family="sans-serif" font-size="13" lengthAdjust="spacing" textLength="155.3462" x="113.25" y="317.0669">10.1: Resume or restart</text></g><!--reverse link user to app--><g id="link_user_app"><path d="M59.0775,221.5965 C63.7575,215.8465 65.64,215.24 72.25,212 C84.07,206.2 296.66,208.15 309.25,212 C325.34,216.92 341.03,227.41 352.82,236.8 " fill="none" id="user-backto-app-2" style="stroke:#181818;stroke-width:1;"/><polygon fill="#181818" points="55.29,226.25,64.0736,221.7948,58.4463,222.3721,57.869,216.7448,55.29,226.25" style="stroke:#181818;stroke-width:1;"/><text fill="#000000" font-family="sans-serif" font-size="13" lengthAdjust="spacing" textLength="185.6943" x="98.25" y="202.0669">11.3: Display error and retry</text></g><!--link app to view--><g id="link_app_view"><path d="M405.33,273.06 C424.15,282.54 448.7,293.16 472,298 C499.63,303.74 697.98,301.39 726,298 C765.6,293.21 803.3852,284.1484 837.1452,274.6284 " fill="none" id="app-to-view" style="stroke:#181818;stroke-width:1;"/><polygon fill="#181818" points="842.92,273,833.1722,271.5928,838.1077,274.357,835.3434,279.2925,842.92,273" style="stroke:#181818;stroke-width:1;"/><text fill="#000000" font-family="sans-serif" font-size="13" lengthAdjust="spacing" textLength="170.9805" x="514" y="294.0669">1.2: Forward input to view</text></g><!--reverse link app to view--><g id="link_app_view"><path d="M397.9711,233.0717 C409.8111,223.6817 420.87,216.92 437,212 C454.22,206.75 743.2,209.33 761,212 C792.93,216.79 827.64,227.41 854.51,236.9 " fill="none" id="app-backto-view" style="stroke:#181818;stroke-width:1;"/><polygon fill="#181818" points="393.27,236.8,402.8071,234.3416,397.1875,233.6931,397.8361,228.0735,393.27,236.8" style="stroke:#181818;stroke-width:1;"/><text fill="#000000" font-family="sans-serif" font-size="13" lengthAdjust="spacing" textLength="169.1396" x="514.5" y="202.0669">3.3: Forward result to app</text></g><!--reverse link app to view--><g id="link_app_view"><path d="M425.4089,267.6372 C441.8789,271.1372 454.73,273.27 472,275 C528.16,280.62 669.65,278.21 726,275 C742.94,274.03 760.77,272.55 778.29,270.81 " fill="none" id="app-backto-view-1" style="stroke:#181818;stroke-width:1;"/><polygon fill="#181818" points="419.54,266.39,427.512,272.1734,424.4308,267.4293,429.1749,264.3482,419.54,266.39" style="stroke:#181818;stroke-width:1;"/><text fill="#000000" font-family="sans-serif" font-size="13" lengthAdjust="spacing" textLength="252.7827" x="473" y="271.0669">5.5: Prompt user for details or proceed</text></g><!--reverse link app to view--><g id="link_app_view"><path d="M387.826,231.8713 C398.996,215.8813 414.22,198.64 437,189 C453.58,181.98 743.43,185.07 761,189 C801.91,198.16 844.95,220.66 872.33,236.85 " fill="none" id="app-backto-view-2" style="stroke:#181818;stroke-width:1;"/><polygon fill="#181818" points="384.39,236.79,392.8232,231.7026,387.2534,232.6911,386.2649,227.1212,384.39,236.79" style="stroke:#181818;stroke-width:1;"/><text fill="#000000" font-family="sans-serif" font-size="13" lengthAdjust="spacing" textLength="162.4175" x="518" y="179.0669">6.5: Forward instructions</text></g><!--link app to view--><g id="link_app_view"><path d="M419.8,238.61 C425.54,237.12 431.36,235.86 437,235 C472.59,229.57 725.09,232.45 761,235 C768.35,235.52 769.9213,235.5882 777.5313,236.3682 " fill="none" id="app-to-view-1" style="stroke:#181818;stroke-width:1;"/><polygon fill="#181818" points="783.5,236.98,774.9548,232.0832,778.5261,236.4702,774.1391,240.0415,783.5,236.98" style="stroke:#181818;stroke-width:1;"/><text fill="#000000" font-family="sans-serif" font-size="13" lengthAdjust="spacing" textLength="205.8418" x="496.5" y="225.0669">8.2: Forward navigation actions</text></g><!--reverse link app to view--><g id="link_app_view"><path d="M396.9475,276.9841 C415.6875,293.1141 441.16,311.66 472,321 C499.01,329.18 698.24,326.06 726,321 C775.99,311.89 830.26,289.25 864.9,273.03 " fill="none" id="app-backto-view-3" style="stroke:#181818;stroke-width:1;"/><polygon fill="#181818" points="392.4,273.07,396.6118,281.9729,396.1896,276.3318,401.8306,275.9095,392.4,273.07" style="stroke:#181818;stroke-width:1;"/><text fill="#000000" font-family="sans-serif" font-size="13" lengthAdjust="spacing" textLength="166.1689" x="516" y="317.0669">8.5: Forward notifications</text></g><!--link app to view--><g id="link_app_view"><path d="M386.29,273.24 C403.32,294.89 435.1,329.85 472,344 C485.18,349.05 712.28,347.29 726,344 C783.01,330.34 837.4126,298.1805 870.2526,276.3605 " fill="none" id="app-to-view-2" style="stroke:#181818;stroke-width:1;"/><polygon fill="#181818" points="875.25,273.04,865.5402,274.6891,871.0855,275.8071,869.9675,281.3523,875.25,273.04" style="stroke:#181818;stroke-width:1;"/><text fill="#000000" font-family="sans-serif" font-size="13" lengthAdjust="spacing" textLength="134.5767" x="532" y="340.0669">10.2: Forward action</text></g><!--reverse link app to view--><g id="link_app_view"><path d="M425.86,255 C505.55,255 663.94,255 778.25,255 " fill="none" id="app-backto-view-4" style="stroke:#181818;stroke-width:1;"/><polygon fill="#181818" points="419.86,255,428.86,259,424.86,255,428.86,251,419.86,255" style="stroke:#181818;stroke-width:1;"/><text fill="#000000" font-family="sans-serif" font-size="13" lengthAdjust="spacing" textLength="322.0293" x="438" y="248.0669">10.5: Forward saved state or restart confirmation</text></g><!--reverse link app to view--><g id="link_app_view"><path d="M382.2917,231.4873 C391.6017,210.0673 408.04,180.85 437,166 C453.02,157.79 743.72,160.97 761,166 C808.29,179.76 854.87,214.85 880.59,236.63 " fill="none" id="app-backto-view-5" style="stroke:#181818;stroke-width:1;"/><polygon fill="#181818" points="379.9,236.99,387.156,230.3304,381.8931,232.4044,379.8191,227.1415,379.9,236.99" style="stroke:#181818;stroke-width:1;"/><text fill="#000000" font-family="sans-serif" font-size="13" lengthAdjust="spacing" textLength="126.5469" x="536" y="156.0669">11.2: Forward error</text></g><!--link view to foodo--><g id="link_view_foodo"><path d="M921.37,236.63 C947.04,214.85 993.53,179.76 1040.75,166 C1056.22,161.49 1316.01,159.5 1330.75,166 C1363.48,180.44 1385.614,210.1787 1398.774,231.7387 " fill="none" id="view-to-foodo" style="stroke:#181818;stroke-width:1;"/><polygon fill="#181818" points="1401.9,236.86,1400.6252,227.094,1399.295,232.5922,1393.7968,231.262,1401.9,236.86" style="stroke:#181818;stroke-width:1;"/><text fill="#000000" font-family="sans-serif" font-size="13" lengthAdjust="spacing" textLength="99.4995" x="1136.25" y="156.0669">2.1: Send input</text></g><!--reverse link view to foodo--><g id="link_view_foodo"><path d="M929.6028,276.5308 C959.9328,298.3208 1010.08,330.28 1063.75,344 C1076.88,347.36 1295.03,348.69 1307.75,344 C1345.93,329.92 1379.62,294.94 1397.78,273.26 " fill="none" id="view-backto-foodo" style="stroke:#181818;stroke-width:1;"/><polygon fill="#181818" points="924.73,273.03,929.7054,281.5297,928.7907,275.9473,934.3731,275.0326,924.73,273.03" style="stroke:#181818;stroke-width:1;"/><text fill="#000000" font-family="sans-serif" font-size="13" lengthAdjust="spacing" textLength="123.354" x="1124.25" y="340.0669">3.2: Forward result</text></g><!--link view to foodo--><g id="link_view_foodo"><path d="M1023.72,255 C1125.75,255 1260.88,255 1341.89,255 " fill="none" id="view-to-foodo-1" style="stroke:#181818;stroke-width:1;"/><polygon fill="#181818" points="1347.89,255,1338.89,251,1342.89,255,1338.89,259,1347.89,255" style="stroke:#181818;stroke-width:1;"/><text fill="#000000" font-family="sans-serif" font-size="13" lengthAdjust="spacing" textLength="288.7168" x="1041.75" y="248.0669">4.1: Determine intent and check meal name</text></g><!--reverse link view to foodo--><g id="link_view_foodo"><path d="M1024.2586,236.3666 C1031.8486,235.5866 1033.42,235.52 1040.75,235 C1105.03,230.42 1266.77,227.24 1330.75,235 C1336.37,235.68 1342.17,236.62 1347.96,237.72 " fill="none" id="view-backto-foodo-1" style="stroke:#181818;stroke-width:1;"/><polygon fill="#181818" points="1018.29,236.98,1027.6518,240.039,1023.2638,236.4689,1026.8339,232.0809,1018.29,236.98" style="stroke:#181818;stroke-width:1;"/><text fill="#000000" font-family="sans-serif" font-size="13" lengthAdjust="spacing" textLength="161.4907" x="1105.25" y="225.0669">4.4: Provide intent result</text></g><!--link view to foodo--><g id="link_view_foodo"><path d="M934.42,273.02 C966.52,289.23 1016.92,311.86 1063.75,321 C1090.36,326.19 1281.71,328.55 1307.75,321 C1339.85,311.69 1366.8837,293.0041 1386.7437,276.8641 " fill="none" id="view-to-foodo-2" style="stroke:#181818;stroke-width:1;"/><polygon fill="#181818" points="1391.4,273.08,1381.8929,275.652,1387.5198,276.2334,1386.9383,281.8603,1391.4,273.08" style="stroke:#181818;stroke-width:1;"/><text fill="#000000" font-family="sans-serif" font-size="13" lengthAdjust="spacing" textLength="141.959" x="1115.25" y="317.0669">5.1: Query for recipes</text></g><!--reverse link view to foodo--><g id="link_view_foodo"><path d="M953.0663,234.8986 C979.8863,225.4086 1008.87,216.79 1040.75,212 C1072.61,207.21 1299.48,204.23 1330.75,212 C1350.42,216.88 1370.57,227.51 1385.88,236.97 " fill="none" id="view-backto-foodo-2" style="stroke:#181818;stroke-width:1;"/><polygon fill="#181818" points="947.41,236.9,957.2288,237.6687,952.1236,235.2321,954.5602,230.1269,947.41,236.9" style="stroke:#181818;stroke-width:1;"/><text fill="#000000" font-family="sans-serif" font-size="13" lengthAdjust="spacing" textLength="142.1748" x="1114.75" y="202.0669">5.4: Forward matches</text></g><!--link view to foodo--><g id="link_view_foodo"><path d="M1023.93,271.72 C1037.35,273.07 1050.82,274.21 1063.75,275 C1117.87,278.31 1253.77,280.13 1307.75,275 C1320.78,273.76 1328.6949,272.7327 1341.8649,270.3627 " fill="none" id="view-to-foodo-3" style="stroke:#181818;stroke-width:1;"/><polygon fill="#181818" points="1347.77,269.3,1338.2038,266.9572,1342.849,270.1855,1339.6207,274.8308,1347.77,269.3" style="stroke:#181818;stroke-width:1;"/><text fill="#000000" font-family="sans-serif" font-size="13" lengthAdjust="spacing" textLength="242.0933" x="1064.75" y="271.0669">6.1: Send recipe data for instructions</text></g><!--reverse link view to foodo--><g id="link_view_foodo"><path d="M961.032,274.8504 C992.342,284.3404 1026.94,293.22 1063.75,298 C1090.64,301.49 1281.16,303.27 1307.75,298 C1332.14,293.17 1357.99,282.55 1377.84,273.07 " fill="none" id="view-backto-foodo-3" style="stroke:#181818;stroke-width:1;"/><polygon fill="#181818" points="955.29,273.11,962.7428,279.5486,960.075,274.5603,965.0633,271.8926,955.29,273.11" style="stroke:#181818;stroke-width:1;"/><text fill="#000000" font-family="sans-serif" font-size="13" lengthAdjust="spacing" textLength="158.1392" x="1106.75" y="294.0669">6.4: Provide instructions</text></g><!--reverse link view to foodo--><g id="link_view_foodo"><path d="M934.7822,233.792 C962.1122,217.602 999.91,198.16 1040.75,189 C1056.47,185.47 1315.57,183.61 1330.75,189 C1357.47,198.48 1381.79,220.92 1396.72,237 " fill="none" id="view-backto-foodo-4" style="stroke:#181818;stroke-width:1;"/><polygon fill="#181818" points="929.62,236.85,939.402,235.7044,933.9218,234.3016,935.3246,228.8215,929.62,236.85" style="stroke:#181818;stroke-width:1;"/><text fill="#000000" font-family="sans-serif" font-size="13" lengthAdjust="spacing" textLength="133.123" x="1119.25" y="179.0669">11.1: Error response</text></g><!--link foodo to llm--><g id="link_foodo_llm"><path d="M1438.2,236.97 C1453.57,227.5 1473.78,216.88 1493.5,212 C1518.95,205.7 1703.85,206.54 1729.5,212 C1752.28,216.85 1770.8794,224.716 1789.2094,234.186 " fill="none" id="foodo-to-llm" style="stroke:#181818;stroke-width:1;"/><polygon fill="#181818" points="1794.54,236.94,1788.3801,229.2552,1790.0978,234.645,1784.7081,236.3627,1794.54,236.94" style="stroke:#181818;stroke-width:1;"/><text fill="#000000" font-family="sans-serif" font-size="13" lengthAdjust="spacing" textLength="120.1548" x="1551.5" y="202.0669">2.2: Validate input</text></g><!--reverse link foodo to llm--><g id="link_foodo_llm"><path d="M1444.9739,276.061 C1461.2239,285.531 1477.37,293.13 1498,298 C1522.55,303.79 1700.29,303.04 1725,298 C1748.71,293.16 1773.76,282.54 1792.97,273.07 " fill="none" id="foodo-backto-llm" style="stroke:#181818;stroke-width:1;"/><polygon fill="#181818" points="1439.79,273.04,1445.5519,281.0275,1444.11,275.5575,1449.5799,274.1156,1439.79,273.04" style="stroke:#181818;stroke-width:1;"/><text fill="#000000" font-family="sans-serif" font-size="13" lengthAdjust="spacing" textLength="135.5859" x="1544" y="294.0669">3.1: Validation result</text></g><!--link foodo to llm--><g id="link_foodo_llm"><path d="M1476.24,237.72 C1482.05,236.62 1487.86,235.68 1493.5,235 C1545.57,228.71 1677.33,229.65 1729.5,235 C1735.2,235.58 1735.1288,235.4537 1741.0188,236.3537 " fill="none" id="foodo-to-llm-1" style="stroke:#181818;stroke-width:1;"/><polygon fill="#181818" points="1746.95,237.26,1738.6575,231.9465,1742.0074,236.5048,1737.4491,239.8547,1746.95,237.26" style="stroke:#181818;stroke-width:1;"/><text fill="#000000" font-family="sans-serif" font-size="13" lengthAdjust="spacing" textLength="159.9546" x="1532" y="225.0669">4.2: Validate meal name</text></g><!--reverse link foodo to llm--><g id="link_foodo_llm"><path d="M1432.6127,277.2825 C1448.5627,293.3825 1470.2,311.56 1498,321 C1521.88,329.11 1700.83,328.2 1725,321 C1756.32,311.67 1786.97,289.21 1806.14,273.08 " fill="none" id="foodo-backto-llm-1" style="stroke:#181818;stroke-width:1;"/><polygon fill="#181818" points="1428.39,273.02,1431.8825,282.2288,1431.9089,276.572,1437.5657,276.5985,1428.39,273.02" style="stroke:#181818;stroke-width:1;"/><text fill="#000000" font-family="sans-serif" font-size="13" lengthAdjust="spacing" textLength="108.8877" x="1557.5" y="317.0669">4.3: Intent result</text></g><!--link foodo to llm--><g id="link_foodo_llm"><path d="M1476.23,255 C1549.14,255 1662.11,255 1740.73,255 " fill="none" id="foodo-to-llm-2" style="stroke:#181818;stroke-width:1;"/><polygon fill="#181818" points="1746.73,255,1737.73,251,1741.73,255,1737.73,259,1746.73,255" style="stroke:#181818;stroke-width:1;"/><text fill="#000000" font-family="sans-serif" font-size="13" lengthAdjust="spacing" textLength="234.5015" x="1494.5" y="248.0669">6.2: Request structured instructions</text></g><!--reverse link foodo to llm--><g id="link_foodo_llm"><path d="M1481.954,272.7027 C1489.304,274.1027 1490.84,274.18 1498,275 C1548.12,280.75 1674.8,279.92 1725,275 C1732.12,274.3 1739.47,273.33 1746.82,272.2 " fill="none" id="foodo-backto-llm-2" style="stroke:#181818;stroke-width:1;"/><polygon fill="#181818" points="1476.06,271.58,1484.1526,277.1934,1480.9717,272.5156,1485.6495,269.3347,1476.06,271.58" style="stroke:#181818;stroke-width:1;"/><text fill="#000000" font-family="sans-serif" font-size="13" lengthAdjust="spacing" textLength="225.0625" x="1499" y="271.0669">6.3: Return structured instructions</text></g><!--link foodo to vector--><g id="link_foodo_vector"><path d="M1401.02,273.03 C1383.13,303.06 1351.75,366.97 1373,417 C1390.21,457.52 1425.7151,486.9211 1453.2451,505.6011 " fill="none" id="foodo-to-vector" style="stroke:#181818;stroke-width:1;"/><polygon fill="#181818" points="1458.21,508.97,1453.0085,500.6067,1454.0725,506.1626,1448.5167,507.2266,1458.21,508.97" style="stroke:#181818;stroke-width:1;"/><text fill="#000000" font-family="sans-serif" font-size="13" lengthAdjust="spacing" textLength="178.4644" x="1374" y="405.5669">5.2: Query vector database</text></g><!--reverse link foodo to vector--><g id="link_foodo_vector"><path d="M1448.8713,276.2064 C1484.1013,297.2464 1533.89,333.51 1557,385 C1577.42,430.51 1532.92,482.58 1505.49,508.87 " fill="none" id="foodo-backto-vector" style="stroke:#181818;stroke-width:1;"/><polygon fill="#181818" points="1443.72,273.13,1449.3959,281.1788,1448.0127,275.6937,1453.4979,274.3105,1443.72,273.13" style="stroke:#181818;stroke-width:1;"/><text fill="#000000" font-family="sans-serif" font-size="13" lengthAdjust="spacing" textLength="133.1548" x="1563" y="405.5669">5.3: Return matches</text></g><!--reverse link timer to view--><g id="link_timer_view"><path d="M868.5391,81.6135 C844.1391,99.1635 818.75,124.73 829,156 C839.59,188.3 865.34,218.73 882.99,236.87 " fill="none" id="timer-backto-view" style="stroke:#181818;stroke-width:1;"/><polygon fill="#181818" points="873.41,78.11,863.768,80.1179,869.3509,81.0296,868.4393,86.6125,873.41,78.11" style="stroke:#181818;stroke-width:1;"/><text fill="#000000" font-family="sans-serif" font-size="13" lengthAdjust="spacing" textLength="126.4453" x="830" y="152.0669">8.3: Manage timers</text></g><!--link timer to view--><g id="link_timer_view"><path d="M919.68,78.15 C934.08,92.73 952.86,115.06 961,139 C973.47,175.67 946.3504,210.7451 924.4204,232.5951 " fill="none" id="timer-to-view" style="stroke:#181818;stroke-width:1;"/><polygon fill="#181818" points="920.17,236.83,929.3688,233.3113,923.712,233.3009,923.7223,227.6441,920.17,236.83" style="stroke:#181818;stroke-width:1;"/><text fill="#000000" font-family="sans-serif" font-size="13" lengthAdjust="spacing" textLength="145.939" x="964" y="152.0669">8.4: Send notifications</text></g><!--link view to progress--><g id="link_view_progress"><path d="M805.15,273.05 C741.62,289.87 662.87,322.55 623,385 C577.88,455.68 700.4146,494.6061 784.7846,512.7861 " fill="none" id="view-to-progress" style="stroke:#181818;stroke-width:1;"/><polygon fill="#181818" points="790.65,514.05,782.6945,508.2439,785.7622,512.9968,781.0094,516.0644,790.65,514.05" style="stroke:#181818;stroke-width:1;"/><text fill="#000000" font-family="sans-serif" font-size="13" lengthAdjust="spacing" textLength="112.6392" x="624" y="398.0669">9.1: Save current</text><text fill="#000000" font-family="sans-serif" font-size="13" lengthAdjust="spacing" textLength="102.3306" x="629.1543" y="413.1997">step and timers</text></g><!--reverse link view to progress--><g id="link_view_progress"><path d="M870.5015,276.6406 C840.3615,298.4806 796.78,335.87 777,385 C757.91,432.4 806.31,483.26 836.3,508.99 " fill="none" id="view-backto-progress" style="stroke:#181818;stroke-width:1;"/><polygon fill="#181818" points="875.36,273.12,865.7251,275.1619,871.3112,276.0538,870.4192,281.6399,875.36,273.12" style="stroke:#181818;stroke-width:1;"/><text fill="#000000" font-family="sans-serif" font-size="13" lengthAdjust="spacing" textLength="115.2163" x="778" y="405.5669">9.2: Confirm save</text></g><!--link view to progress--><g id="link_view_progress"><path d="M902.53,273.11 C904.76,302.73 907.68,365.34 898,417 C891.69,450.68 878.6398,482.2547 868.8898,503.3247 " fill="none" id="view-to-progress-1" style="stroke:#181818;stroke-width:1;"/><polygon fill="#181818" points="866.37,508.77,873.7798,502.282,868.4698,504.2323,866.5195,498.9223,866.37,508.77" style="stroke:#181818;stroke-width:1;"/><text fill="#000000" font-family="sans-serif" font-size="13" lengthAdjust="spacing" textLength="133.6626" x="903" y="398.0669">10.3: Request saved</text><text fill="#000000" font-family="sans-serif" font-size="13" lengthAdjust="spacing" textLength="98.1157" x="920.7734" y="413.1997">state or restart</text></g><!--reverse link view to progress--><g id="link_view_progress"><path d="M942.6909,275.8234 C995.7609,303.2334 1079.28,357.33 1045,417 C1017.85,464.24 961.47,492.94 917.67,508.94 " fill="none" id="view-backto-progress-1" style="stroke:#181818;stroke-width:1;"/><polygon fill="#181818" points="937.36,273.07,943.5208,280.754,941.8025,275.3645,947.192,273.6461,937.36,273.07" style="stroke:#181818;stroke-width:1;"/><text fill="#000000" font-family="sans-serif" font-size="13" lengthAdjust="spacing" textLength="128.9653" x="1064.4099" y="398.0669">10.4: Provide saved</text><text fill="#000000" font-family="sans-serif" font-size="13" lengthAdjust="spacing" textLength="151.7852" x="1053" y="413.1997">state or confirm restart</text></g><!--SRC=[VLPDJnin4BtpAwnSUWegvAEGGoK4XI91rGBbr8lPdQGM6-zsx0sAglxtpeozYNUpIvH3PB-PyNlpbINgDQZHpykv6giRyEe1CbE1khNEOvrvKretKd-F57rqvaiah0CSAUrKJJ_a0Y7psguASdHVlfW2BgfA4Bggke3WFt7_RE3jihGUowA8ZZTqrBLRbcLUNjn-rJPlO7BKnTtTtN_7ScDom4V0ZSb0i4MnxYAVWVbSQQzVj8FKyKPkklWdimQyrrQl8ippGHT5mLS8pZsXpbuZi8fdHmB-e5X1KhYglHomZcgCuy-ibrgea-EJXNhQKXOm90FXJmtEAtgYoWgJlQhH8zXy5B92DcBCgedrwK9Tb_YcCLU6WoXVxYKLbE15FZ8uvN3iBw055Uu4Hie9YBm-wyBasaC4HZRnb599nUFg8dXWit6HX9bmc0IBUsoCLkn9J58I2JAyljX9DJcUT77CjgaxqORH8Z73fmjrPLnLwAq2H2fd-b9wCe2yuNC57d1jB3Hvyc3zW7PJ9hKtC88DUVeDbASrw49PQh5-LQSjLTlW0m6dp3MyvdtnfimoDa7pf6WGAVwe0RSgD81gEc20uemf1eCbeKD9kZHqFXvpyE2D3KuRWtYMjoA4it7TYa7K7i3NQDLQUzBE3N2RCRScuIcqMncpuvc8iAvyo3u_FWUlJU5wadu35f2Jq3F_1eIPx_ecjYdJb32cQtoG-3bhz13REe1hXFpGyg0AvebKxnaUIZTlbqKllxr-SzPlFqOITDCciOs61ElstYTfbMZ4LKa3qflDRiXb56Zd_3QvlmRD75tlh3nZhz_qngmuUSv39TbrjCbaFBlU6NcMZXSRh7acwGD1QYvjyIHcf7tO0AdtSCrja0IOnjgmfJTBa-bXfSzIfTlmgCQZ9XcQnPBu28tNR1ToTIuboUYiHgI-_sLP4Xb8oODt5jA4ySddh0ajugN1jNBaeudEGvt-8v2gzCjh75XQ7pds7ei9zc15VKpr3wAtQBL84NgID0kzB6TQdEzEd5vUP9xKVTSyYuHJDzq4aOSaG-91TUCtZYHnZN9VPCF8FmjZLmDjUIBhFa39MKLvX_vdj3QxRA_UHYFSfBlbj4mfZzkZV_y1]--></g></svg>