<svg xmlns="http://www.w3.org/2000/svg" xmlns:xlink="http://www.w3.org/1999/xlink" contentStyleType="text/css" height="800px" preserveAspectRatio="none" style="width:1079px;height:766px;background:#FFFFFF;" version="1.1" viewBox="0 0 1079 800" width="1079px" zoomAndPan="magnify"><defs/><g><!--cluster UC7 - Manage Posts--><g id="cluster_UC7 - Manage Posts"><rect fill="none" height="760" rx="2.5" ry="2.5" style="stroke:#181818;stroke-width:1;" width="1066" x="7" y="7"/><path d="M174.3633,7 L174.3633,16.2969 L164.3633,26.2969 L7,26.2969 " fill="none" style="stroke:#181818;stroke-width:1;"/><text fill="#000000" font-family="sans-serif" font-size="14" font-weight="bold" lengthAdjust="spacing" textLength="157.3633" x="10" y="20.9951">UC7 - Manage Posts</text></g><!--entity user--><g id="elem_user"><ellipse cx="38.9551" cy="565.5" fill="#F1F1F1" rx="8" ry="8" style="stroke:#181818;stroke-width:0.5;"/><path d="M38.9551,573.5 L38.9551,600.5 M25.9551,581.5 L51.9551,581.5 M38.9551,600.5 L25.9551,615.5 M38.9551,600.5 L51.9551,615.5 " fill="none" style="stroke:#181818;stroke-width:0.5;"/><text fill="#000000" font-family="sans-serif" font-size="14" lengthAdjust="spacing" textLength="31.9102" x="23" y="629.9951">User</text></g><!--entity postManager--><g id="elem_postManager"><rect fill="#F1F1F1" height="36.2969" rx="2.5" ry="2.5" style="stroke:#181818;stroke-width:0.5;" width="180.3301" x="877" y="577"/><text fill="#000000" font-family="sans-serif" font-size="14" lengthAdjust="spacing" textLength="160.3301" x="887" y="599.9951">PostManagerController</text></g><!--entity socialFeed--><g id="elem_socialFeed"><rect fill="#F1F1F1" height="36.2969" rx="2.5" ry="2.5" style="stroke:#181818;stroke-width:0.5;" width="150.7988" x="730.5" y="42"/><text fill="#000000" font-family="sans-serif" font-size="14" lengthAdjust="spacing" textLength="130.7988" x="740.5" y="64.9951">SocialFeedHandler</text></g><!--entity mediaUploader--><g id="elem_mediaUploader"><rect fill="#F1F1F1" height="36.2969" rx="2.5" ry="2.5" style="stroke:#181818;stroke-width:0.5;" width="125.4717" x="298.5" y="42"/><text fill="#000000" font-family="sans-serif" font-size="14" lengthAdjust="spacing" textLength="105.4717" x="308.5" y="64.9951">MediaUploader</text></g><!--entity app--><g id="elem_app"><rect fill="#F1F1F1" height="36.2969" rx="2.5" ry="2.5" style="stroke:#181818;stroke-width:0.5;" width="93.2744" x="383.5" y="577"/><text fill="#000000" font-family="sans-serif" font-size="14" lengthAdjust="spacing" textLength="73.2744" x="393.5" y="599.9951">MobileApp</text></g><!--link user to app--><g id="link_user_app"><path d="M48.79,633.2 C59.27,665.35 79.38,709.29 114.75,730 C124.77,735.87 313.3,735.07 323.75,730 C374.19,705.51 405.3238,649.6223 419.6438,618.7723 " fill="none" id="user-to-app" style="stroke:#181818;stroke-width:1;"/><polygon fill="#181818" points="422.17,613.33,414.7525,619.8093,420.0648,617.8652,422.0089,623.1775,422.17,613.33" style="stroke:#181818;stroke-width:1;"/><text fill="#000000" font-family="sans-serif" font-size="13" lengthAdjust="spacing" textLength="133.8911" x="152.75" y="726.0669">1.1: Click Share Post</text></g><!--reverse link user to app--><g id="link_user_app"><path d="M60.3268,580.2495 C65.9268,576.8695 67.29,576.72 73.75,575 C104.99,566.65 332.77,570.21 364.75,575 C370.84,575.91 377.15,577.28 383.34,578.88 " fill="none" id="user-backto-app" style="stroke:#181818;stroke-width:1;"/><polygon fill="#181818" points="55.19,583.35,64.9622,582.1239,59.4707,580.7663,60.8283,575.2748,55.19,583.35" style="stroke:#181818;stroke-width:1;"/><text fill="#000000" font-family="sans-serif" font-size="13" lengthAdjust="spacing" textLength="204.147" x="117.25" y="565.0669">1.3: Display Create Post screen</text></g><!--link user to app--><g id="link_user_app"><path d="M55.3,595 C111.09,595 289.73,595 377.23,595 " fill="none" id="user-to-app-1" style="stroke:#181818;stroke-width:1;"/><polygon fill="#181818" points="383.23,595,374.23,591,378.23,595,374.23,599,383.23,595" style="stroke:#181818;stroke-width:1;"/><text fill="#000000" font-family="sans-serif" font-size="13" lengthAdjust="spacing" textLength="289.6309" x="74.75" y="588.0669">1.4: Input caption, upload image, add recipe</text></g><!--link user to app--><g id="link_user_app"><path d="M49.2,556.93 C55.75,535.64 64.71,512.17 73.75,506 C80.42,501.44 357.54,502.34 364.75,506 C393.97,520.81 410.8201,550.0629 420.4101,571.5029 " fill="none" id="user-to-app-2" style="stroke:#181818;stroke-width:1;"/><polygon fill="#181818" points="422.86,576.98,422.8366,567.1312,420.8184,572.4158,415.5338,570.3977,422.86,576.98" style="stroke:#181818;stroke-width:1;"/><text fill="#000000" font-family="sans-serif" font-size="13" lengthAdjust="spacing" textLength="168.4731" x="135.25" y="496.0669">2.1: Click Share Your Dish</text></g><!--reverse link user to app--><g id="link_user_app"><path d="M59.9377,610.904 C74.5677,621.384 92.38,632.09 114.75,638 C137.2,643.93 300.96,642.44 323.75,638 C348.56,633.17 374.9,622.55 395.15,613.07 " fill="none" id="user-backto-app-1" style="stroke:#181818;stroke-width:1;"/><polygon fill="#181818" points="55.06,607.41,60.0471,615.9029,59.1247,610.3217,64.7059,609.3993,55.06,607.41" style="stroke:#181818;stroke-width:1;"/><text fill="#000000" font-family="sans-serif" font-size="13" lengthAdjust="spacing" textLength="204.147" x="117.25" y="634.0669">2.3: Display Create Post screen</text></g><!--link user to app--><g id="link_user_app"><path d="M55.13,567.55 C60.23,561.3 66.47,555.47 73.75,552 C88.34,545.03 349.26,547.35 364.75,552 C381.12,556.91 392.4514,563.7196 404.5414,573.1096 " fill="none" id="user-to-app-3" style="stroke:#181818;stroke-width:1;"/><polygon fill="#181818" points="409.28,576.79,404.6256,568.1103,405.3311,573.723,399.7184,574.4285,409.28,576.79" style="stroke:#181818;stroke-width:1;"/><text fill="#000000" font-family="sans-serif" font-size="13" lengthAdjust="spacing" textLength="204.147" x="117.25" y="542.0669">2.4: Add caption, upload image</text></g><!--link user to app--><g id="link_user_app"><path d="M43.59,556.95 C48.76,521.32 58.5,471.82 73.75,460 C80.14,455.05 357.9,455.7 364.75,460 C406.21,486.01 420.9002,540.7143 426.3502,571.0843 " fill="none" id="user-to-app-4" style="stroke:#181818;stroke-width:1;"/><polygon fill="#181818" points="427.41,576.99,429.7574,567.425,426.5268,572.0686,421.8832,568.838,427.41,576.99" style="stroke:#181818;stroke-width:1;"/><text fill="#000000" font-family="sans-serif" font-size="13" lengthAdjust="spacing" textLength="130.3936" x="154.25" y="450.0669">3.1: Select Edit Post</text></g><!--reverse link user to app--><g id="link_user_app"><path d="M59.1169,620.0003 C72.9869,635.8103 90.57,651.94 114.75,661 C136.5,669.14 301.42,667.37 323.75,661 C356.33,651.7 388.65,629.23 408.94,613.09 " fill="none" id="user-backto-app-2" style="stroke:#181818;stroke-width:1;"/><polygon fill="#181818" points="55.16,615.49,58.0884,624.8934,58.4574,619.2486,64.1022,619.6176,55.16,615.49" style="stroke:#181818;stroke-width:1;"/><text fill="#000000" font-family="sans-serif" font-size="13" lengthAdjust="spacing" textLength="185.8403" x="126.75" y="657.0669">3.3: Display Edit Post screen</text></g><!--link user to app--><g id="link_user_app"><path d="M45.43,633.34 C54.03,671.14 73.3,726.9 114.75,753 C124.58,759.18 313.5,758.46 323.75,753 C380.35,722.85 410.2019,653.3246 422.3019,618.6746 " fill="none" id="user-to-app-5" style="stroke:#181818;stroke-width:1;"/><polygon fill="#181818" points="424.28,613.01,417.5365,620.1881,422.6316,617.7305,425.0892,622.8256,424.28,613.01" style="stroke:#181818;stroke-width:1;"/><text fill="#000000" font-family="sans-serif" font-size="13" lengthAdjust="spacing" textLength="124.8901" x="157.25" y="749.0669">3.4: Modify caption</text></g><!--link user to app--><g id="link_user_app"><path d="M53.43,633.1 C65.51,659.08 85.52,691.48 114.75,707 C125.01,712.44 313.08,711.58 323.75,707 C368.32,687.84 399.8131,644.8862 416.2931,618.3662 " fill="none" id="user-to-app-6" style="stroke:#181818;stroke-width:1;"/><polygon fill="#181818" points="419.46,613.27,411.3123,618.803,416.821,617.5168,418.1072,623.0255,419.46,613.27" style="stroke:#181818;stroke-width:1;"/><text fill="#000000" font-family="sans-serif" font-size="13" lengthAdjust="spacing" textLength="147.9321" x="145.75" y="703.0669">4.1: Select Delete Post</text></g><!--reverse link user to app--><g id="link_user_app"><path d="M60.7173,602.371 C75.8873,607.291 93.71,612.27 114.75,615 C160.81,620.98 277.51,619.31 323.75,615 C343.47,613.16 364.98,609.44 383.46,605.7 " fill="none" id="user-backto-app-3" style="stroke:#181818;stroke-width:1;"/><polygon fill="#181818" points="55.01,600.52,62.337,607.1014,59.7661,602.0625,64.805,599.4917,55.01,600.52" style="stroke:#181818;stroke-width:1;"/><text fill="#000000" font-family="sans-serif" font-size="13" lengthAdjust="spacing" textLength="207.4224" x="115.75" y="611.0669">4.4: Display confirmation dialog</text></g><!--link user to app--><g id="link_user_app"><path d="M45.86,556.79 C51.9,527.97 61.62,491.93 73.75,483 C80.26,478.2 357.74,478.97 364.75,483 C399.87,503.18 416.1922,544.5864 423.7822,570.8164 " fill="none" id="user-to-app-7" style="stroke:#181818;stroke-width:1;"/><polygon fill="#181818" points="425.45,576.58,426.7907,566.8228,424.0602,571.777,419.106,569.0465,425.45,576.58" style="stroke:#181818;stroke-width:1;"/><text fill="#000000" font-family="sans-serif" font-size="13" lengthAdjust="spacing" textLength="137.5474" x="150.75" y="473.0669">4.5: Confirm deletion</text></g><!--reverse link user to app--><g id="link_user_app"><path d="M58.3124,630.1265 C71.3324,650.9365 88.59,671.91 114.75,684 C125.29,688.87 312.84,687.96 323.75,684 C362.42,669.94 396.84,634.95 415.43,613.27 " fill="none" id="user-backto-app-4" style="stroke:#181818;stroke-width:1;"/><polygon fill="#181818" points="55.13,625.04,56.5126,634.7913,57.782,629.2787,63.2946,630.5481,55.13,625.04" style="stroke:#181818;stroke-width:1;"/><text fill="#000000" font-family="sans-serif" font-size="13" lengthAdjust="spacing" textLength="175.7793" x="131.75" y="680.0669">5.1: Display error message</text></g><!--reverse link user to app--><g id="link_user_app"><path d="M53.2354,551.3201 C58.4954,540.4601 63.33,535.29 73.75,529 C87.59,520.64 349.83,522.77 364.75,529 C387.8,538.62 406.86,560.79 418.31,576.78 " fill="none" id="user-backto-app-5" style="stroke:#181818;stroke-width:1;"/><polygon fill="#181818" points="50.62,556.72,58.1431,550.3637,52.7995,552.22,50.9432,546.8764,50.62,556.72" style="stroke:#181818;stroke-width:1;"/><text fill="#000000" font-family="sans-serif" font-size="13" lengthAdjust="spacing" textLength="177.2837" x="130.75" y="519.0669">5.4: Notify and retry option</text></g><!--link app to postManager--><g id="link_app_postManager"><path d="M476.63,603.8 C501.87,608.12 533.65,612.85 562.25,615 C663.74,622.63 689.64,620.76 791.25,615 C819.15,613.42 843.4601,611.1229 870.9001,607.9329 " fill="none" id="app-to-postManager" style="stroke:#181818;stroke-width:1;"/><polygon fill="#181818" points="876.86,607.24,867.4583,604.306,871.8934,607.8174,868.3821,612.2525,876.86,607.24" style="stroke:#181818;stroke-width:1;"/><text fill="#000000" font-family="sans-serif" font-size="13" lengthAdjust="spacing" textLength="227.8936" x="563.25" y="611.0669">1.2: Redirect to Create Post screen</text></g><!--link app to postManager--><g id="link_app_postManager"><path d="M449.09,613.35 C473.18,635.12 516.99,670.19 562.25,684 C586.59,691.42 766.5,689.91 791.25,684 C848.47,670.34 903.1356,638.17 936.1256,616.35 " fill="none" id="app-to-postManager-1" style="stroke:#181818;stroke-width:1;"/><polygon fill="#181818" points="941.13,613.04,931.4167,614.6687,936.9597,615.7983,935.83,621.3412,941.13,613.04" style="stroke:#181818;stroke-width:1;"/><text fill="#000000" font-family="sans-serif" font-size="13" lengthAdjust="spacing" textLength="141.5781" x="606.25" y="680.0669">1.7: Send post details</text></g><!--link app to postManager--><g id="link_app_postManager"><path d="M476.72,595 C565.77,595 755.22,595 870.64,595 " fill="none" id="app-to-postManager-2" style="stroke:#181818;stroke-width:1;"/><polygon fill="#181818" points="876.64,595,867.64,591,871.64,595,867.64,599,876.64,595" style="stroke:#181818;stroke-width:1;"/><text fill="#000000" font-family="sans-serif" font-size="13" lengthAdjust="spacing" textLength="361.48" x="496.25" y="588.0669">2.2: Redirect to Create Post screen with prefilled recipe</text></g><!--link app to postManager--><g id="link_app_postManager"><path d="M437.14,576.98 C446.73,555.54 466.03,520.81 495.25,506 C513.24,496.88 839.26,499.22 858.25,506 C897.54,520.03 928.8923,550.5192 948.0223,572.2192 " fill="none" id="app-to-postManager-3" style="stroke:#181818;stroke-width:1;"/><polygon fill="#181818" points="951.99,576.72,949.0389,567.3237,948.6835,572.9693,943.0379,572.614,951.99,576.72" style="stroke:#181818;stroke-width:1;"/><text fill="#000000" font-family="sans-serif" font-size="13" lengthAdjust="spacing" textLength="141.5781" x="606.25" y="496.0669">2.7: Send post details</text></g><!--link app to postManager--><g id="link_app_postManager"><path d="M476.66,578.88 C482.85,577.28 489.16,575.91 495.25,575 C535.14,569.02 818.08,571.34 858.25,575 C864.37,575.56 864.7137,575.489 871.0237,576.339 " fill="none" id="app-to-postManager-4" style="stroke:#181818;stroke-width:1;"/><polygon fill="#181818" points="876.97,577.14,868.5846,571.9743,872.0148,576.4725,867.5166,579.9027,876.97,577.14" style="stroke:#181818;stroke-width:1;"/><text fill="#000000" font-family="sans-serif" font-size="13" lengthAdjust="spacing" textLength="209.5869" x="572.25" y="565.0669">3.2: Redirect to Edit Post screen</text></g><!--link app to postManager--><g id="link_app_postManager"><path d="M456.94,613.14 C482.7,629.32 523.29,651.82 562.25,661 C587.02,666.83 766.21,665.54 791.25,661 C841.44,651.89 890.502,631.7853 925.292,615.5653 " fill="none" id="app-to-postManager-5" style="stroke:#181818;stroke-width:1;"/><polygon fill="#181818" points="930.73,613.03,920.8827,613.2077,926.1983,615.1428,924.2632,620.4584,930.73,613.03" style="stroke:#181818;stroke-width:1;"/><text fill="#000000" font-family="sans-serif" font-size="13" lengthAdjust="spacing" textLength="167.5591" x="593.25" y="657.0669">3.5: Send updated details</text></g><!--link app to postManager--><g id="link_app_postManager"><path d="M441.69,576.78 C453.14,560.79 472.2,538.62 495.25,529 C513.86,521.23 838.83,523.57 858.25,529 C891.43,538.28 919.808,557.0839 940.628,573.2239 " fill="none" id="app-to-postManager-6" style="stroke:#181818;stroke-width:1;"/><polygon fill="#181818" points="945.37,576.9,940.7077,568.2246,941.4183,573.8366,935.8063,574.5472,945.37,576.9" style="stroke:#181818;stroke-width:1;"/><text fill="#000000" font-family="sans-serif" font-size="13" lengthAdjust="spacing" textLength="160.8496" x="596.75" y="519.0669">4.2: Send delete request</text></g><!--reverse link app to postManager--><g id="link_app_postManager"><path d="M479.4492,615.1936 C504.7992,624.6836 531.97,633.2 562.25,638 C612.51,645.96 740.73,644.09 791.25,638 C831.01,633.2 874.76,622.52 908.67,613 " fill="none" id="app-backto-postManager" style="stroke:#181818;stroke-width:1;"/><polygon fill="#181818" points="473.83,613.09,480.8563,619.9915,478.5126,614.843,483.6611,612.4993,473.83,613.09" style="stroke:#181818;stroke-width:1;"/><text fill="#000000" font-family="sans-serif" font-size="13" lengthAdjust="spacing" textLength="194.5811" x="579.75" y="634.0669">4.3: Show confirmation dialog</text></g><!--link app to postManager--><g id="link_app_postManager"><path d="M450.72,576.79 C462.81,567.4 478.88,556.91 495.25,552 C514.57,546.21 838.44,548.22 858.25,552 C883.58,556.82 905.083,564.9457 925.823,574.4257 " fill="none" id="app-to-postManager-7" style="stroke:#181818;stroke-width:1;"/><polygon fill="#181818" points="931.28,576.92,924.7574,569.5406,926.7325,574.8414,921.4317,576.8165,931.28,576.92" style="stroke:#181818;stroke-width:1;"/><text fill="#000000" font-family="sans-serif" font-size="13" lengthAdjust="spacing" textLength="179.5752" x="587.25" y="542.0669">4.6: Confirm delete request</text></g><!--reverse link app to postManager--><g id="link_app_postManager"><path d="M448.0535,618.0122 C469.9935,644.6622 511.12,688.26 562.25,707 C586.14,715.75 766.82,714.12 791.25,707 C854.47,688.57 916.63,639.73 947.28,613.04 " fill="none" id="app-backto-postManager-1" style="stroke:#181818;stroke-width:1;"/><polygon fill="#181818" points="444.24,613.38,446.8721,622.8706,447.4179,617.2402,453.0484,617.7859,444.24,613.38" style="stroke:#181818;stroke-width:1;"/><text fill="#000000" font-family="sans-serif" font-size="13" lengthAdjust="spacing" textLength="103.9619" x="625.25" y="703.0669">5.3: Notify error</text></g><!--reverse link mediaUploader to app--><g id="link_mediaUploader_app"><path d="M292.4541,69.3738 C250.1941,78.1038 208,96.21 208,139 C208,139 208,139 208,496 C208,572.04 318.36,589.57 383.46,593.3 " fill="none" id="mediaUploader-backto-app" style="stroke:#181818;stroke-width:1;"/><polygon fill="#181818" points="298.33,68.16,288.7069,66.0635,293.4334,69.1715,290.3253,73.898,298.33,68.16" style="stroke:#181818;stroke-width:1;"/><text fill="#000000" font-family="sans-serif" font-size="13" lengthAdjust="spacing" textLength="25.0542" x="223.1711" y="307.0669">1.5:</text><text fill="#000000" font-family="sans-serif" font-size="13" lengthAdjust="spacing" textLength="53.3965" x="209" y="322.1997">Validate</text><text fill="#000000" font-family="sans-serif" font-size="13" lengthAdjust="spacing" textLength="40.4917" x="215.4524" y="337.3325">image</text></g><!--link mediaUploader to app--><g id="link_mediaUploader_app"><path d="M339.58,78.13 C324.13,92.54 306,114.64 306,139 C306,139 306,139 306,496 C306,537.02 342.7696,561.1994 377.9496,576.1794 " fill="none" id="mediaUploader-to-app" style="stroke:#181818;stroke-width:1;"/><polygon fill="#181818" points="383.47,578.53,376.7565,571.3238,378.8697,576.5711,373.6224,578.6843,383.47,578.53" style="stroke:#181818;stroke-width:1;"/><text fill="#000000" font-family="sans-serif" font-size="13" lengthAdjust="spacing" textLength="25.0542" x="327.0745" y="307.0669">1.6:</text><text fill="#000000" font-family="sans-serif" font-size="13" lengthAdjust="spacing" textLength="65.2031" x="307" y="322.1997">Validation</text><text fill="#000000" font-family="sans-serif" font-size="13" lengthAdjust="spacing" textLength="37.064" x="321.0696" y="337.3325">result</text></g><!--reverse link mediaUploader to app--><g id="link_mediaUploader_app"><path d="M386.8077,82.2224 C402.2577,96.6324 416,114.64 416,139 C416,139 416,139 416,496 C416,524.53 421.89,557.26 426.03,576.76 " fill="none" id="mediaUploader-backto-app-1" style="stroke:#181818;stroke-width:1;"/><polygon fill="#181818" points="382.42,78.13,386.2734,87.1938,386.0765,81.5403,391.7299,81.3434,382.42,78.13" style="stroke:#181818;stroke-width:1;"/><text fill="#000000" font-family="sans-serif" font-size="13" lengthAdjust="spacing" textLength="25.0542" x="431.1711" y="307.0669">2.5:</text><text fill="#000000" font-family="sans-serif" font-size="13" lengthAdjust="spacing" textLength="53.3965" x="417" y="322.1997">Validate</text><text fill="#000000" font-family="sans-serif" font-size="13" lengthAdjust="spacing" textLength="40.4917" x="423.4524" y="337.3325">image</text></g><!--link mediaUploader to app--><g id="link_mediaUploader_app"><path d="M423.67,68.16 C465.93,76.89 514,96.21 514,139 C514,139 514,139 514,496 C514,530.96 487.7196,556.251 463.3496,573.371 " fill="none" id="mediaUploader-to-app-1" style="stroke:#181818;stroke-width:1;"/><polygon fill="#181818" points="458.44,576.82,468.1038,574.9195,462.5313,573.9458,463.5051,568.3734,458.44,576.82" style="stroke:#181818;stroke-width:1;"/><text fill="#000000" font-family="sans-serif" font-size="13" lengthAdjust="spacing" textLength="25.0542" x="535.0745" y="307.0669">2.6:</text><text fill="#000000" font-family="sans-serif" font-size="13" lengthAdjust="spacing" textLength="65.2031" x="515" y="322.1997">Validation</text><text fill="#000000" font-family="sans-serif" font-size="13" lengthAdjust="spacing" textLength="37.064" x="529.0696" y="337.3325">result</text></g><!--reverse link socialFeed to postManager--><g id="link_socialFeed_postManager"><path d="M724.456,65.3277 C674.446,72.2077 624,90.01 624,139 C624,139 624,139 624,496 C624,548.64 775.26,574.58 876.88,586.07 " fill="none" id="socialFeed-backto-postManager" style="stroke:#181818;stroke-width:1;"/><polygon fill="#181818" points="730.4,64.51,720.9388,61.7739,725.4467,65.1914,722.0291,69.6993,730.4,64.51" style="stroke:#181818;stroke-width:1;"/><text fill="#000000" font-family="sans-serif" font-size="13" lengthAdjust="spacing" textLength="25.0542" x="635.7561" y="307.0669">1.8:</text><text fill="#000000" font-family="sans-serif" font-size="13" lengthAdjust="spacing" textLength="46.5664" x="625" y="322.1997">Publish</text><text fill="#000000" font-family="sans-serif" font-size="13" lengthAdjust="spacing" textLength="28.0757" x="634.2454" y="337.3325">post</text></g><!--reverse link socialFeed to postManager--><g id="link_socialFeed_postManager"><path d="M758.6719,80.9548 C734.8319,93.7348 715,111.01 715,139 C715,139 715,139 715,496 C715,532.14 806.19,560.27 878.86,576.94 " fill="none" id="socialFeed-backto-postManager-1" style="stroke:#181818;stroke-width:1;"/><polygon fill="#181818" points="763.96,78.12,754.138,78.8468,759.5533,80.4823,757.9177,85.8976,763.96,78.12" style="stroke:#181818;stroke-width:1;"/><text fill="#000000" font-family="sans-serif" font-size="13" lengthAdjust="spacing" textLength="25.0542" x="726.7561" y="307.0669">2.8:</text><text fill="#000000" font-family="sans-serif" font-size="13" lengthAdjust="spacing" textLength="46.5664" x="716" y="322.1997">Publish</text><text fill="#000000" font-family="sans-serif" font-size="13" lengthAdjust="spacing" textLength="28.0757" x="725.2454" y="337.3325">post</text></g><!--reverse link socialFeed to postManager--><g id="link_socialFeed_postManager"><path d="M806,84.04 C806,99.84 806,118.01 806,139 C806,139 806,139 806,496 C806,538.37 847.2,562.95 887.91,576.9 " fill="none" id="socialFeed-backto-postManager-2" style="stroke:#181818;stroke-width:1;"/><polygon fill="#181818" points="806,78.04,802,87.04,806,83.04,810,87.04,806,78.04" style="stroke:#181818;stroke-width:1;"/><text fill="#000000" font-family="sans-serif" font-size="13" lengthAdjust="spacing" textLength="25.0542" x="818.0132" y="307.0669">3.6:</text><text fill="#000000" font-family="sans-serif" font-size="13" lengthAdjust="spacing" textLength="47.0806" x="807" y="322.1997">Update</text><text fill="#000000" font-family="sans-serif" font-size="13" lengthAdjust="spacing" textLength="28.0757" x="816.5024" y="337.3325">post</text></g><!--reverse link socialFeed to postManager--><g id="link_socialFeed_postManager"><path d="M854.0706,80.9514 C878.0906,93.6914 898,110.94 898,139 C898,139 898,139 898,496 C898,529.08 924.62,558.87 944.79,576.7 " fill="none" id="socialFeed-backto-postManager-3" style="stroke:#181818;stroke-width:1;"/><polygon fill="#181818" points="848.77,78.14,854.8466,85.8908,853.1871,80.4828,858.5951,78.8234,848.77,78.14" style="stroke:#181818;stroke-width:1;"/><text fill="#000000" font-family="sans-serif" font-size="13" lengthAdjust="spacing" textLength="25.0542" x="913.1426" y="307.0669">4.7:</text><text fill="#000000" font-family="sans-serif" font-size="13" lengthAdjust="spacing" textLength="53.3394" x="899" y="322.1997">Remove</text><text fill="#000000" font-family="sans-serif" font-size="13" lengthAdjust="spacing" textLength="28.0757" x="911.6318" y="337.3325">post</text></g><!--link socialFeed to postManager--><g id="link_socialFeed_postManager"><path d="M881.64,63.05 C934.62,69.01 996,87.12 996,139 C996,139 996,139 996,496 C996,525.27 986.39,552.0385 977.83,571.2685 " fill="none" id="socialFeed-to-postManager" style="stroke:#181818;stroke-width:1;"/><polygon fill="#181818" points="975.39,576.75,982.7043,570.1545,977.4233,572.1821,975.3957,566.9011,975.39,576.75" style="stroke:#181818;stroke-width:1;"/><text fill="#000000" font-family="sans-serif" font-size="13" lengthAdjust="spacing" textLength="25.0542" x="1014.1387" y="307.0669">5.2:</text><text fill="#000000" font-family="sans-serif" font-size="13" lengthAdjust="spacing" textLength="32.2017" x="1010.5649" y="322.1997">Error</text><text fill="#000000" font-family="sans-serif" font-size="13" lengthAdjust="spacing" textLength="59.3315" x="997" y="337.3325">response</text></g><!--SRC=[dPLHRzem58NV-okk-hANCgaXh5CUAbMKQNjWGaLCgfGNDpPWpR4zsrc5flttNJj0d8J0sZoXv1pkkUTpbBKX9OFhrVGEHZ0dacmOB9HrzXh-N05Uf73AeC0oSmt4GeK_mWF32aVaHg3R6sglcIhfZ19YhzRDawvfgGfEn1V6w5SYwS5WZtUx-ZcZdAoqK8JkjMLyfoTNBrom1ws3b6Xz5HGVO6eOSVMIzSeL4J33rBiWyFl1o8pklGSokFrucy5KyE8dBBV4rCQw6NmUXD6ImP1ay8JHV1XmgZNG5eOnsTW5siD4xnjdyCYj5cGtvEc7IpFu9dNbe23QSILle0g502ynpmqGIdqhNBDcQ3Mgh_jsW-7_9bakVn31AOxFPVYJO6mhHpIAyAcnO81S6cOhSQ6YkmoMJD9m7oXpX0iR7B4m2jeSYs3_Z2CNrOlWTfjBRpaDTs7OckDPfCZZM46tmwGB-5bLneFOdbiXkKmPNhdRWZvcw6A8s2VlO9zuzW-8zoJvc7QVS_9spiaxE2V_pRb3E1acFAFSDUzWjvInXxbamaDfAmSYZhiSZwvpx-euvdNIqG-6jEQAylNk0EnyhCc-kKfxHFGDvOq3gPMkqSRTFM8nZWstbqRjTRK3GLFVNmXAQuDXlogszxHoYcWCjhVSgbSeb5npKuO31NZmXDgSx3lrxHtw7ZBrjy4EfxMuJdUXz1IBQnlEhDEhFSN3diidLghVdTfdnk0dD7pbk3ozuCGtVrYG1Nt9h3sybT6Wy4gsSq-GGIx3bF1MQYKjEmTWuW5yLyuVnZ1i85DwL65sh0A_aQ3gi_lt7m00]--></g></svg>