<svg xmlns="http://www.w3.org/2000/svg" xmlns:xlink="http://www.w3.org/1999/xlink" contentStyleType="text/css" height="566px" preserveAspectRatio="none" style="width:1509px;height:566px;background:#FFFFFF;" version="1.1" viewBox="0 0 1509 566" width="1509px" zoomAndPan="magnify"><defs/><g><!--cluster UC8 - View Posts--><g id="cluster_UC8 - View Posts"><rect fill="none" height="518" rx="2.5" ry="2.5" style="stroke:#181818;stroke-width:1;" width="1496" x="7" y="42.5659"/><path d="M150.1162,42.5659 L150.1162,51.8628 L140.1162,61.8628 L7,61.8628 " fill="none" style="stroke:#181818;stroke-width:1;"/><text fill="#000000" font-family="sans-serif" font-size="14" font-weight="bold" lengthAdjust="spacing" textLength="133.1162" x="10" y="56.561">UC8 - View Posts</text></g><!--entity user--><g id="elem_user"><ellipse cx="249.9551" cy="477.0659" fill="#F1F1F1" rx="8" ry="8" style="stroke:#181818;stroke-width:0.5;"/><path d="M249.9551,485.0659 L249.9551,512.0659 M236.9551,493.0659 L262.9551,493.0659 M249.9551,512.0659 L236.9551,527.0659 M249.9551,512.0659 L262.9551,527.0659 " fill="none" style="stroke:#181818;stroke-width:0.5;"/><text fill="#000000" font-family="sans-serif" font-size="14" lengthAdjust="spacing" textLength="31.9102" x="234" y="541.561">User</text></g><!--entity app--><g id="elem_app"><rect fill="#F1F1F1" height="36.2969" rx="2.5" ry="2.5" style="stroke:#181818;stroke-width:0.5;" width="93.2744" x="250.5" y="77.5659"/><text fill="#000000" font-family="sans-serif" font-size="14" lengthAdjust="spacing" textLength="73.2744" x="260.5" y="100.561">MobileApp</text></g><!--entity feedController--><g id="elem_feedController"><rect fill="#F1F1F1" height="36.2969" rx="2.5" ry="2.5" style="stroke:#181818;stroke-width:0.5;" width="164.8467" x="555.5" y="77.5659"/><text fill="#000000" font-family="sans-serif" font-size="14" lengthAdjust="spacing" textLength="144.8467" x="565.5" y="100.561">SocialFeedController</text></g><!--entity interactionHandler--><g id="elem_interactionHandler"><rect fill="#F1F1F1" height="36.2969" rx="2.5" ry="2.5" style="stroke:#181818;stroke-width:0.5;" width="180.8701" x="918.5" y="77.5659"/><text fill="#000000" font-family="sans-serif" font-size="14" lengthAdjust="spacing" textLength="160.8701" x="928.5" y="100.561">PostInteractionHandler</text></g><!--entity backend--><g id="elem_backend"><rect fill="#F1F1F1" height="36.2969" rx="2.5" ry="2.5" style="stroke:#181818;stroke-width:0.5;" width="132.1025" x="943" y="488.5659"/><text fill="#000000" font-family="sans-serif" font-size="14" lengthAdjust="spacing" textLength="112.1025" x="953" y="511.561">BackendService</text></g><!--reverse link app to user--><g id="link_app_user"><path d="M244.4069,102.9805 C174.8569,112.6305 58,134.5159 58,174.5659 C58,174.5659 58,174.5659 58,407.5659 C58,486.3459 187.82,501.8259 233.96,504.8459 " fill="none" id="app-backto-user" style="stroke:#181818;stroke-width:1;"/><polygon fill="#181818" points="250.35,102.1559,240.8857,99.4308,245.3974,102.8431,241.9851,107.3549,250.35,102.1559" style="stroke:#181818;stroke-width:1;"/><text fill="#000000" font-family="sans-serif" font-size="13" lengthAdjust="spacing" textLength="87.4961" x="59" y="288.1328">1.1: Navigate</text><text fill="#000000" font-family="sans-serif" font-size="13" lengthAdjust="spacing" textLength="87.2041" x="59.146" y="303.2656">to social feed</text></g><!--reverse link app to user--><g id="link_app_user"><path d="M244.753,111.8278 C214.773,123.4078 187,141.5559 187,174.5659 C187,174.5659 187,174.5659 187,407.5659 C187,442.1559 215.11,474.2559 233.78,491.7659 " fill="none" id="app-backto-user-1" style="stroke:#181818;stroke-width:1;"/><polygon fill="#181818" points="250.35,109.6659,240.5133,109.1774,245.6858,111.4675,243.3958,116.6401,250.35,109.6659" style="stroke:#181818;stroke-width:1;"/><text fill="#000000" font-family="sans-serif" font-size="13" lengthAdjust="spacing" textLength="65.1079" x="197.6072" y="288.1328">2.1: Scroll</text><text fill="#000000" font-family="sans-serif" font-size="13" lengthAdjust="spacing" textLength="84.3223" x="188" y="303.2656">through feed</text></g><!--reverse link app to user--><g id="link_app_user"><path d="M304.2934,119.462 C308.9034,135.132 313,153.2759 313,174.5659 C313,174.5659 313,174.5659 313,407.5659 C313,442.1559 284.89,474.2559 266.22,491.7659 " fill="none" id="app-backto-user-2" style="stroke:#181818;stroke-width:1;"/><polygon fill="#181818" points="302.6,113.7059,301.3027,123.469,304.0112,118.5026,308.9775,121.2111,302.6,113.7059" style="stroke:#181818;stroke-width:1;"/><text fill="#000000" font-family="sans-serif" font-size="13" lengthAdjust="spacing" textLength="79.9106" x="344.675" y="280.6328">3.1: Interact</text><text fill="#000000" font-family="sans-serif" font-size="13" lengthAdjust="spacing" textLength="59.7886" x="354.7361" y="295.7656">with post</text><text fill="#000000" font-family="sans-serif" font-size="13" lengthAdjust="spacing" textLength="141.2607" x="314" y="310.8984">(e.g., Like, Comment)</text></g><!--link app to user--><g id="link_app_user"><path d="M343.66,105.1959 C402.48,117.4259 496,142.0059 496,174.5659 C496,174.5659 496,174.5659 496,407.5659 C496,457.2159 326.7736,491.7748 272.0436,501.7048 " fill="none" id="app-to-user" style="stroke:#181818;stroke-width:1;"/><polygon fill="#181818" points="266.14,502.7759,275.7095,505.105,271.0597,501.8833,274.2813,497.2335,266.14,502.7759" style="stroke:#181818;stroke-width:1;"/><text fill="#000000" font-family="sans-serif" font-size="13" lengthAdjust="spacing" textLength="67.8438" x="515.7319" y="288.1328">4.4: Notify</text><text fill="#000000" font-family="sans-serif" font-size="13" lengthAdjust="spacing" textLength="105.3076" x="497" y="303.2656">and retry option</text></g><!--link app to feedController--><g id="link_app_feedController"><path d="M318.54,113.7759 C331.08,123.1759 347.69,133.6659 364.5,138.5659 C382.63,143.8559 515.98,142.2559 534.5,138.5659 C558.73,133.7359 578.9934,125.7177 598.6934,116.2377 " fill="none" id="app-to-feedController" style="stroke:#181818;stroke-width:1;"/><polygon fill="#181818" points="604.1,113.6359,594.2557,113.9341,599.5945,115.804,597.7246,121.1429,604.1,113.6359" style="stroke:#181818;stroke-width:1;"/><text fill="#000000" font-family="sans-serif" font-size="13" lengthAdjust="spacing" textLength="121.5576" x="389" y="134.6328">1.2: Request posts</text></g><!--reverse link app to feedController--><g id="link_app_feedController"><path d="M321.9711,73.6376 C333.8111,64.2476 344.87,57.4859 361,52.5659 C379.81,46.8359 518.74,48.5959 538,52.5659 C561.51,57.4059 586.3,68.0259 605.32,77.4959 " fill="none" id="app-backto-feedController" style="stroke:#181818;stroke-width:1;"/><polygon fill="#181818" points="317.27,77.3659,326.8071,74.9075,321.1875,74.259,321.8361,68.6395,317.27,77.3659" style="stroke:#181818;stroke-width:1;"/><text fill="#000000" font-family="sans-serif" font-size="13" lengthAdjust="spacing" textLength="116.0859" x="391.5" y="42.6328">1.7: Display posts</text></g><!--link app to feedController--><g id="link_app_feedController"><path d="M343.82,111.3159 C350.69,113.0759 357.73,114.5859 364.5,115.5659 C401.89,120.9859 496.89,119.1659 534.5,115.5659 C541.33,114.9159 542.4441,114.8903 549.5041,113.8503 " fill="none" id="app-to-feedController-1" style="stroke:#181818;stroke-width:1;"/><polygon fill="#181818" points="555.44,112.9759,545.9531,110.3302,550.4934,113.7046,547.119,118.2448,555.44,112.9759" style="stroke:#181818;stroke-width:1;"/><text fill="#000000" font-family="sans-serif" font-size="13" lengthAdjust="spacing" textLength="168.2764" x="365.5" y="111.6328">2.2: Load additional posts</text></g><!--reverse link app to feedController--><g id="link_app_feedController"><path d="M312.8304,118.6131 C324.7804,134.6131 340.98,151.9759 364.5,161.5659 C381.99,168.6959 516.37,166.8559 534.5,161.5659 C566.42,152.2559 597.87,129.7859 617.57,113.6459 " fill="none" id="app-backto-feedController-1" style="stroke:#181818;stroke-width:1;"/><polygon fill="#181818" points="309.24,113.8059,311.4208,123.4103,312.232,117.8119,317.8304,118.6231,309.24,113.8059" style="stroke:#181818;stroke-width:1;"/><text fill="#000000" font-family="sans-serif" font-size="13" lengthAdjust="spacing" textLength="109.2241" x="395" y="157.6328">2.7: Update feed</text></g><!--link app to feedController--><g id="link_app_feedController"><path d="M343.8,79.1759 C349.54,77.6859 355.36,76.4259 361,75.5659 C399.88,69.6359 498.86,71.6859 538,75.5659 C543.64,76.1259 543.493,75.9888 549.313,76.8388 " fill="none" id="app-to-feedController-2" style="stroke:#181818;stroke-width:1;"/><polygon fill="#181818" points="555.25,77.7059,546.9225,72.4473,550.3025,76.9833,545.7664,80.3633,555.25,77.7059" style="stroke:#181818;stroke-width:1;"/><text fill="#000000" font-family="sans-serif" font-size="13" lengthAdjust="spacing" textLength="156.5967" x="371.5" y="65.6328">3.2: Forward interaction</text></g><!--reverse link app to feedController--><g id="link_app_feedController"><path d="M311.826,72.4372 C322.996,56.4472 338.22,39.2059 361,29.5659 C379.11,21.8959 519.16,23.9059 538,29.5659 C569.08,38.8959 599.41,61.3659 618.37,77.4959 " fill="none" id="app-backto-feedController-2" style="stroke:#181818;stroke-width:1;"/><polygon fill="#181818" points="308.39,77.3559,316.8232,72.2685,311.2534,73.257,310.2649,67.6872,308.39,77.3559" style="stroke:#181818;stroke-width:1;"/><text fill="#000000" font-family="sans-serif" font-size="13" lengthAdjust="spacing" textLength="93.7485" x="403" y="19.6328">3.7: Update UI</text></g><!--reverse link app to feedController--><g id="link_app_feedController"><path d="M349.7,95.5659 C404.06,95.5659 488.84,95.5659 555.23,95.5659 " fill="none" id="app-backto-feedController-3" style="stroke:#181818;stroke-width:1;"/><polygon fill="#181818" points="343.7,95.5659,352.7,99.5659,348.7,95.5659,352.7,91.5659,343.7,95.5659" style="stroke:#181818;stroke-width:1;"/><text fill="#000000" font-family="sans-serif" font-size="13" lengthAdjust="spacing" textLength="175.7793" x="362" y="88.6328">4.3: Display error message</text></g><!--link feedController to interactionHandler--><g id="link_feedController_interactionHandler"><path d="M672.07,113.6359 C691.88,123.1159 717.66,133.7359 742,138.5659 C775.78,145.2759 863.13,144.8459 897,138.5659 C923.01,133.7459 945.295,125.558 966.675,116.078 " fill="none" id="feedController-to-interactionHandler" style="stroke:#181818;stroke-width:1;"/><polygon fill="#181818" points="972.16,113.6459,962.3111,113.6374,967.5892,115.6726,965.5539,120.9507,972.16,113.6459" style="stroke:#181818;stroke-width:1;"/><text fill="#000000" font-family="sans-serif" font-size="13" lengthAdjust="spacing" textLength="122.9414" x="758.5" y="134.6328">1.3: Retrieve posts</text></g><!--reverse link feedController to interactionHandler--><g id="link_feedController_interactionHandler"><path d="M663.2006,117.4369 C683.0006,133.5769 709.96,152.2559 742,161.5659 C758.54,166.3659 880.38,166.0959 897,161.5659 C930.97,152.3059 965.13,129.8159 986.63,113.6659 " fill="none" id="feedController-backto-interactionHandler" style="stroke:#181818;stroke-width:1;"/><polygon fill="#181818" points="658.55,113.6459,662.9986,122.4328,662.4255,116.8051,668.0533,116.232,658.55,113.6459" style="stroke:#181818;stroke-width:1;"/><text fill="#000000" font-family="sans-serif" font-size="13" lengthAdjust="spacing" textLength="106.5518" x="766.5" y="157.6328">1.6: Return data</text></g><!--link feedController to interactionHandler--><g id="link_feedController_interactionHandler"><path d="M720.8,95.5659 C779.42,95.5659 852.02,95.5659 912.33,95.5659 " fill="none" id="feedController-to-interactionHandler-1" style="stroke:#181818;stroke-width:1;"/><polygon fill="#181818" points="918.33,95.5659,909.33,91.5659,913.33,95.5659,909.33,99.5659,918.33,95.5659" style="stroke:#181818;stroke-width:1;"/><text fill="#000000" font-family="sans-serif" font-size="13" lengthAdjust="spacing" textLength="161.0337" x="739" y="88.6328">2.3: Retrieve more posts</text></g><!--reverse link feedController to interactionHandler--><g id="link_feedController_interactionHandler"><path d="M662.2,73.6081 C681.16,57.4781 706.92,38.8959 738,29.5659 C755.35,24.3559 883.57,24.6559 901,29.5659 C934,38.8459 966.88,61.3259 987.54,77.4759 " fill="none" id="feedController-backto-interactionHandler-1" style="stroke:#181818;stroke-width:1;"/><polygon fill="#181818" points="657.63,77.4959,667.0769,74.7108,661.4383,74.256,661.8931,68.6175,657.63,77.4959" style="stroke:#181818;stroke-width:1;"/><text fill="#000000" font-family="sans-serif" font-size="13" lengthAdjust="spacing" textLength="106.5518" x="766.5" y="19.6328">2.6: Return data</text></g><!--link feedController to interactionHandler--><g id="link_feedController_interactionHandler"><path d="M720.67,112.9359 C727.86,113.9959 735.04,114.9059 742,115.5659 C810.58,122.0959 828.38,121.6459 897,115.5659 C903.98,114.9459 905.2434,114.9148 912.4634,113.9448 " fill="none" id="feedController-to-interactionHandler-2" style="stroke:#181818;stroke-width:1;"/><polygon fill="#181818" points="918.41,113.1459,908.9575,110.3799,913.4545,113.8117,910.0228,118.3087,918.41,113.1459" style="stroke:#181818;stroke-width:1;"/><text fill="#000000" font-family="sans-serif" font-size="13" lengthAdjust="spacing" textLength="153.4546" x="743" y="111.6328">3.3: Process interaction</text></g><!--reverse link feedController to interactionHandler--><g id="link_feedController_interactionHandler"><path d="M726.687,76.8388 C732.507,75.9888 732.36,76.1259 738,75.5659 C810.09,68.4259 828.86,68.9459 901,75.5659 C906.7,76.0859 912.54,76.7659 918.42,77.5459 " fill="none" id="feedController-backto-interactionHandler-2" style="stroke:#181818;stroke-width:1;"/><polygon fill="#181818" points="720.75,77.7059,730.2336,80.3633,725.6975,76.9833,729.0775,72.4473,720.75,77.7059" style="stroke:#181818;stroke-width:1;"/><text fill="#000000" font-family="sans-serif" font-size="13" lengthAdjust="spacing" textLength="140.9116" x="749.5" y="65.6328">3.6: Interaction result</text></g><!--reverse link feedController to interactionHandler--><g id="link_feedController_interactionHandler"><path d="M676.0511,74.8217 C695.0711,65.3517 714.49,57.4059 738,52.5659 C773.48,45.2659 865.43,45.7459 901,52.5659 C926.17,57.3959 952.95,68.0159 973.54,77.4859 " fill="none" id="feedController-backto-interactionHandler-3" style="stroke:#181818;stroke-width:1;"/><polygon fill="#181818" points="670.68,77.4959,680.5194,77.0653,675.1559,75.2674,676.9538,69.9038,670.68,77.4959" style="stroke:#181818;stroke-width:1;"/><text fill="#000000" font-family="sans-serif" font-size="13" lengthAdjust="spacing" textLength="118.2759" x="760.5" y="42.6328">4.2: Forward error</text></g><!--link interactionHandler to backend--><g id="link_interactionHandler_backend"><path d="M1009,113.6059 C1009,129.4059 1009,153.5759 1009,174.5659 C1009,174.5659 1009,174.5659 1009,407.5659 C1009,435.8059 1009,462.6259 1009,482.2159 " fill="none" id="interactionHandler-to-backend" style="stroke:#181818;stroke-width:1;"/><polygon fill="#181818" points="1009,488.2159,1013,479.2159,1009,483.2159,1005,479.2159,1009,488.2159" style="stroke:#181818;stroke-width:1;"/><text fill="#000000" font-family="sans-serif" font-size="13" lengthAdjust="spacing" textLength="83.9604" x="1010" y="288.1328">1.4: Retrieve</text><text fill="#000000" font-family="sans-serif" font-size="13" lengthAdjust="spacing" textLength="61.4897" x="1021.2354" y="303.2656">post data</text></g><!--reverse link interactionHandler to backend--><g id="link_interactionHandler_backend"><path d="M1084.0127,115.9146 C1112.7827,127.5446 1134,144.2559 1134,174.5659 C1134,174.5659 1134,174.5659 1134,407.5659 C1134,447.2759 1094.45,473.3159 1059.84,488.5059 " fill="none" id="interactionHandler-backto-backend" style="stroke:#181818;stroke-width:1;"/><polygon fill="#181818" points="1078.45,113.6659,1085.2949,120.7474,1083.0856,115.5398,1088.2931,113.3305,1078.45,113.6659" style="stroke:#181818;stroke-width:1;"/><text fill="#000000" font-family="sans-serif" font-size="13" lengthAdjust="spacing" textLength="73.1377" x="1135" y="288.1328">1.5: Return</text><text fill="#000000" font-family="sans-serif" font-size="13" lengthAdjust="spacing" textLength="61.4897" x="1140.824" y="303.2656">post data</text></g><!--link interactionHandler to backend--><g id="link_interactionHandler_backend"><path d="M1099.73,108.9459 C1167.7,120.8559 1249,141.9259 1249,174.5659 C1249,174.5659 1249,174.5659 1249,407.5659 C1249,482.9559 1152.2409,501.3161 1081.2109,505.2261 " fill="none" id="interactionHandler-to-backend-1" style="stroke:#181818;stroke-width:1;"/><polygon fill="#181818" points="1075.22,505.5559,1084.4263,509.0552,1080.2124,505.2811,1083.9865,501.0673,1075.22,505.5559" style="stroke:#181818;stroke-width:1;"/><text fill="#000000" font-family="sans-serif" font-size="13" lengthAdjust="spacing" textLength="83.9604" x="1257.0078" y="288.1328">2.4: Retrieve</text><text fill="#000000" font-family="sans-serif" font-size="13" lengthAdjust="spacing" textLength="97.9761" x="1250" y="303.2656">additional data</text></g><!--reverse link interactionHandler to backend--><g id="link_interactionHandler_backend"><path d="M1105.7769,97.6174 C1217.8969,101.1974 1388,115.9559 1388,174.5659 C1388,174.5659 1388,174.5659 1388,407.5659 C1388,471.4459 1183.6,494.3559 1075.02,502.0159 " fill="none" id="interactionHandler-backto-backend-1" style="stroke:#181818;stroke-width:1;"/><polygon fill="#181818" points="1099.78,97.4259,1108.6478,101.7111,1104.7775,97.5855,1108.9031,93.7152,1099.78,97.4259" style="stroke:#181818;stroke-width:1;"/><text fill="#000000" font-family="sans-serif" font-size="13" lengthAdjust="spacing" textLength="73.1377" x="1401.4192" y="288.1328">2.5: Return</text><text fill="#000000" font-family="sans-serif" font-size="13" lengthAdjust="spacing" textLength="97.9761" x="1389" y="303.2656">additional data</text></g><!--link interactionHandler to backend--><g id="link_interactionHandler_backend"><path d="M918.06,98.1459 C809.66,102.5459 643,118.4459 643,174.5659 C643,174.5659 643,174.5659 643,407.5659 C643,468.9059 831.2694,492.4039 936.7394,500.9039 " fill="none" id="interactionHandler-to-backend-2" style="stroke:#181818;stroke-width:1;"/><polygon fill="#181818" points="942.72,501.3859,934.0704,496.6759,937.7362,500.9843,933.4278,504.65,942.72,501.3859" style="stroke:#181818;stroke-width:1;"/><text fill="#000000" font-family="sans-serif" font-size="13" lengthAdjust="spacing" textLength="61.9277" x="664.8965" y="288.1328">3.4: Send</text><text fill="#000000" font-family="sans-serif" font-size="13" lengthAdjust="spacing" textLength="103.7207" x="644" y="303.2656">interaction data</text></g><!--reverse link interactionHandler to backend--><g id="link_interactionHandler_backend"><path d="M912.5976,112.8366 C851.5676,125.6266 788,145.3759 788,174.5659 C788,174.5659 788,174.5659 788,407.5659 C788,476.0859 877.87,497.0659 942.99,503.2759 " fill="none" id="interactionHandler-backto-backend-2" style="stroke:#181818;stroke-width:1;"/><polygon fill="#181818" points="918.47,111.6059,908.8409,109.537,913.5763,112.6315,910.4818,117.3669,918.47,111.6059" style="stroke:#181818;stroke-width:1;"/><text fill="#000000" font-family="sans-serif" font-size="13" lengthAdjust="spacing" textLength="76.2671" x="789" y="288.1328">3.5: Update</text><text fill="#000000" font-family="sans-serif" font-size="13" lengthAdjust="spacing" textLength="61.4897" x="796.3887" y="303.2656">post data</text></g><!--reverse link interactionHandler to backend--><g id="link_interactionHandler_backend"><path d="M952.9836,116.166 C926.9336,128.456 906,145.5159 906,174.5659 C906,174.5659 906,174.5659 906,407.5659 C906,444.8359 941.84,472.2359 971.23,488.4359 " fill="none" id="interactionHandler-backto-backend-3" style="stroke:#181818;stroke-width:1;"/><polygon fill="#181818" points="958.41,113.6059,948.5637,113.8285,953.888,115.7393,951.9771,121.0637,958.41,113.6059" style="stroke:#181818;stroke-width:1;"/><text fill="#000000" font-family="sans-serif" font-size="13" lengthAdjust="spacing" textLength="61.3882" x="907" y="288.1328">4.1: Error</text><text fill="#000000" font-family="sans-serif" font-size="13" lengthAdjust="spacing" textLength="59.3315" x="908.0283" y="303.2656">response</text></g><!--SRC=[dPNVRvim4CVV-rUSyh9DQY8LiX_AGwKjNRLANLKjofvuSU52h8BDR9CeclQ_psUWCOIAK9wGkU_vllSvcurYES9alVm2K_ZDSG-FKXizWRyNO1yM6wdiPurg0an3QL_S1uMnOIBDhFQdVE8PVYqA5y6AeXkmaZ5dsIrYifJ2A9bbTRPDQwaheqBkX45bY-1I_60YQOJyPBah_iRYPnJ92jMEn-X4JzNIXGjz1_UI9L2L1bIRMoP_C2sdz5oJ5rZ0rUng0GzinrDcC196WgvKcqP5SLDb1Mr3JXiiu1V-AL4RAAYpJj29SzfJJquVajueZZlq4lG4JvEwwjgdKy-FwaYG719cc4lHX5cthsx-qSbB9RhYllsp_WPyQd8SrLtxcTVhpmkuuRh8sA6sM-DwcKsuGSDufbky6dr0h5On9RQajagMwVOSJW5nSXF1aeIJBSlt3Ro25gzSgc5eFh2W3SohPGIsmCVMb-9iUC4uU071MnSs4gkUr-Y-YvIb27jkjjNjqeik97JDUO-4YwRUHU8zpjBP9TppPxo4fSnp5ER30D2GWDvAjMSgyGsFmnaIpaSbOzJw9Cimpf1mhknx9BpWCIn3ObcrzCr7C2IAtaLghqbTPcO0PkZ1ND-ze5JA_W_SVboaPvgO4rcdZ8JTkv12upWBSvycKgQ1wkS4hhb7d01ooz2EuN5kY9KRGWgte1wauPk3FJBMZB9dy02oSB3__GS0]--></g></svg>