<svg xmlns="http://www.w3.org/2000/svg" xmlns:xlink="http://www.w3.org/1999/xlink" contentStyleType="text/css" height="520px" preserveAspectRatio="none" style="width:998px;height:520px;background:#FFFFFF;" version="1.1" viewBox="0 0 998 520" width="998px" zoomAndPan="magnify"><defs/><g><!--cluster UC9 - View Profile--><g id="cluster_UC9 - View Profile"><rect fill="none" height="507" rx="2.5" ry="2.5" style="stroke:#181818;stroke-width:1;" width="985" x="7" y="7"/><path d="M158.8457,7 L158.8457,16.2969 L148.8457,26.2969 L7,26.2969 " fill="none" style="stroke:#181818;stroke-width:1;"/><text fill="#000000" font-family="sans-serif" font-size="14" font-weight="bold" lengthAdjust="spacing" textLength="141.8457" x="10" y="20.9951">UC9 - View Profile</text></g><!--entity user--><g id="elem_user"><ellipse cx="38.9551" cy="302.5" fill="#F1F1F1" rx="8" ry="8" style="stroke:#181818;stroke-width:0.5;"/><path d="M38.9551,310.5 L38.9551,337.5 M25.9551,318.5 L51.9551,318.5 M38.9551,337.5 L25.9551,352.5 M38.9551,337.5 L51.9551,352.5 " fill="none" style="stroke:#181818;stroke-width:0.5;"/><text fill="#000000" font-family="sans-serif" font-size="14" lengthAdjust="spacing" textLength="31.9102" x="23" y="366.9951">User</text></g><!--entity app--><g id="elem_app"><rect fill="#F1F1F1" height="36.2969" rx="2.5" ry="2.5" style="stroke:#181818;stroke-width:0.5;" width="93.2744" x="355.5" y="314"/><text fill="#000000" font-family="sans-serif" font-size="14" lengthAdjust="spacing" textLength="73.2744" x="365.5" y="336.9951">MobileApp</text></g><!--entity profileController--><g id="elem_profileController"><rect fill="#F1F1F1" height="36.2969" rx="2.5" ry="2.5" style="stroke:#181818;stroke-width:0.5;" width="133.2578" x="842.5" y="314"/><text fill="#000000" font-family="sans-serif" font-size="14" lengthAdjust="spacing" textLength="113.2578" x="852.5" y="336.9951">ProfileController</text></g><!--entity socialFeed--><g id="elem_socialFeed"><rect fill="#F1F1F1" height="36.2969" rx="2.5" ry="2.5" style="stroke:#181818;stroke-width:0.5;" width="150.7988" x="755.5" y="42"/><text fill="#000000" font-family="sans-serif" font-size="14" lengthAdjust="spacing" textLength="130.7988" x="765.5" y="64.9951">SocialFeedHandler</text></g><!--entity friendsHandler--><g id="elem_friendsHandler"><rect fill="#F1F1F1" height="36.2969" rx="2.5" ry="2.5" style="stroke:#181818;stroke-width:0.5;" width="126.4902" x="820" y="462"/><text fill="#000000" font-family="sans-serif" font-size="14" lengthAdjust="spacing" textLength="106.4902" x="830" y="484.9951">FriendsHandler</text></g><!--link user to app--><g id="link_user_app"><path d="M55.29,342.6 C61.97,346.35 69.95,350.11 77.75,352 C105.28,358.69 304.7,355.97 332.75,352 C340.18,350.95 342.127,350.7762 349.637,348.8562 " fill="none" id="user-to-app" style="stroke:#181818;stroke-width:1;"/><polygon fill="#181818" points="355.45,347.37,345.7397,345.7239,350.6058,348.6085,347.7212,353.4746,355.45,347.37" style="stroke:#181818;stroke-width:1;"/><text fill="#000000" font-family="sans-serif" font-size="13" lengthAdjust="spacing" textLength="253.3984" x="78.75" y="348.0669">1.1: Select a profile or navigate to own</text></g><!--reverse link user to app--><g id="link_user_app"><path d="M59.0303,361.3849 C65.1503,368.6349 68.94,371.08 77.75,375 C90.69,380.76 319.13,378.89 332.75,375 C349.9,370.11 366.94,359.62 379.83,350.22 " fill="none" id="user-backto-app" style="stroke:#181818;stroke-width:1;"/><polygon fill="#181818" points="55.16,356.8,57.9088,366.2575,58.3852,360.6207,64.022,361.0971,55.16,356.8" style="stroke:#181818;stroke-width:1;"/><text fill="#000000" font-family="sans-serif" font-size="13" lengthAdjust="spacing" textLength="156.6538" x="127.25" y="371.0669">3.1: Display profile view</text></g><!--reverse link user to app--><g id="link_user_app"><path d="M61.07,332 C113.27,332 273.49,332 355.43,332 " fill="none" id="user-backto-app-1" style="stroke:#181818;stroke-width:1;"/><polygon fill="#181818" points="55.07,332,64.07,336,60.07,332,64.07,328,55.07,332" style="stroke:#181818;stroke-width:1;"/><text fill="#000000" font-family="sans-serif" font-size="13" lengthAdjust="spacing" textLength="262.8755" x="74.25" y="325.0669">3.2: Show friend count and settings icon</text></g><!--link user to app--><g id="link_user_app"><path d="M52.7,370.04 C58.63,381.02 66.8,391.73 77.75,398 C90.04,405.04 319.6,403.26 332.75,398 C356.65,388.44 373.339,371.0136 385.669,355.0036 " fill="none" id="user-to-app-1" style="stroke:#181818;stroke-width:1;"/><polygon fill="#181818" points="389.33,350.25,380.6694,354.9398,386.2792,354.2114,387.0076,359.8211,389.33,350.25" style="stroke:#181818;stroke-width:1;"/><text fill="#000000" font-family="sans-serif" font-size="13" lengthAdjust="spacing" textLength="143.127" x="133.75" y="394.0669">5.1: Click friend count</text></g><!--link user to app--><g id="link_user_app"><path d="M55.19,304.12 C60.15,298.03 66.2,292.4 73.25,289 C86.46,282.63 323.21,284.76 337.25,289 C353.53,293.91 364.7462,300.7106 376.7362,310.1006 " fill="none" id="user-to-app-2" style="stroke:#181818;stroke-width:1;"/><polygon fill="#181818" points="381.46,313.8,376.8406,305.1016,377.5235,310.7171,371.908,311.4,381.46,313.8" style="stroke:#181818;stroke-width:1;"/><text fill="#000000" font-family="sans-serif" font-size="13" lengthAdjust="spacing" textLength="148.7002" x="131.25" y="279.0669">6.1: Click Settings icon</text></g><!--reverse link user to app--><g id="link_user_app"><path d="M60.4099,317.0281 C65.8499,313.7281 67,313.69 73.25,312 C101.57,304.34 308.25,307.62 337.25,312 C343.18,312.9 349.32,314.23 355.35,315.79 " fill="none" id="user-backto-app-2" style="stroke:#181818;stroke-width:1;"/><polygon fill="#181818" points="55.28,320.14,65.0495,318.8921,59.5549,317.5468,60.9003,312.0522,55.28,320.14" style="stroke:#181818;stroke-width:1;"/><text fill="#000000" font-family="sans-serif" font-size="13" lengthAdjust="spacing" textLength="177.4233" x="116.75" y="302.0669">7.2: Display error and retry</text></g><!--link app to profileController--><g id="link_app_profileController"><path d="M442.99,350.09 C466.72,359.57 497.46,370.19 526,375 C552.19,379.41 738.72,378.84 765,375 C797.79,370.21 827.805,361.5378 855.455,352.0478 " fill="none" id="app-to-profileController" style="stroke:#181818;stroke-width:1;"/><polygon fill="#181818" points="861.13,350.1,851.3189,349.2383,856.4008,351.7232,853.916,356.805,861.13,350.1" style="stroke:#181818;stroke-width:1;"/><text fill="#000000" font-family="sans-serif" font-size="13" lengthAdjust="spacing" textLength="175.5" x="558" y="371.0669">1.2: Request profile details</text></g><!--reverse link app to profileController--><g id="link_app_profileController"><path d="M454.79,332 C545.12,332 737.82,332 842.1,332 " fill="none" id="app-backto-profileController" style="stroke:#181818;stroke-width:1;"/><polygon fill="#181818" points="448.79,332,457.79,336,453.79,332,457.79,328,448.79,332" style="stroke:#181818;stroke-width:1;"/><text fill="#000000" font-family="sans-serif" font-size="13" lengthAdjust="spacing" textLength="355.0498" x="468" y="325.0669">2.1: Retrieve profile data (picture, name, friend count)</text></g><!--reverse link app to profileController--><g id="link_app_profileController"><path d="M454.505,342.3932 C477.665,346.5632 500.24,349.94 526,352 C631.88,360.48 659.03,359.32 765,352 C790.31,350.25 817.94,346.79 842.16,343.24 " fill="none" id="app-backto-profileController-1" style="stroke:#181818;stroke-width:1;"/><polygon fill="#181818" points="448.6,341.33,456.7488,346.8615,453.5209,342.216,458.1664,338.9881,448.6,341.33" style="stroke:#181818;stroke-width:1;"/><text fill="#000000" font-family="sans-serif" font-size="13" lengthAdjust="spacing" textLength="237.561" x="527" y="348.0669">4.3: Display posts below profile data</text></g><!--link app to profileController--><g id="link_app_profileController"><path d="M448.83,315.79 C454.88,314.23 461.05,312.9 467,312 C506.23,306.1 784.6,307.43 824,312 C830.02,312.7 830.3389,312.585 836.5389,313.725 " fill="none" id="app-to-profileController-1" style="stroke:#181818;stroke-width:1;"/><polygon fill="#181818" points="842.44,314.81,834.3117,309.2484,837.5224,313.9058,832.865,317.1165,842.44,314.81" style="stroke:#181818;stroke-width:1;"/><text fill="#000000" font-family="sans-serif" font-size="13" lengthAdjust="spacing" textLength="207.2002" x="542" y="302.0669">6.2: Navigate to Profile Settings</text></g><!--reverse link app to profileController--><g id="link_app_profileController"><path d="M427.3593,310.1077 C439.3993,300.7077 450.67,293.91 467,289 C485.99,283.29 804.71,284.4 824,289 C844.43,293.87 865.51,304.49 881.56,313.96 " fill="none" id="app-backto-profileController-2" style="stroke:#181818;stroke-width:1;"/><polygon fill="#181818" points="422.63,313.8,432.1856,311.4144,426.5711,310.7231,427.2624,305.1086,422.63,313.8" style="stroke:#181818;stroke-width:1;"/><text fill="#000000" font-family="sans-serif" font-size="13" lengthAdjust="spacing" textLength="124.8521" x="583.5" y="279.0669">7.1: Error response</text></g><!--reverse link socialFeed to profileController--><g id="link_socialFeed_profileController"><path d="M807.891,82.4662 C781.371,108.9062 742.67,156.91 763,202 C786.29,253.65 841.6,292.94 877.07,313.93 " fill="none" id="socialFeed-backto-profileController" style="stroke:#181818;stroke-width:1;"/><polygon fill="#181818" points="812.14,78.23,802.9423,81.7516,808.5991,81.7602,808.5906,87.417,812.14,78.23" style="stroke:#181818;stroke-width:1;"/><text fill="#000000" font-family="sans-serif" font-size="13" lengthAdjust="spacing" textLength="83.9604" x="764" y="183.0669">4.1: Retrieve</text><text fill="#000000" font-family="sans-serif" font-size="13" lengthAdjust="spacing" textLength="80.8057" x="765.5774" y="198.1997">recent posts</text></g><!--link socialFeed to profileController--><g id="link_socialFeed_profileController"><path d="M836,78.3 C850.09,127.07 888.3455,259.4855 902.3755,308.0755 " fill="none" id="socialFeed-to-profileController" style="stroke:#181818;stroke-width:1;"/><polygon fill="#181818" points="904.04,313.84,905.3863,304.0836,902.653,309.0362,897.7003,306.3029,904.04,313.84" style="stroke:#181818;stroke-width:1;"/><text fill="#000000" font-family="sans-serif" font-size="13" lengthAdjust="spacing" textLength="73.1377" x="875.834" y="183.0669">4.2: Return</text><text fill="#000000" font-family="sans-serif" font-size="13" lengthAdjust="spacing" textLength="80.8057" x="872" y="198.1997">recent posts</text></g><!--link profileController to friendsHandler--><g id="link_profileController_friendsHandler"><path d="M905.97,350.03 C900.98,378.02 892.1736,427.5132 887.1436,455.7132 " fill="none" id="profileController-to-friendsHandler" style="stroke:#181818;stroke-width:1;"/><polygon fill="#181818" points="886.09,461.62,891.6082,453.4622,886.968,456.6977,883.7325,452.0575,886.09,461.62" style="stroke:#181818;stroke-width:1;"/><text fill="#000000" font-family="sans-serif" font-size="13" lengthAdjust="spacing" textLength="87.4961" x="899.1201" y="413.0669">5.2: Navigate</text><text fill="#000000" font-family="sans-serif" font-size="13" lengthAdjust="spacing" textLength="91.7363" x="897" y="428.1997">to Friends List</text></g><!--SRC=[ZLDDJm8n4BtpAoPSrCGbKL4Y1nE36Wz-1Q8dBtLtmCRQrhOB8SR_xhHBbzrb4JbiI3llzRsPDrF3FX6wpwDpIE25umAUZ9foWLtuxW3zMEgKeGABfWlCGav_meN1r34v4uI-Ls-4kDGwL32jcmKhpf6IpYWXLbIwUTg4JLJAcRX1p6wPp2BCbgVD-Xl3KMQsMZoj7NK2OWyUs9pFc4DmAleDDzuS92Qvy2PW24Uzeo5CKD0JmA9Ue7x82e5QoA9J10dO3L-1wNW8O_pAqRgIA4F7kB1HrHWTgPrZb0HNpB5mjycOY5BaiHTPOajkmiA-vgdB3HwIu4_w5js0LENI7Qn5UwvWVGWddkoAMotOikIQKowYoCU5BFKzQiULj5k8oF3aNIrgZmBD0Imwn-NC0a-Lt30_nXIfy4bPPxUPpvE4Nbe7WTxhLxlmAat1eakMId6IRHbIlnWITKosCFmvX7xlfD8tZu4t5EI-Ee-s-Aqo2tUSWh5VwwuKouFMM9vwhoF1quzQSxUfz7RhUn0uo6iKyYeRIlvO5Dg7rVZ-gVPihNPIc_pEfJchQcoJ46LU6qDB6SpHyUvf3Roa0cJGQiemjePuu0N4gMAezm4s5BDbv-SN]--></g></svg>