<svg xmlns="http://www.w3.org/2000/svg" xmlns:xlink="http://www.w3.org/1999/xlink" contentStyleType="text/css" height="588px" preserveAspectRatio="none" style="width:1804px;height:588px;background:#FFFFFF;" version="1.1" viewBox="0 0 1804 588" width="1804px" zoomAndPan="magnify"><defs/><g><!--cluster foodo--><g id="cluster_foodo"><polygon fill="none" points="16,16,26,6,1287,6,1287,427,1277,437,16,437,16,16" style="stroke:#181818;stroke-width:1;"/><line style="stroke:#181818;stroke-width:1;" x1="1277" x2="1287" y1="16" y2="6"/><line style="stroke:#181818;stroke-width:1;" x1="16" x2="1277" y1="16" y2="16"/><line style="stroke:#181818;stroke-width:1;" x1="1277" x2="1277" y1="16" y2="437"/><text fill="#000000" font-family="sans-serif" font-size="14" font-weight="bold" lengthAdjust="spacing" textLength="68.3457" x="613.3271" y="31.9951">&#171;server&#187;</text><text fill="#000000" font-family="sans-serif" font-size="14" font-weight="bold" lengthAdjust="spacing" textLength="44.9668" x="625.0166" y="48.292">foodo</text></g><!--cluster Microservices--><g id="cluster_Microservices"><polygon fill="none" points="48,313,58,303,1247,303,1247,395,1237,405,48,405,48,313" style="stroke:#181818;stroke-width:1;"/><line style="stroke:#181818;stroke-width:1;" x1="1237" x2="1247" y1="313" y2="303"/><line style="stroke:#181818;stroke-width:1;" x1="48" x2="1237" y1="313" y2="313"/><line style="stroke:#181818;stroke-width:1;" x1="1237" x2="1237" y1="313" y2="405"/><text fill="#000000" font-family="sans-serif" font-size="14" font-weight="bold" lengthAdjust="spacing" textLength="108.3359" x="589.332" y="328.9951">Microservices</text></g><!--cluster External Integrations--><g id="cluster_External Integrations"><polygon fill="none" points="759,479,769,469,1117,469,1117,561,1107,571,759,571,759,479" style="stroke:#181818;stroke-width:1;"/><line style="stroke:#181818;stroke-width:1;" x1="1107" x2="1117" y1="479" y2="469"/><line style="stroke:#181818;stroke-width:1;" x1="759" x2="1107" y1="479" y2="479"/><line style="stroke:#181818;stroke-width:1;" x1="1107" x2="1107" y1="479" y2="571"/><text fill="#000000" font-family="sans-serif" font-size="14" font-weight="bold" lengthAdjust="spacing" textLength="167.918" x="850.041" y="494.9951">External Integrations</text></g><!--entity Gateway--><g id="elem_Gateway"><rect fill="#F1F1F1" height="46.2969" rx="2.5" ry="2.5" style="stroke:#181818;stroke-width:0.5;" width="195.9072" x="909" y="70"/><rect fill="#F1F1F1" height="10" style="stroke:#181818;stroke-width:0.5;" width="15" x="1084.9072" y="75"/><rect fill="#F1F1F1" height="2" style="stroke:#181818;stroke-width:0.5;" width="4" x="1082.9072" y="77"/><rect fill="#F1F1F1" height="2" style="stroke:#181818;stroke-width:0.5;" width="4" x="1082.9072" y="81"/><text fill="#000000" font-family="sans-serif" font-size="14" lengthAdjust="spacing" textLength="155.9072" x="924" y="102.9951">Main Gateway Service</text></g><!--entity Kafka--><g id="elem_Kafka"><rect fill="#F1F1F1" height="46.2969" rx="2.5" ry="2.5" style="stroke:#181818;stroke-width:0.5;" width="79.375" x="794.5" y="70"/><rect fill="#F1F1F1" height="10" style="stroke:#181818;stroke-width:0.5;" width="15" x="853.875" y="75"/><rect fill="#F1F1F1" height="2" style="stroke:#181818;stroke-width:0.5;" width="4" x="851.875" y="77"/><rect fill="#F1F1F1" height="2" style="stroke:#181818;stroke-width:0.5;" width="4" x="851.875" y="81"/><text fill="#000000" font-family="sans-serif" font-size="14" lengthAdjust="spacing" textLength="39.375" x="809.5" y="102.9951">Kafka</text></g><!--entity Notifications Service--><g id="elem_Notifications Service"><rect fill="#F1F1F1" height="46.2969" rx="2.5" ry="2.5" style="stroke:#181818;stroke-width:0.5;" width="183.8145" x="1047" y="343"/><rect fill="#F1F1F1" height="10" style="stroke:#181818;stroke-width:0.5;" width="15" x="1210.8145" y="348"/><rect fill="#F1F1F1" height="2" style="stroke:#181818;stroke-width:0.5;" width="4" x="1208.8145" y="350"/><rect fill="#F1F1F1" height="2" style="stroke:#181818;stroke-width:0.5;" width="4" x="1208.8145" y="354"/><text fill="#000000" font-family="sans-serif" font-size="14" lengthAdjust="spacing" textLength="143.8145" x="1062" y="375.9951">Notifications Service</text></g><!--entity Social Media Service--><g id="elem_Social Media Service"><rect fill="#F1F1F1" height="46.2969" rx="2.5" ry="2.5" style="stroke:#181818;stroke-width:0.5;" width="184.1973" x="426" y="343"/><rect fill="#F1F1F1" height="10" style="stroke:#181818;stroke-width:0.5;" width="15" x="590.1973" y="348"/><rect fill="#F1F1F1" height="2" style="stroke:#181818;stroke-width:0.5;" width="4" x="588.1973" y="350"/><rect fill="#F1F1F1" height="2" style="stroke:#181818;stroke-width:0.5;" width="4" x="588.1973" y="354"/><text fill="#000000" font-family="sans-serif" font-size="14" lengthAdjust="spacing" textLength="144.1973" x="441" y="375.9951">Social Media Service</text></g><!--entity Achievements Service--><g id="elem_Achievements Service"><rect fill="#F1F1F1" height="46.2969" rx="2.5" ry="2.5" style="stroke:#181818;stroke-width:0.5;" width="195.6475" x="645" y="343"/><rect fill="#F1F1F1" height="10" style="stroke:#181818;stroke-width:0.5;" width="15" x="820.6475" y="348"/><rect fill="#F1F1F1" height="2" style="stroke:#181818;stroke-width:0.5;" width="4" x="818.6475" y="350"/><rect fill="#F1F1F1" height="2" style="stroke:#181818;stroke-width:0.5;" width="4" x="818.6475" y="354"/><text fill="#000000" font-family="sans-serif" font-size="14" lengthAdjust="spacing" textLength="155.6475" x="660" y="375.9951">Achievements Service</text></g><!--entity Chats Service--><g id="elem_Chats Service"><rect fill="#F1F1F1" height="46.2969" rx="2.5" ry="2.5" style="stroke:#181818;stroke-width:0.5;" width="136.2021" x="876" y="343"/><rect fill="#F1F1F1" height="10" style="stroke:#181818;stroke-width:0.5;" width="15" x="992.2021" y="348"/><rect fill="#F1F1F1" height="2" style="stroke:#181818;stroke-width:0.5;" width="4" x="990.2021" y="350"/><rect fill="#F1F1F1" height="2" style="stroke:#181818;stroke-width:0.5;" width="4" x="990.2021" y="354"/><text fill="#000000" font-family="sans-serif" font-size="14" lengthAdjust="spacing" textLength="96.2021" x="891" y="375.9951">Chats Service</text></g><!--entity User Service--><g id="elem_User Service"><rect fill="#F1F1F1" height="46.2969" rx="2.5" ry="2.5" style="stroke:#181818;stroke-width:0.5;" width="128.1016" x="263" y="343"/><rect fill="#F1F1F1" height="10" style="stroke:#181818;stroke-width:0.5;" width="15" x="371.1016" y="348"/><rect fill="#F1F1F1" height="2" style="stroke:#181818;stroke-width:0.5;" width="4" x="369.1016" y="350"/><rect fill="#F1F1F1" height="2" style="stroke:#181818;stroke-width:0.5;" width="4" x="369.1016" y="354"/><text fill="#000000" font-family="sans-serif" font-size="14" lengthAdjust="spacing" textLength="88.1016" x="278" y="375.9951">User Service</text></g><!--entity Feedback Service--><g id="elem_Feedback Service"><rect fill="#F1F1F1" height="46.2969" rx="2.5" ry="2.5" style="stroke:#181818;stroke-width:0.5;" width="163.6279" x="64" y="343"/><rect fill="#F1F1F1" height="10" style="stroke:#181818;stroke-width:0.5;" width="15" x="207.6279" y="348"/><rect fill="#F1F1F1" height="2" style="stroke:#181818;stroke-width:0.5;" width="4" x="205.6279" y="350"/><rect fill="#F1F1F1" height="2" style="stroke:#181818;stroke-width:0.5;" width="4" x="205.6279" y="354"/><text fill="#000000" font-family="sans-serif" font-size="14" lengthAdjust="spacing" textLength="123.6279" x="79" y="375.9951">Feedback Service</text></g><!--entity AWS Lambda--><g id="elem_AWS Lambda"><rect fill="#F1F1F1" height="46.2969" rx="2.5" ry="2.5" style="stroke:#181818;stroke-width:0.5;" width="133.126" x="967.5" y="509"/><rect fill="#F1F1F1" height="10" style="stroke:#181818;stroke-width:0.5;" width="15" x="1080.626" y="514"/><rect fill="#F1F1F1" height="2" style="stroke:#181818;stroke-width:0.5;" width="4" x="1078.626" y="516"/><rect fill="#F1F1F1" height="2" style="stroke:#181818;stroke-width:0.5;" width="4" x="1078.626" y="520"/><text fill="#000000" font-family="sans-serif" font-size="14" lengthAdjust="spacing" textLength="93.126" x="982.5" y="541.9951">AWS Lambda</text></g><!--entity LLM Provider API--><g id="elem_LLM Provider API"><rect fill="#F1F1F1" height="46.2969" rx="2.5" ry="2.5" style="stroke:#181818;stroke-width:0.5;" width="156.9219" x="775.5" y="509"/><rect fill="#F1F1F1" height="10" style="stroke:#181818;stroke-width:0.5;" width="15" x="912.4219" y="514"/><rect fill="#F1F1F1" height="2" style="stroke:#181818;stroke-width:0.5;" width="4" x="910.4219" y="516"/><rect fill="#F1F1F1" height="2" style="stroke:#181818;stroke-width:0.5;" width="4" x="910.4219" y="520"/><text fill="#000000" font-family="sans-serif" font-size="14" lengthAdjust="spacing" textLength="116.9219" x="790.5" y="541.9951">LLM Provider API</text></g><!--entity App--><g id="elem_App"><polygon fill="#F1F1F1" points="1609,353,1619,343,1726.7246,343,1726.7246,379.2969,1716.7246,389.2969,1609,389.2969,1609,353" style="stroke:#181818;stroke-width:0.5;"/><line style="stroke:#181818;stroke-width:0.5;" x1="1716.7246" x2="1726.7246" y1="353" y2="343"/><line style="stroke:#181818;stroke-width:0.5;" x1="1609" x2="1716.7246" y1="353" y2="353"/><line style="stroke:#181818;stroke-width:0.5;" x1="1716.7246" x2="1716.7246" y1="353" y2="389.2969"/><text fill="#000000" font-family="sans-serif" font-size="14" lengthAdjust="spacing" textLength="77.7246" x="1624" y="375.9951">Mobile App</text></g><!--entity Firebase--><g id="elem_Firebase"><polygon fill="#F1F1F1" points="1310.5,247,1320.5,237,1469.3359,237,1469.3359,273.2969,1459.3359,283.2969,1310.5,283.2969,1310.5,247" style="stroke:#181818;stroke-width:0.5;"/><line style="stroke:#181818;stroke-width:0.5;" x1="1459.3359" x2="1469.3359" y1="247" y2="237"/><line style="stroke:#181818;stroke-width:0.5;" x1="1310.5" x2="1459.3359" y1="247" y2="247"/><line style="stroke:#181818;stroke-width:0.5;" x1="1459.3359" x2="1459.3359" y1="247" y2="283.2969"/><text fill="#000000" font-family="sans-serif" font-size="14" lengthAdjust="spacing" textLength="118.8359" x="1325.5" y="269.9951">Cloud Messaging</text></g><!--entity Clerk--><g id="elem_Clerk"><polygon fill="#F1F1F1" points="1504.5,247,1514.5,237,1687.8633,237,1687.8633,273.2969,1677.8633,283.2969,1504.5,283.2969,1504.5,247" style="stroke:#181818;stroke-width:0.5;"/><line style="stroke:#181818;stroke-width:0.5;" x1="1677.8633" x2="1687.8633" y1="247" y2="237"/><line style="stroke:#181818;stroke-width:0.5;" x1="1504.5" x2="1677.8633" y1="247" y2="247"/><line style="stroke:#181818;stroke-width:0.5;" x1="1677.8633" x2="1677.8633" y1="247" y2="283.2969"/><text fill="#000000" font-family="sans-serif" font-size="14" lengthAdjust="spacing" textLength="143.3633" x="1519.5" y="269.9951">Clerk Authentication</text></g><!--link App to foodo--><!--link App to Gateway--><g id="link_App_Gateway"><path d="M1685.47,342.65 C1704.82,315 1730.18,267.81 1705,237 C1533.94,27.72 1373.56,171.38 1109,116 C1107.76,115.74 1112.3768,116.7372 1111.1168,116.4672 " fill="none" id="App-to-Gateway" style="stroke:#181818;stroke-width:1;"/><polygon fill="#181818" points="1105.25,115.21,1113.2121,121.007,1110.139,116.2576,1114.8883,113.1846,1105.25,115.21" style="stroke:#181818;stroke-width:1;"/></g><!--link Firebase to App--><g id="link_Firebase_App"><path d="M1448.96,283.06 C1496.13,300.7 1556.3503,323.238 1603.5103,340.878 " fill="none" id="Firebase-to-App" style="stroke:#181818;stroke-width:1;"/><polygon fill="#181818" points="1609.13,342.98,1602.1018,336.0805,1604.4469,341.2283,1599.299,343.5734,1609.13,342.98" style="stroke:#181818;stroke-width:1;"/></g><!--reverse link Clerk to App--><g id="link_Clerk_App"><path d="M1614.6867,287.9921 C1626.9067,305.6321 1640.54,325.34 1652.75,342.98 " fill="none" id="Clerk-backto-App" style="stroke:#181818;stroke-width:1;"/><polygon fill="#181818" points="1611.27,283.06,1613.107,292.736,1614.1173,287.1701,1619.6832,288.1804,1611.27,283.06" style="stroke:#181818;stroke-width:1;"/></g><!--link Gateway to Clerk--><g id="link_Gateway_Clerk"><path d="M1085.82,116.08 C1198.52,147.65 1398.7024,203.7314 1511.3924,235.3014 " fill="none" id="Gateway-to-Clerk" style="stroke:#181818;stroke-width:1;"/><polygon fill="#181818" points="1517.17,236.92,1509.5827,230.6404,1512.3554,235.5712,1507.4246,238.3438,1517.17,236.92" style="stroke:#181818;stroke-width:1;"/></g><!--link Notifications Service to Firebase--><g id="link_Notifications Service_Firebase"><path d="M1192.15,342.98 C1234.73,325.34 1288.6265,302.9955 1331.2265,285.3555 " fill="none" id="Notifications Service-to-Firebase" style="stroke:#181818;stroke-width:1;"/><polygon fill="#181818" points="1336.77,283.06,1326.9244,282.8075,1332.1504,284.9729,1329.985,290.1989,1336.77,283.06" style="stroke:#181818;stroke-width:1;"/></g><!--link Gateway to Notifications Service--><g id="link_Gateway_Notifications Service"><path d="M1017.8,116.18 C1042.62,167.12 1100.8228,286.6257 1125.6028,337.5057 " fill="none" id="Gateway-to-Notifications Service" style="stroke:#181818;stroke-width:1;"/><polygon fill="#181818" points="1128.23,342.9,1127.8854,333.0572,1126.0407,338.4048,1120.6931,336.56,1128.23,342.9" style="stroke:#181818;stroke-width:1;"/></g><!--link Gateway to Social Media Service--><g id="link_Gateway_Social Media Service"><path d="M965.54,116.05 C899.04,151.4 764.38,222.89 650,283 C639.79,288.36 636.97,289.21 627,295 C600.94,310.13 577.2913,325.2853 555.9113,339.4553 " fill="none" id="Gateway-to-Social Media Service" style="stroke:#181818;stroke-width:1;"/><polygon fill="#181818" points="550.91,342.77,560.6217,341.1321,555.0777,340.0078,556.2021,334.4638,550.91,342.77" style="stroke:#181818;stroke-width:1;"/></g><!--link Gateway to Achievements Service--><g id="link_Gateway_Achievements Service"><path d="M986.99,116.25 C954.64,152.02 888.55,224.26 830,283 C809.34,303.73 789.4627,322.4346 771.8027,338.7046 " fill="none" id="Gateway-to-Achievements Service" style="stroke:#181818;stroke-width:1;"/><polygon fill="#181818" points="767.39,342.77,776.7194,339.6137,771.0673,339.3821,771.2988,333.73,767.39,342.77" style="stroke:#181818;stroke-width:1;"/></g><!--link Gateway to Chats Service--><g id="link_Gateway_Chats Service"><path d="M1001.84,116.18 C990,167.12 962.3177,286.1756 950.4977,337.0556 " fill="none" id="Gateway-to-Chats Service" style="stroke:#181818;stroke-width:1;"/><polygon fill="#181818" points="949.14,342.9,955.0728,335.0386,950.2714,338.0297,947.2803,333.2283,949.14,342.9" style="stroke:#181818;stroke-width:1;"/></g><!--link Kafka to Notifications Service--><g id="link_Kafka_Notifications Service"><path d="M863.4452,120.1653 C920.7752,171.1053 1052.3852,288.0342 1109.6352,338.9142 " fill="none" id="Kafka-Notifications Service" style="stroke:#181818;stroke-width:1;"/><polygon fill="#181818" points="858.96,116.18,863.031,125.1481,862.6977,119.5011,868.3447,119.1678,858.96,116.18" style="stroke:#181818;stroke-width:1;"/><polygon fill="#181818" points="1114.12,342.9,1110.05,333.9314,1110.3827,339.5785,1104.7356,339.9112,1114.12,342.9" style="stroke:#181818;stroke-width:1;"/></g><!--link Kafka to Social Media Service--><g id="link_Kafka_Social Media Service"><path d="M803.5854,120.0859 C744.1854,171.0259 607.6442,288.1137 548.3242,338.9937 " fill="none" id="Kafka-Social Media Service" style="stroke:#181818;stroke-width:1;"/><polygon fill="#181818" points="808.14,116.18,798.7042,119.0025,804.3445,119.4349,803.9121,125.0752,808.14,116.18" style="stroke:#181818;stroke-width:1;"/><polygon fill="#181818" points="543.77,342.9,553.2055,340.0768,547.5652,339.6448,547.9972,334.0044,543.77,342.9" style="stroke:#181818;stroke-width:1;"/></g><!--link Kafka to Achievements Service--><g id="link_Kafka_Achievements Service"><path d="M824.6406,121.8681 C807.5406,172.8081 769.4094,286.3319 752.3294,337.2119 " fill="none" id="Kafka-Achievements Service" style="stroke:#181818;stroke-width:1;"/><polygon fill="#181818" points="826.55,116.18,819.8938,123.4392,824.9588,120.9201,827.4779,125.985,826.55,116.18" style="stroke:#181818;stroke-width:1;"/><polygon fill="#181818" points="750.42,342.9,757.0762,335.6409,752.0112,338.1599,749.4921,333.0949,750.42,342.9" style="stroke:#181818;stroke-width:1;"/></g><!--link Kafka to Chats Service--><g id="link_Kafka_Chats Service"><path d="M845.2569,121.7393 C865.9369,172.6793 912.1236,286.4604 932.7736,337.3404 " fill="none" id="Kafka-Chats Service" style="stroke:#181818;stroke-width:1;"/><polygon fill="#181818" points="843,116.18,842.6791,126.0236,844.8808,120.8128,850.0916,123.0144,843,116.18" style="stroke:#181818;stroke-width:1;"/><polygon fill="#181818" points="935.03,342.9,935.3518,333.0564,933.1497,338.267,927.939,336.0649,935.03,342.9" style="stroke:#181818;stroke-width:1;"/></g><!--link Chats Service to AWS Lambda--><g id="link_Chats Service_AWS Lambda"><path d="M956.14,389.12 C973.36,420.51 1001.8233,472.3701 1019.0233,503.7101 " fill="none" id="Chats Service-to-AWS Lambda" style="stroke:#181818;stroke-width:1;"/><polygon fill="#181818" points="1021.91,508.97,1021.0865,499.1556,1019.5044,504.5867,1014.0733,503.0046,1021.91,508.97" style="stroke:#181818;stroke-width:1;"/></g><!--link Chats Service to LLM Provider API--><g id="link_Chats Service_LLM Provider API"><path d="M931.86,389.12 C914.64,420.51 886.1767,472.3701 868.9767,503.7101 " fill="none" id="Chats Service-to-LLM Provider API" style="stroke:#181818;stroke-width:1;"/><polygon fill="#181818" points="866.09,508.97,873.9267,503.0046,868.4956,504.5867,866.9135,499.1556,866.09,508.97" style="stroke:#181818;stroke-width:1;"/></g><!--link Gateway to Kafka--><!--SRC=[VL51ReCm4BppYbNk_212Gb5JHGrLfAZgWN9Oy2PO8NPaEschAd-liHqYKr8kmEnuTZmZ92EO5RBc7K5-Eiq0TVzEX1iiEdbcK93MkETYxwPBhgX6JGE5r07oisb96DwWuL8udXiaWJMVQr8NKbds8NPICkaexWj-ahBWZP8zWpUaA_kFNC0p6lh4RzXwlEfF12mfNt1tm2gvtXP42ZEh2L2-IiDtmP8UPFh9LZOSEtinnZ4Qv4tBwK97UvVunAB54V9cjqN0aeZLs1pku3MOU_eof8HTk1A6zieR2YRpzosiyLWpT2BhTG4R9I-SMVLyi-f5R1-GseULBMUCHEM32tWs1EM0UNfEXuuyP97Crm79ZPkcDonva9Edt9MYau-oZKdJCSUSwSHZpYXyrxszwBzEOjAqavWpxIJcZ9oC_i7ht1k5QSQVaY6iwRTqGyiXX5y0]--></g></svg>